# MagicaVoxel @ Ephtracy

# group
o 

# material
mtllib GoblinEnemy.mtl
usemtl palette

# normals
vn -1 0 0
vn 1 0 0
vn 0 0 1
vn 0 0 -1
vn 0 -1 0
vn 0 1 0

# texcoords
vt 0.373047 0.5
vt 0.888672 0.5
vt 0.896484 0.5
vt 0.958984 0.5
vt 0.994141 0.5

# verts
v -0.4 0.2 0.1
v -0.4 0.2 -0.2
v -0.4 0.3 0.2
v -0.4 0.3 0.1
v -0.4 0.3 -0.2
v -0.4 0.3 -0.3
v -0.4 0.5 0.5
v -0.4 0.5 0.2
v -0.4 0.6 0.6
v -0.4 0.6 0.5
v -0.4 0.7 0.6
v -0.4 0.7 0.1
v -0.4 0.7 -0.2
v -0.4 0.7 -0.3
v -0.4 0.8 0.1
v -0.4 0.8 -0.2
v -0.3 0 0.1
v -0.3 0 -0.2
v -0.3 0.2 0.2
v -0.3 0.2 0.1
v -0.3 0.2 -0.2
v -0.3 0.2 -0.3
v -0.3 0.3 0.2
v -0.3 0.3 0.1
v -0.3 0.3 -0.2
v -0.3 0.3 -0.3
v -0.3 0.7 0.2
v -0.3 0.7 0.1
v -0.3 0.7 -0.2
v -0.3 0.7 -0.3
v -0.3 0.8 0.2
v -0.3 0.8 0.1
v -0.3 0.8 -0.2
v -0.3 0.8 -0.3
v -0.2 0.7 0.3
v -0.2 0.7 0.2
v -0.2 0.8 0.4
v -0.2 0.8 0.3
v -0.2 0.8 0.2
v -0.2 0.8 -0.1
v -0.2 1.1 0.4
v -0.2 1.1 0.3
v -0.2 1.2 0.4
v -0.2 1.2 0.3
v -0.2 1.2 0
v -0.2 1.2 -0.1
v -0.2 1.3 0.3
v -0.2 1.3 0
v -0.1 0.7 0.4
v -0.1 0.7 0.3
v -0.1 0.8 0.4
v -0.1 0.8 0.3
v -0.1 0.8 -0.1
v -0.1 0.8 -0.2
v -0.1 0.9 -0.1
v -0.1 0.9 -0.2
v -0.1 1.2 0.4
v -0.1 1.2 0.3
v -0.1 1.2 0
v -0.1 1.2 -0.1
v -0.1 1.3 0.4
v -0.1 1.3 0.3
v -0.1 1.3 0
v -0.1 1.3 -0.1
v 0 0.9 0.6
v 0 0.9 0.4
v 0 1 0.6
v 0 1 0.4
v 0.1 0.1 0.1
v 0.1 0.1 -0.2
v 0.1 0.2 0.1
v 0.1 0.2 -0.2
v 0.2 0 0.1
v 0.2 0 -0.2
v 0.2 0.1 0.1
v 0.2 0.1 -0.2
v 0.3 0.5 0.4
v 0.3 0.5 0.2
v 0.3 0.6 0.6
v 0.3 0.6 0.4
v 0.3 0.6 0.2
v 0.3 0.7 0.6
v 0.3 0.7 0.3
v 0.3 0.7 0.2
v 0.4 0.5 0.5
v 0.4 0.5 0.4
v 0.4 0.6 0.5
v 0.4 0.6 0.4
v -0.3 0.5 0.5
v -0.3 0.5 0.4
v -0.3 0.6 0.5
v -0.3 0.6 0.4
v -0.2 0.5 0.4
v -0.2 0.5 0.2
v -0.2 0.6 0.6
v -0.2 0.6 0.4
v -0.2 0.6 0.2
v -0.2 0.7 0.6
v -0.2 0.7 0.3
v -0.2 0.7 0.2
v -0.1 0 0.1
v -0.1 0 -0.2
v -0.1 0.1 0.1
v -0.1 0.1 -0.2
v 0 0.1 0.1
v 0 0.1 -0.2
v 0 0.2 0.1
v 0 0.2 -0.2
v 0.1 0.9 0.6
v 0.1 0.9 0.4
v 0.1 1 0.6
v 0.1 1 0.4
v 0.2 0.7 0.4
v 0.2 0.7 0.3
v 0.2 0.8 0.4
v 0.2 0.8 0.3
v 0.2 0.8 -0.1
v 0.2 0.8 -0.2
v 0.2 0.9 -0.1
v 0.2 0.9 -0.2
v 0.2 1.2 0.4
v 0.2 1.2 0.3
v 0.2 1.2 0
v 0.2 1.2 -0.1
v 0.2 1.3 0.4
v 0.2 1.3 0.3
v 0.2 1.3 0
v 0.2 1.3 -0.1
v 0.3 0.7 0.3
v 0.3 0.7 0.2
v 0.3 0.8 0.4
v 0.3 0.8 0.3
v 0.3 0.8 0.2
v 0.3 0.8 -0.1
v 0.3 1.1 0.4
v 0.3 1.1 0.3
v 0.3 1.2 0.4
v 0.3 1.2 0.3
v 0.3 1.2 0
v 0.3 1.2 -0.1
v 0.3 1.3 0.3
v 0.3 1.3 0
v 0.4 0 0.1
v 0.4 0 -0.2
v 0.4 0.2 0.2
v 0.4 0.2 0.1
v 0.4 0.2 -0.2
v 0.4 0.2 -0.3
v 0.4 0.3 0.2
v 0.4 0.3 0.1
v 0.4 0.3 -0.2
v 0.4 0.3 -0.3
v 0.4 0.7 0.2
v 0.4 0.7 0.1
v 0.4 0.7 -0.2
v 0.4 0.7 -0.3
v 0.4 0.8 0.2
v 0.4 0.8 0.1
v 0.4 0.8 -0.2
v 0.4 0.8 -0.3
v 0.5 0.2 0.1
v 0.5 0.2 -0.2
v 0.5 0.3 0.2
v 0.5 0.3 0.1
v 0.5 0.3 -0.2
v 0.5 0.3 -0.3
v 0.5 0.5 0.5
v 0.5 0.5 0.2
v 0.5 0.6 0.6
v 0.5 0.6 0.5
v 0.5 0.7 0.6
v 0.5 0.7 0.1
v 0.5 0.7 -0.2
v 0.5 0.7 -0.3
v 0.5 0.8 0.1
v 0.5 0.8 -0.2
v -0.4 0.6 0.6
v -0.4 0.7 0.6
v -0.2 0.6 0.6
v -0.2 0.7 0.6
v 0 0.9 0.6
v 0 1 0.6
v 0.1 0.9 0.6
v 0.1 1 0.6
v 0.3 0.6 0.6
v 0.3 0.7 0.6
v 0.5 0.6 0.6
v 0.5 0.7 0.6
v -0.4 0.5 0.5
v -0.4 0.6 0.5
v -0.3 0.5 0.5
v -0.3 0.6 0.5
v 0.4 0.5 0.5
v 0.4 0.6 0.5
v 0.5 0.5 0.5
v 0.5 0.6 0.5
v -0.3 0.5 0.4
v -0.3 0.6 0.4
v -0.2 0.5 0.4
v -0.2 0.6 0.4
v -0.2 0.8 0.4
v -0.2 1.1 0.4
v -0.2 1.2 0.4
v -0.1 0.7 0.4
v -0.1 0.8 0.4
v -0.1 0.9 0.4
v -0.1 1 0.4
v -0.1 1.1 0.4
v -0.1 1.2 0.4
v -0.1 1.3 0.4
v 0 0.9 0.4
v 0 1 0.4
v 0 1.1 0.4
v 0.1 0.9 0.4
v 0.1 1 0.4
v 0.1 1.1 0.4
v 0.2 0.7 0.4
v 0.2 0.8 0.4
v 0.2 0.9 0.4
v 0.2 1 0.4
v 0.2 1.1 0.4
v 0.2 1.2 0.4
v 0.2 1.3 0.4
v 0.3 0.5 0.4
v 0.3 0.6 0.4
v 0.3 0.8 0.4
v 0.3 1.1 0.4
v 0.3 1.2 0.4
v 0.4 0.5 0.4
v 0.4 0.6 0.4
v -0.2 0.7 0.3
v -0.2 0.8 0.3
v -0.2 1.2 0.3
v -0.2 1.3 0.3
v -0.1 0.7 0.3
v -0.1 0.8 0.3
v -0.1 1.2 0.3
v -0.1 1.3 0.3
v 0.2 0.7 0.3
v 0.2 0.8 0.3
v 0.2 1.2 0.3
v 0.2 1.3 0.3
v 0.3 0.7 0.3
v 0.3 0.8 0.3
v 0.3 1.2 0.3
v 0.3 1.3 0.3
v -0.4 0.3 0.2
v -0.4 0.5 0.2
v -0.3 0.2 0.2
v -0.3 0.3 0.2
v -0.3 0.7 0.2
v -0.3 0.8 0.2
v -0.2 0.5 0.2
v -0.2 0.6 0.2
v -0.2 0.7 0.2
v -0.2 0.8 0.2
v -0.1 0.5 0.2
v -0.1 0.6 0.2
v 0 0.3 0.2
v 0 0.4 0.2
v 0.1 0.3 0.2
v 0.1 0.4 0.2
v 0.2 0.5 0.2
v 0.2 0.6 0.2
v 0.3 0.5 0.2
v 0.3 0.6 0.2
v 0.3 0.7 0.2
v 0.3 0.8 0.2
v 0.4 0.2 0.2
v 0.4 0.3 0.2
v 0.4 0.7 0.2
v 0.4 0.8 0.2
v 0.5 0.3 0.2
v 0.5 0.5 0.2
v -0.4 0.2 0.1
v -0.4 0.3 0.1
v -0.4 0.7 0.1
v -0.4 0.8 0.1
v -0.3 0 0.1
v -0.3 0.2 0.1
v -0.3 0.3 0.1
v -0.3 0.7 0.1
v -0.3 0.8 0.1
v -0.1 0 0.1
v -0.1 0.1 0.1
v 0 0.1 0.1
v 0 0.2 0.1
v 0.1 0.1 0.1
v 0.1 0.2 0.1
v 0.2 0 0.1
v 0.2 0.1 0.1
v 0.4 0 0.1
v 0.4 0.2 0.1
v 0.4 0.3 0.1
v 0.4 0.7 0.1
v 0.4 0.8 0.1
v 0.5 0.2 0.1
v 0.5 0.3 0.1
v 0.5 0.7 0.1
v 0.5 0.8 0.1
v -0.2 1.2 0
v -0.2 1.3 0
v -0.1 1.2 0
v -0.1 1.3 0
v 0.2 1.2 0
v 0.2 1.3 0
v 0.3 1.2 0
v 0.3 1.3 0
v -0.2 0.8 -0.1
v -0.2 1.2 -0.1
v -0.1 0.8 -0.1
v -0.1 0.9 -0.1
v -0.1 1.2 -0.1
v -0.1 1.3 -0.1
v 0.2 0.8 -0.1
v 0.2 0.9 -0.1
v 0.2 1.2 -0.1
v 0.2 1.3 -0.1
v 0.3 0.8 -0.1
v 0.3 1.2 -0.1
v -0.4 0.2 -0.2
v -0.4 0.3 -0.2
v -0.4 0.7 -0.2
v -0.4 0.8 -0.2
v -0.3 0 -0.2
v -0.3 0.2 -0.2
v -0.3 0.3 -0.2
v -0.3 0.7 -0.2
v -0.3 0.8 -0.2
v -0.1 0 -0.2
v -0.1 0.1 -0.2
v -0.1 0.8 -0.2
v -0.1 0.9 -0.2
v 0 0.1 -0.2
v 0 0.2 -0.2
v 0.1 0.1 -0.2
v 0.1 0.2 -0.2
v 0.2 0 -0.2
v 0.2 0.1 -0.2
v 0.2 0.8 -0.2
v 0.2 0.9 -0.2
v 0.4 0 -0.2
v 0.4 0.2 -0.2
v 0.4 0.3 -0.2
v 0.4 0.7 -0.2
v 0.4 0.8 -0.2
v 0.5 0.2 -0.2
v 0.5 0.3 -0.2
v 0.5 0.7 -0.2
v 0.5 0.8 -0.2
v -0.4 0.3 -0.3
v -0.4 0.7 -0.3
v -0.3 0.2 -0.3
v -0.3 0.3 -0.3
v -0.3 0.7 -0.3
v -0.3 0.8 -0.3
v 0.4 0.2 -0.3
v 0.4 0.3 -0.3
v 0.4 0.7 -0.3
v 0.4 0.8 -0.3
v 0.5 0.3 -0.3
v 0.5 0.7 -0.3
v -0.3 0 0.1
v -0.1 0 0.1
v 0.2 0 0.1
v 0.4 0 0.1
v -0.3 0 -0.2
v -0.1 0 -0.2
v 0.2 0 -0.2
v 0.4 0 -0.2
v -0.1 0.1 0.1
v 0 0.1 0.1
v 0.1 0.1 0.1
v 0.2 0.1 0.1
v -0.1 0.1 -0.2
v 0 0.1 -0.2
v 0.1 0.1 -0.2
v 0.2 0.1 -0.2
v -0.3 0.2 0.2
v 0.4 0.2 0.2
v -0.4 0.2 0.1
v -0.3 0.2 0.1
v 0 0.2 0.1
v 0.1 0.2 0.1
v 0.4 0.2 0.1
v 0.5 0.2 0.1
v -0.4 0.2 -0.2
v -0.3 0.2 -0.2
v 0 0.2 -0.2
v 0.1 0.2 -0.2
v 0.4 0.2 -0.2
v 0.5 0.2 -0.2
v -0.3 0.2 -0.3
v 0.4 0.2 -0.3
v -0.4 0.3 0.2
v -0.3 0.3 0.2
v 0.4 0.3 0.2
v 0.5 0.3 0.2
v -0.4 0.3 0.1
v -0.3 0.3 0.1
v 0.4 0.3 0.1
v 0.5 0.3 0.1
v -0.4 0.3 -0.2
v -0.3 0.3 -0.2
v 0.4 0.3 -0.2
v 0.5 0.3 -0.2
v -0.4 0.3 -0.3
v -0.3 0.3 -0.3
v 0.4 0.3 -0.3
v 0.5 0.3 -0.3
v -0.4 0.5 0.5
v -0.3 0.5 0.5
v 0.4 0.5 0.5
v 0.5 0.5 0.5
v -0.3 0.5 0.4
v -0.2 0.5 0.4
v 0.3 0.5 0.4
v 0.4 0.5 0.4
v -0.4 0.5 0.2
v -0.2 0.5 0.2
v 0.3 0.5 0.2
v 0.5 0.5 0.2
v -0.4 0.6 0.6
v -0.2 0.6 0.6
v 0.3 0.6 0.6
v 0.5 0.6 0.6
v -0.4 0.6 0.5
v -0.3 0.6 0.5
v 0.4 0.6 0.5
v 0.5 0.6 0.5
v -0.3 0.6 0.4
v -0.2 0.6 0.4
v 0.3 0.6 0.4
v 0.4 0.6 0.4
v -0.1 0.7 0.4
v 0.2 0.7 0.4
v -0.2 0.7 0.3
v -0.1 0.7 0.3
v 0.2 0.7 0.3
v 0.3 0.7 0.3
v -0.2 0.7 0.2
v 0.3 0.7 0.2
v -0.2 0.8 0.4
v -0.1 0.8 0.4
v 0.2 0.8 0.4
v 0.3 0.8 0.4
v -0.2 0.8 0.3
v -0.1 0.8 0.3
v 0.2 0.8 0.3
v 0.3 0.8 0.3
v 0 0.9 0.6
v 0.1 0.9 0.6
v 0 0.9 0.4
v 0.1 0.9 0.4
v -0.4 0.7 0.6
v -0.2 0.7 0.6
v 0.3 0.7 0.6
v 0.5 0.7 0.6
v -0.2 0.7 0.3
v 0.3 0.7 0.3
v -0.3 0.7 0.2
v -0.2 0.7 0.2
v 0.3 0.7 0.2
v 0.4 0.7 0.2
v -0.4 0.7 0.1
v -0.3 0.7 0.1
v 0.4 0.7 0.1
v 0.5 0.7 0.1
v -0.4 0.7 -0.2
v -0.3 0.7 -0.2
v 0.4 0.7 -0.2
v 0.5 0.7 -0.2
v -0.4 0.7 -0.3
v -0.3 0.7 -0.3
v 0.4 0.7 -0.3
v 0.5 0.7 -0.3
v -0.3 0.8 0.2
v -0.2 0.8 0.2
v 0.3 0.8 0.2
v 0.4 0.8 0.2
v -0.4 0.8 0.1
v -0.3 0.8 0.1
v 0.4 0.8 0.1
v 0.5 0.8 0.1
v -0.2 0.8 -0.1
v -0.1 0.8 -0.1
v 0.2 0.8 -0.1
v 0.3 0.8 -0.1
v -0.4 0.8 -0.2
v -0.3 0.8 -0.2
v -0.1 0.8 -0.2
v 0.2 0.8 -0.2
v 0.4 0.8 -0.2
v 0.5 0.8 -0.2
v -0.3 0.8 -0.3
v 0.4 0.8 -0.3
v -0.1 0.9 -0.1
v 0.2 0.9 -0.1
v -0.1 0.9 -0.2
v 0.2 0.9 -0.2
v 0 1 0.6
v 0.1 1 0.6
v 0 1 0.4
v 0.1 1 0.4
v -0.2 1.2 0.4
v -0.1 1.2 0.4
v 0.2 1.2 0.4
v 0.3 1.2 0.4
v -0.2 1.2 0.3
v -0.1 1.2 0.3
v 0.2 1.2 0.3
v 0.3 1.2 0.3
v -0.2 1.2 0
v -0.1 1.2 0
v 0.2 1.2 0
v 0.3 1.2 0
v -0.2 1.2 -0.1
v -0.1 1.2 -0.1
v 0.2 1.2 -0.1
v 0.3 1.2 -0.1
v -0.1 1.3 0.4
v 0.2 1.3 0.4
v -0.2 1.3 0.3
v -0.1 1.3 0.3
v 0.2 1.3 0.3
v 0.3 1.3 0.3
v -0.2 1.3 0
v -0.1 1.3 0
v 0.2 1.3 0
v 0.3 1.3 0
v -0.1 1.3 -0.1
v 0.2 1.3 -0.1

# faces
f 4/1/1 2/1/1 1/1/1
f 5/1/1 2/1/1 4/1/1
f 8/2/1 4/2/1 3/2/1
f 8/2/1 6/2/1 5/2/1
f 8/2/1 5/2/1 4/2/1
f 10/2/1 8/2/1 7/2/1
f 11/2/1 10/2/1 9/2/1
f 12/2/1 6/2/1 8/2/1
f 12/2/1 10/2/1 11/2/1
f 12/2/1 8/2/1 10/2/1
f 13/2/1 6/2/1 12/2/1
f 14/2/1 6/2/1 13/2/1
f 15/2/1 13/2/1 12/2/1
f 16/2/1 13/2/1 15/2/1
f 20/1/1 18/1/1 17/1/1
f 21/1/1 18/1/1 20/1/1
f 23/1/1 20/1/1 19/1/1
f 24/1/1 20/1/1 23/1/1
f 25/1/1 22/1/1 21/1/1
f 26/1/1 22/1/1 25/1/1
f 31/2/1 28/2/1 27/2/1
f 32/2/1 28/2/1 31/2/1
f 33/2/1 30/2/1 29/2/1
f 34/2/1 30/2/1 33/2/1
f 38/2/1 36/2/1 35/2/1
f 39/2/1 36/2/1 38/2/1
f 41/2/1 38/2/1 37/2/1
f 41/2/1 40/2/1 39/2/1
f 41/2/1 39/2/1 38/2/1
f 42/2/1 40/2/1 41/2/1
f 43/5/1 42/5/1 41/5/1
f 44/2/1 40/2/1 42/2/1
f 44/5/1 42/5/1 43/5/1
f 45/2/1 40/2/1 44/2/1
f 46/2/1 40/2/1 45/2/1
f 47/2/1 45/2/1 44/2/1
f 48/2/1 45/2/1 47/2/1
f 51/2/1 50/2/1 49/2/1
f 52/2/1 50/2/1 51/2/1
f 55/2/1 54/2/1 53/2/1
f 56/2/1 54/2/1 55/2/1
f 61/2/1 58/2/1 57/2/1
f 62/2/1 58/2/1 61/2/1
f 63/2/1 60/2/1 59/2/1
f 64/2/1 60/2/1 63/2/1
f 67/2/1 66/2/1 65/2/1
f 68/2/1 66/2/1 67/2/1
f 71/1/1 70/1/1 69/1/1
f 72/1/1 70/1/1 71/1/1
f 75/1/1 74/1/1 73/1/1
f 76/1/1 74/1/1 75/1/1
f 80/2/1 78/2/1 77/2/1
f 81/2/1 78/2/1 80/2/1
f 82/2/1 80/2/1 79/2/1
f 82/2/1 81/2/1 80/2/1
f 83/2/1 81/2/1 82/2/1
f 84/2/1 81/2/1 83/2/1
f 87/2/1 86/2/1 85/2/1
f 88/2/1 86/2/1 87/2/1
f 89/2/2 90/2/2 91/2/2
f 91/2/2 90/2/2 92/2/2
f 93/2/2 94/2/2 96/2/2
f 96/2/2 94/2/2 97/2/2
f 95/2/2 96/2/2 98/2/2
f 96/2/2 97/2/2 98/2/2
f 98/2/2 97/2/2 99/2/2
f 99/2/2 97/2/2 100/2/2
f 101/1/2 102/1/2 103/1/2
f 103/1/2 102/1/2 104/1/2
f 105/1/2 106/1/2 107/1/2
f 107/1/2 106/1/2 108/1/2
f 109/2/2 110/2/2 111/2/2
f 111/2/2 110/2/2 112/2/2
f 113/2/2 114/2/2 115/2/2
f 115/2/2 114/2/2 116/2/2
f 117/2/2 118/2/2 119/2/2
f 119/2/2 118/2/2 120/2/2
f 121/2/2 122/2/2 125/2/2
f 125/2/2 122/2/2 126/2/2
f 123/2/2 124/2/2 127/2/2
f 127/2/2 124/2/2 128/2/2
f 129/2/2 130/2/2 132/2/2
f 132/2/2 130/2/2 133/2/2
f 131/2/2 132/2/2 135/2/2
f 133/2/2 134/2/2 135/2/2
f 132/2/2 133/2/2 135/2/2
f 135/2/2 134/2/2 136/2/2
f 135/5/2 136/5/2 137/5/2
f 136/2/2 134/2/2 138/2/2
f 137/5/2 136/5/2 138/5/2
f 138/2/2 134/2/2 139/2/2
f 139/2/2 134/2/2 140/2/2
f 138/2/2 139/2/2 141/2/2
f 141/2/2 139/2/2 142/2/2
f 143/1/2 144/1/2 146/1/2
f 146/1/2 144/1/2 147/1/2
f 145/1/2 146/1/2 149/1/2
f 149/1/2 146/1/2 150/1/2
f 147/1/2 148/1/2 151/1/2
f 151/1/2 148/1/2 152/1/2
f 153/2/2 154/2/2 157/2/2
f 157/2/2 154/2/2 158/2/2
f 155/2/2 156/2/2 159/2/2
f 159/2/2 156/2/2 160/2/2
f 161/1/2 162/1/2 164/1/2
f 164/1/2 162/1/2 165/1/2
f 163/2/2 164/2/2 168/2/2
f 165/2/2 166/2/2 168/2/2
f 164/2/2 165/2/2 168/2/2
f 167/2/2 168/2/2 170/2/2
f 169/2/2 170/2/2 171/2/2
f 168/2/2 166/2/2 172/2/2
f 171/2/2 170/2/2 172/2/2
f 170/2/2 168/2/2 172/2/2
f 172/2/2 166/2/2 173/2/2
f 173/2/2 166/2/2 174/2/2
f 172/2/2 173/2/2 175/2/2
f 175/2/2 173/2/2 176/2/2
f 179/2/3 178/2/3 177/2/3
f 180/2/3 178/2/3 179/2/3
f 183/2/3 182/2/3 181/2/3
f 184/2/3 182/2/3 183/2/3
f 187/2/3 186/2/3 185/2/3
f 188/2/3 186/2/3 187/2/3
f 191/2/3 190/2/3 189/2/3
f 192/2/3 190/2/3 191/2/3
f 195/2/3 194/2/3 193/2/3
f 196/2/3 194/2/3 195/2/3
f 199/2/3 198/2/3 197/2/3
f 200/2/3 198/2/3 199/2/3
f 205/2/3 202/2/3 201/2/3
f 206/2/3 202/2/3 205/2/3
f 207/2/3 202/2/3 206/2/3
f 208/5/3 203/5/3 202/5/3
f 208/2/3 202/2/3 207/2/3
f 209/5/3 203/5/3 208/5/3
f 211/2/3 207/2/3 206/2/3
f 211/4/3 206/4/3 205/4/3
f 212/5/3 208/5/3 207/5/3
f 212/2/3 207/2/3 211/2/3
f 213/2/3 210/2/3 209/2/3
f 213/5/3 208/5/3 212/5/3
f 213/2/3 209/2/3 208/2/3
f 214/4/3 211/4/3 205/4/3
f 215/2/3 213/2/3 212/2/3
f 216/2/3 210/2/3 213/2/3
f 216/2/3 213/2/3 215/2/3
f 217/2/3 205/2/3 204/2/3
f 218/4/3 214/4/3 205/4/3
f 218/2/3 205/2/3 217/2/3
f 219/2/3 215/2/3 214/2/3
f 219/4/3 214/4/3 218/4/3
f 220/5/3 216/5/3 215/5/3
f 220/2/3 215/2/3 219/2/3
f 221/2/3 210/2/3 216/2/3
f 221/5/3 216/5/3 220/5/3
f 222/2/3 210/2/3 221/2/3
f 223/2/3 210/2/3 222/2/3
f 226/2/3 220/2/3 219/2/3
f 226/2/3 219/2/3 218/2/3
f 226/2/3 221/2/3 220/2/3
f 227/5/3 222/5/3 221/5/3
f 227/2/3 221/2/3 226/2/3
f 228/5/3 222/5/3 227/5/3
f 229/2/3 225/2/3 224/2/3
f 230/2/3 225/2/3 229/2/3
f 235/2/3 232/2/3 231/2/3
f 236/2/3 232/2/3 235/2/3
f 237/2/3 234/2/3 233/2/3
f 238/2/3 234/2/3 237/2/3
f 243/2/3 240/2/3 239/2/3
f 244/2/3 240/2/3 243/2/3
f 245/2/3 242/2/3 241/2/3
f 246/2/3 242/2/3 245/2/3
f 250/2/3 248/2/3 247/2/3
f 253/2/3 248/2/3 250/2/3
f 255/2/3 252/2/3 251/2/3
f 256/2/3 252/2/3 255/2/3
f 257/3/3 254/3/3 253/3/3
f 257/2/3 253/2/3 250/2/3
f 258/2/3 255/2/3 254/2/3
f 258/3/3 254/3/3 257/3/3
f 259/1/3 250/1/3 249/1/3
f 259/2/3 257/2/3 250/2/3
f 259/2/3 258/2/3 257/2/3
f 260/2/3 258/2/3 259/2/3
f 261/1/3 259/1/3 249/1/3
f 261/3/3 260/3/3 259/3/3
f 262/2/3 258/2/3 260/2/3
f 262/3/3 260/3/3 261/3/3
f 263/2/3 262/2/3 261/2/3
f 263/2/3 258/2/3 262/2/3
f 264/2/3 255/2/3 258/2/3
f 264/2/3 258/2/3 263/2/3
f 265/2/3 263/2/3 261/2/3
f 265/3/3 264/3/3 263/3/3
f 266/2/3 255/2/3 264/2/3
f 266/3/3 264/3/3 265/3/3
f 267/2/3 255/2/3 266/2/3
f 269/1/3 261/1/3 249/1/3
f 270/2/3 265/2/3 261/2/3
f 270/1/3 261/1/3 269/1/3
f 271/2/3 268/2/3 267/2/3
f 272/2/3 268/2/3 271/2/3
f 273/2/3 265/2/3 270/2/3
f 274/2/3 265/2/3 273/2/3
f 280/1/3 276/1/3 275/1/3
f 281/1/3 276/1/3 280/1/3
f 282/2/3 278/2/3 277/2/3
f 283/2/3 278/2/3 282/2/3
f 284/1/3 280/1/3 279/1/3
f 285/1/3 280/1/3 284/1/3
f 286/1/3 280/1/3 285/1/3
f 287/1/3 280/1/3 286/1/3
f 291/1/3 289/1/3 288/1/3
f 292/1/3 291/1/3 290/1/3
f 293/1/3 289/1/3 291/1/3
f 293/1/3 291/1/3 292/1/3
f 297/1/3 294/1/3 293/1/3
f 298/1/3 294/1/3 297/1/3
f 299/2/3 296/2/3 295/2/3
f 300/2/3 296/2/3 299/2/3
f 301/2/4 302/2/4 303/2/4
f 303/2/4 302/2/4 304/2/4
f 305/2/4 306/2/4 307/2/4
f 307/2/4 306/2/4 308/2/4
f 309/2/4 310/2/4 311/2/4
f 311/2/4 310/2/4 312/2/4
f 312/2/4 310/2/4 313/2/4
f 313/2/4 314/2/4 316/2/4
f 312/2/4 313/2/4 316/2/4
f 316/2/4 314/2/4 317/2/4
f 317/2/4 314/2/4 318/2/4
f 315/2/4 316/2/4 319/2/4
f 316/2/4 317/2/4 319/2/4
f 319/2/4 317/2/4 320/2/4
f 321/1/4 322/1/4 326/1/4
f 326/1/4 322/1/4 327/1/4
f 323/2/4 324/2/4 328/2/4
f 328/2/4 324/2/4 329/2/4
f 325/1/4 326/1/4 330/1/4
f 330/1/4 326/1/4 331/1/4
f 331/1/4 326/1/4 334/1/4
f 334/1/4 326/1/4 335/1/4
f 336/1/4 337/1/4 339/1/4
f 332/2/4 333/2/4 340/2/4
f 340/2/4 333/2/4 341/2/4
f 338/1/4 339/1/4 342/1/4
f 339/1/4 337/1/4 343/1/4
f 342/1/4 339/1/4 343/1/4
f 343/1/4 344/1/4 347/1/4
f 347/1/4 344/1/4 348/1/4
f 345/2/4 346/2/4 349/2/4
f 349/2/4 346/2/4 350/2/4
f 351/2/4 352/2/4 354/2/4
f 354/2/4 352/2/4 355/2/4
f 353/1/4 354/1/4 357/1/4
f 355/2/4 356/2/4 358/2/4
f 357/1/4 354/1/4 358/1/4
f 354/2/4 355/2/4 358/2/4
f 358/2/4 356/2/4 359/2/4
f 359/2/4 356/2/4 360/2/4
f 358/2/4 359/2/4 361/2/4
f 361/2/4 359/2/4 362/2/4
f 367/1/5 364/1/5 363/1/5
f 368/1/5 364/1/5 367/1/5
f 369/1/5 366/1/5 365/1/5
f 370/1/5 366/1/5 369/1/5
f 375/1/5 372/1/5 371/1/5
f 376/1/5 372/1/5 375/1/5
f 377/1/5 374/1/5 373/1/5
f 378/1/5 374/1/5 377/1/5
f 382/1/5 380/1/5 379/1/5
f 383/1/5 380/1/5 382/1/5
f 384/1/5 380/1/5 383/1/5
f 385/1/5 380/1/5 384/1/5
f 387/1/5 382/1/5 381/1/5
f 388/1/5 382/1/5 387/1/5
f 389/1/5 384/1/5 383/1/5
f 390/1/5 384/1/5 389/1/5
f 391/1/5 386/1/5 385/1/5
f 392/1/5 386/1/5 391/1/5
f 393/1/5 390/1/5 389/1/5
f 393/1/5 391/1/5 390/1/5
f 393/1/5 389/1/5 388/1/5
f 394/1/5 391/1/5 393/1/5
f 399/2/5 396/2/5 395/2/5
f 400/2/5 396/2/5 399/2/5
f 401/2/5 398/2/5 397/2/5
f 402/2/5 398/2/5 401/2/5
f 407/2/5 404/2/5 403/2/5
f 408/2/5 404/2/5 407/2/5
f 409/2/5 406/2/5 405/2/5
f 410/2/5 406/2/5 409/2/5
f 415/2/5 412/2/5 411/2/5
f 418/2/5 414/2/5 413/2/5
f 419/2/5 416/2/5 415/2/5
f 419/2/5 415/2/5 411/2/5
f 420/2/5 416/2/5 419/2/5
f 421/2/5 418/2/5 417/2/5
f 422/2/5 414/2/5 418/2/5
f 422/2/5 418/2/5 421/2/5
f 427/2/5 424/2/5 423/2/5
f 428/2/5 424/2/5 427/2/5
f 429/2/5 426/2/5 425/2/5
f 430/2/5 426/2/5 429/2/5
f 431/2/5 424/2/5 428/2/5
f 432/2/5 424/2/5 431/2/5
f 433/2/5 429/2/5 425/2/5
f 434/2/5 429/2/5 433/2/5
f 438/2/5 436/2/5 435/2/5
f 439/2/5 436/2/5 438/2/5
f 441/2/5 438/2/5 437/2/5
f 441/2/5 440/2/5 439/2/5
f 441/2/5 439/2/5 438/2/5
f 442/2/5 440/2/5 441/2/5
f 447/2/5 444/2/5 443/2/5
f 448/2/5 444/2/5 447/2/5
f 449/2/5 446/2/5 445/2/5
f 450/2/5 446/2/5 449/2/5
f 453/2/5 452/2/5 451/2/5
f 454/2/5 452/2/5 453/2/5
f 455/2/6 456/2/6 459/2/6
f 457/2/6 458/2/6 460/2/6
f 455/2/6 459/2/6 461/2/6
f 461/2/6 459/2/6 462/2/6
f 460/2/6 458/2/6 463/2/6
f 463/2/6 458/2/6 464/2/6
f 455/2/6 461/2/6 465/2/6
f 465/2/6 461/2/6 466/2/6
f 464/2/6 458/2/6 467/2/6
f 467/2/6 458/2/6 468/2/6
f 469/2/6 470/2/6 473/2/6
f 473/2/6 470/2/6 474/2/6
f 471/2/6 472/2/6 475/2/6
f 475/2/6 472/2/6 476/2/6
f 477/2/6 478/2/6 482/2/6
f 479/2/6 480/2/6 483/2/6
f 481/2/6 482/2/6 485/2/6
f 482/2/6 478/2/6 485/2/6
f 483/2/6 484/2/6 488/2/6
f 479/2/6 483/2/6 488/2/6
f 485/2/6 486/2/6 489/2/6
f 481/2/6 485/2/6 489/2/6
f 489/2/6 486/2/6 490/2/6
f 490/2/6 486/2/6 491/2/6
f 487/2/6 488/2/6 492/2/6
f 488/2/6 484/2/6 493/2/6
f 492/2/6 488/2/6 493/2/6
f 493/2/6 484/2/6 494/2/6
f 490/2/6 491/2/6 495/2/6
f 491/2/6 492/2/6 495/2/6
f 492/2/6 493/2/6 495/2/6
f 495/2/6 493/2/6 496/2/6
f 497/2/6 498/2/6 499/2/6
f 499/2/6 498/2/6 500/2/6
f 501/2/6 502/2/6 503/2/6
f 503/2/6 502/2/6 504/2/6
f 505/5/6 506/5/6 509/5/6
f 509/5/6 506/5/6 510/5/6
f 507/5/6 508/5/6 511/5/6
f 511/5/6 508/5/6 512/5/6
f 513/2/6 514/2/6 517/2/6
f 517/2/6 514/2/6 518/2/6
f 515/2/6 516/2/6 519/2/6
f 519/2/6 516/2/6 520/2/6
f 521/2/6 522/2/6 524/2/6
f 524/2/6 522/2/6 525/2/6
f 523/2/6 524/2/6 527/2/6
f 525/2/6 526/2/6 527/2/6
f 524/2/6 525/2/6 527/2/6
f 527/2/6 526/2/6 528/2/6
f 528/2/6 526/2/6 529/2/6
f 529/2/6 526/2/6 530/2/6
f 528/2/6 529/2/6 531/2/6
f 531/2/6 529/2/6 532/2/6
