# MagicaVoxel @ Ephtracy

# group
o 

# material
mtllib Zombie Enemy.mtl
usemtl palette

# normals
vn -1 0 0
vn 1 0 0
vn 0 0 1
vn 0 0 -1
vn 0 -1 0
vn 0 1 0

# texcoords
vt 0.306641 0.5
vt 0.373047 0.5
vt 0.888672 0.5
vt 0.892578 0.5
vt 0.896484 0.5
vt 0.900391 0.5
vt 0.970703 0.5

# verts
v -0.4 0.7 0.5
v -0.4 0.7 0.4
v -0.4 0.7 0.3
v -0.4 0.7 -0.1
v -0.4 0.9 0.5
v -0.4 0.9 0.4
v -0.4 0.9 0.3
v -0.4 0.9 -0.1
v -0.3 0 0
v -0.3 0 -0.1
v -0.3 0 -0.2
v -0.3 0.1 0
v -0.3 0.1 -0.1
v -0.3 0.1 -0.2
v -0.3 0.4 0.1
v -0.3 0.4 0
v -0.3 0.4 -0.2
v -0.3 0.4 -0.3
v -0.3 0.5 0
v -0.3 0.5 -0.1
v -0.3 0.6 0
v -0.3 0.6 -0.1
v -0.3 0.7 0.1
v -0.3 0.7 -0.1
v -0.3 0.9 0.1
v -0.3 0.9 -0.1
v -0.3 0.9 -0.2
v -0.3 0.9 -0.3
v -0.3 1 0.1
v -0.3 1 -0.2
v -0.2 0.3 0.1
v -0.2 0.3 0
v -0.2 0.4 0.1
v -0.2 0.4 0
v -0.2 0.9 0.3
v -0.2 0.9 0.2
v -0.2 0.9 0.1
v -0.2 0.9 -0.2
v -0.2 0.9 -0.3
v -0.2 1 0.1
v -0.2 1 0
v -0.2 1 -0.1
v -0.2 1 -0.2
v -0.2 1 -0.3
v -0.2 1.1 0.3
v -0.2 1.1 0.2
v -0.2 1.1 0
v -0.2 1.1 -0.1
v -0.2 1.2 0.2
v -0.2 1.2 0
v -0.2 1.3 0.3
v -0.2 1.3 0.2
v -0.2 1.3 0
v -0.2 1.3 -0.1
v 0.1 0 0
v 0.1 0 -0.1
v 0.1 0 -0.2
v 0.1 0.1 0
v 0.1 0.1 -0.1
v 0.1 0.1 -0.2
v 0.1 0.3 0
v 0.1 0.3 -0.2
v 0.2 0.7 0.5
v 0.2 0.7 0.3
v 0.2 0.7 0.1
v 0.2 0.8 0.1
v 0.2 0.9 0.5
v 0.2 0.9 0.3
v 0.2 0.9 0.2
v 0.2 0.9 0.1
v -0.2 0.7 0.5
v -0.2 0.7 0.3
v -0.2 0.7 0.1
v -0.2 0.9 0.5
v -0.2 0.9 0.3
v -0.2 0.9 0.2
v -0.2 0.9 0.1
v -0.1 0 0
v -0.1 0 -0.2
v -0.1 0.1 0
v -0.1 0.1 -0.2
v -0.1 0.3 0
v -0.1 0.3 -0.2
v 0.2 0.3 0.1
v 0.2 0.3 0
v 0.2 0.4 0.1
v 0.2 0.4 0
v 0.2 0.9 0.3
v 0.2 0.9 0.2
v 0.2 0.9 0.1
v 0.2 0.9 -0.2
v 0.2 0.9 -0.3
v 0.2 1 0.3
v 0.2 1 0.2
v 0.2 1 0.1
v 0.2 1 -0.1
v 0.2 1 -0.2
v 0.2 1 -0.3
v 0.2 1.1 0.3
v 0.2 1.1 0.2
v 0.2 1.1 0.1
v 0.2 1.1 0
v 0.2 1.2 0
v 0.2 1.2 -0.1
v 0.2 1.3 0.3
v 0.2 1.3 0.2
v 0.2 1.3 0.1
v 0.2 1.3 -0.1
v 0.3 0 0
v 0.3 0 -0.2
v 0.3 0.1 0
v 0.3 0.1 -0.2
v 0.3 0.4 0.1
v 0.3 0.4 0
v 0.3 0.4 -0.2
v 0.3 0.4 -0.3
v 0.3 0.5 -0.2
v 0.3 0.5 -0.3
v 0.3 0.7 0.1
v 0.3 0.7 -0.1
v 0.3 0.7 -0.2
v 0.3 0.8 -0.1
v 0.3 0.8 -0.2
v 0.3 0.9 0.1
v 0.3 0.9 -0.1
v 0.3 0.9 -0.2
v 0.3 0.9 -0.3
v 0.3 1 0.1
v 0.3 1 -0.2
v 0.4 0.7 0.5
v 0.4 0.7 0.4
v 0.4 0.7 0.3
v 0.4 0.7 -0.1
v 0.4 0.8 0.4
v 0.4 0.8 0.3
v 0.4 0.9 0.5
v 0.4 0.9 0.3
v 0.4 0.9 -0.1
v -0.4 0.7 0.5
v -0.4 0.9 0.5
v -0.3 0.7 0.5
v -0.3 0.9 0.5
v -0.2 0.7 0.5
v -0.2 0.9 0.5
v 0.2 0.7 0.5
v 0.2 0.9 0.5
v 0.4 0.7 0.5
v 0.4 0.9 0.5
v -0.2 0.9 0.3
v -0.2 1.1 0.3
v -0.2 1.3 0.3
v -0.1 0.9 0.3
v -0.1 1.1 0.3
v -0.1 1.2 0.3
v -0.1 1.3 0.3
v 0 1.2 0.3
v 0 1.3 0.3
v 0.1 0.9 0.3
v 0.1 1 0.3
v 0.1 1.1 0.3
v 0.1 1.3 0.3
v 0.2 0.9 0.3
v 0.2 1 0.3
v 0.2 1.1 0.3
v 0.2 1.3 0.3
v -0.3 0.4 0.1
v -0.3 0.7 0.1
v -0.3 0.9 0.1
v -0.3 1 0.1
v -0.2 0.3 0.1
v -0.2 0.4 0.1
v -0.2 0.5 0.1
v -0.2 0.6 0.1
v -0.2 0.7 0.1
v -0.2 0.9 0.1
v -0.2 1 0.1
v -0.1 0.5 0.1
v -0.1 0.6 0.1
v 0 0.5 0.1
v 0 0.6 0.1
v 0.1 0.7 0.1
v 0.1 0.8 0.1
v 0.2 0.3 0.1
v 0.2 0.4 0.1
v 0.2 0.7 0.1
v 0.2 0.8 0.1
v 0.2 0.9 0.1
v 0.2 1 0.1
v 0.3 0.4 0.1
v 0.3 0.7 0.1
v 0.3 0.9 0.1
v 0.3 1 0.1
v -0.3 0 0
v -0.3 0.1 0
v -0.3 0.4 0
v -0.2 0 0
v -0.2 0.1 0
v -0.2 0.3 0
v -0.2 0.4 0
v -0.1 0 0
v -0.1 0.1 0
v -0.1 0.3 0
v 0.1 0 0
v 0.1 0.1 0
v 0.1 0.3 0
v 0.2 0 0
v 0.2 0.1 0
v 0.2 0.3 0
v 0.2 0.4 0
v 0.3 0 0
v 0.3 0.1 0
v 0.3 0.4 0
v -0.4 0.7 -0.1
v -0.4 0.9 -0.1
v -0.3 0.7 -0.1
v -0.3 0.9 -0.1
v -0.2 1 -0.1
v -0.2 1.1 -0.1
v -0.2 1.3 -0.1
v -0.1 1 -0.1
v -0.1 1.1 -0.1
v 0.1 1.2 -0.1
v 0.1 1.3 -0.1
v 0.2 1 -0.1
v 0.2 1.2 -0.1
v 0.2 1.3 -0.1
v 0.3 0.7 -0.1
v 0.3 0.8 -0.1
v 0.3 0.9 -0.1
v 0.4 0.7 -0.1
v 0.4 0.9 -0.1
v -0.3 0 -0.2
v -0.3 0.1 -0.2
v -0.3 0.4 -0.2
v -0.3 0.9 -0.2
v -0.3 1 -0.2
v -0.2 0.9 -0.2
v -0.2 1 -0.2
v -0.1 0 -0.2
v -0.1 0.1 -0.2
v -0.1 0.3 -0.2
v 0.1 0 -0.2
v 0.1 0.1 -0.2
v 0.1 0.3 -0.2
v 0.2 0.4 -0.2
v 0.2 0.9 -0.2
v 0.2 1 -0.2
v 0.3 0 -0.2
v 0.3 0.1 -0.2
v 0.3 0.4 -0.2
v 0.3 0.9 -0.2
v 0.3 1 -0.2
v -0.3 0.4 -0.3
v -0.3 0.9 -0.3
v -0.2 0.6 -0.3
v -0.2 0.8 -0.3
v -0.2 0.9 -0.3
v -0.2 1 -0.3
v -0.1 0.6 -0.3
v -0.1 0.7 -0.3
v -0.1 0.8 -0.3
v 0 0.6 -0.3
v 0 0.7 -0.3
v 0.2 0.4 -0.3
v 0.2 0.5 -0.3
v 0.2 0.9 -0.3
v 0.2 1 -0.3
v 0.3 0.4 -0.3
v 0.3 0.5 -0.3
v 0.3 0.9 -0.3
v -0.3 0 0
v -0.2 0 0
v -0.1 0 0
v 0.1 0 0
v 0.2 0 0
v 0.3 0 0
v -0.3 0 -0.1
v -0.2 0 -0.1
v 0.1 0 -0.1
v 0.2 0 -0.1
v -0.3 0 -0.2
v -0.1 0 -0.2
v 0.1 0 -0.2
v 0.3 0 -0.2
v -0.2 0.3 0.1
v 0.2 0.3 0.1
v -0.2 0.3 0
v -0.1 0.3 0
v 0.1 0.3 0
v 0.2 0.3 0
v -0.1 0.3 -0.2
v 0.1 0.3 -0.2
v -0.3 0.4 0.1
v -0.2 0.4 0.1
v 0.2 0.4 0.1
v 0.3 0.4 0.1
v -0.3 0.4 0
v -0.2 0.4 0
v 0.2 0.4 0
v 0.3 0.4 0
v -0.3 0.4 -0.2
v 0.2 0.4 -0.2
v 0.3 0.4 -0.2
v -0.3 0.4 -0.3
v 0.2 0.4 -0.3
v 0.3 0.4 -0.3
v -0.4 0.7 0.5
v -0.3 0.7 0.5
v -0.2 0.7 0.5
v 0.2 0.7 0.5
v 0.4 0.7 0.5
v -0.4 0.7 0.4
v -0.3 0.7 0.4
v 0.3 0.7 0.4
v 0.4 0.7 0.4
v -0.4 0.7 0.3
v -0.2 0.7 0.3
v 0.2 0.7 0.3
v 0.3 0.7 0.3
v 0.4 0.7 0.3
v -0.3 0.7 0.1
v -0.2 0.7 0.1
v 0.2 0.7 0.1
v 0.3 0.7 0.1
v -0.4 0.7 -0.1
v -0.3 0.7 -0.1
v 0.3 0.7 -0.1
v 0.4 0.7 -0.1
v -0.2 0.9 0.3
v -0.1 0.9 0.3
v 0.1 0.9 0.3
v 0.2 0.9 0.3
v -0.2 0.9 0.2
v -0.1 0.9 0.2
v 0.1 0.9 0.2
v 0.2 0.9 0.2
v -0.2 0.9 0.1
v 0.2 0.9 0.1
v -0.4 0.9 0.5
v -0.3 0.9 0.5
v -0.2 0.9 0.5
v 0.2 0.9 0.5
v 0.4 0.9 0.5
v -0.4 0.9 0.4
v -0.3 0.9 0.4
v -0.4 0.9 0.3
v -0.2 0.9 0.3
v 0.2 0.9 0.3
v 0.4 0.9 0.3
v -0.2 0.9 0.2
v 0.2 0.9 0.2
v -0.3 0.9 0.1
v -0.2 0.9 0.1
v 0.2 0.9 0.1
v 0.3 0.9 0.1
v -0.4 0.9 -0.1
v -0.3 0.9 -0.1
v 0.3 0.9 -0.1
v 0.4 0.9 -0.1
v -0.3 0.9 -0.2
v -0.2 0.9 -0.2
v 0.2 0.9 -0.2
v 0.3 0.9 -0.2
v -0.3 0.9 -0.3
v -0.2 0.9 -0.3
v 0.2 0.9 -0.3
v 0.3 0.9 -0.3
v -0.3 1 0.1
v -0.2 1 0.1
v 0.2 1 0.1
v 0.3 1 0.1
v -0.2 1 0
v -0.2 1 -0.1
v -0.1 1 -0.1
v 0.2 1 -0.1
v -0.3 1 -0.2
v -0.2 1 -0.2
v 0.2 1 -0.2
v 0.3 1 -0.2
v -0.2 1 -0.3
v 0.2 1 -0.3
v -0.2 1.3 0.3
v -0.1 1.3 0.3
v 0 1.3 0.3
v 0.1 1.3 0.3
v 0.2 1.3 0.3
v -0.2 1.3 0.2
v -0.1 1.3 0.2
v 0 1.3 0.2
v 0.1 1.3 0.2
v 0.2 1.3 0.2
v 0.1 1.3 0.1
v 0.2 1.3 0.1
v -0.2 1.3 0
v -0.1 1.3 0
v -0.2 1.3 -0.1
v 0.1 1.3 -0.1
v 0.2 1.3 -0.1

# faces
f 5/6/1 2/6/1 1/6/1
f 6/3/1 3/3/1 2/3/1
f 6/6/1 2/6/1 5/6/1
f 7/7/1 4/7/1 3/7/1
f 7/3/1 3/3/1 6/3/1
f 8/7/1 4/7/1 7/7/1
f 12/5/1 10/5/1 9/5/1
f 13/3/1 11/3/1 10/3/1
f 13/5/1 10/5/1 12/5/1
f 14/3/1 11/3/1 13/3/1
f 16/2/1 13/2/1 12/2/1
f 16/2/1 14/2/1 13/2/1
f 17/2/1 14/2/1 16/2/1
f 19/7/1 17/7/1 16/7/1
f 19/7/1 18/7/1 17/7/1
f 19/7/1 16/7/1 15/7/1
f 20/7/1 18/7/1 19/7/1
f 21/7/1 19/7/1 15/7/1
f 21/4/1 20/4/1 19/4/1
f 22/7/1 18/7/1 20/7/1
f 22/4/1 20/4/1 21/4/1
f 23/7/1 21/7/1 15/7/1
f 23/7/1 22/7/1 21/7/1
f 24/7/1 18/7/1 22/7/1
f 24/7/1 22/7/1 23/7/1
f 26/7/1 18/7/1 24/7/1
f 27/7/1 18/7/1 26/7/1
f 28/7/1 18/7/1 27/7/1
f 29/7/1 26/7/1 25/7/1
f 29/7/1 27/7/1 26/7/1
f 30/7/1 27/7/1 29/7/1
f 33/7/1 32/7/1 31/7/1
f 34/7/1 32/7/1 33/7/1
f 40/3/1 37/3/1 36/3/1
f 43/7/1 39/7/1 38/7/1
f 44/7/1 39/7/1 43/7/1
f 45/6/1 36/6/1 35/6/1
f 46/3/1 40/3/1 36/3/1
f 46/6/1 36/6/1 45/6/1
f 46/3/1 41/3/1 40/3/1
f 47/6/1 42/6/1 41/6/1
f 47/3/1 41/3/1 46/3/1
f 48/6/1 42/6/1 47/6/1
f 49/3/1 46/3/1 45/3/1
f 49/3/1 47/3/1 46/3/1
f 49/3/1 48/3/1 47/3/1
f 50/3/1 48/3/1 49/3/1
f 51/3/1 49/3/1 45/3/1
f 52/5/1 50/5/1 49/5/1
f 52/3/1 49/3/1 51/3/1
f 53/3/1 48/3/1 50/3/1
f 53/5/1 50/5/1 52/5/1
f 54/3/1 48/3/1 53/3/1
f 58/6/1 56/6/1 55/6/1
f 59/3/1 57/3/1 56/3/1
f 59/6/1 56/6/1 58/6/1
f 60/3/1 57/3/1 59/3/1
f 61/2/1 59/2/1 58/2/1
f 61/2/1 60/2/1 59/2/1
f 62/2/1 60/2/1 61/2/1
f 66/7/1 65/7/1 64/7/1
f 67/3/1 64/3/1 63/3/1
f 68/7/1 66/7/1 64/7/1
f 68/3/1 64/3/1 67/3/1
f 69/7/1 66/7/1 68/7/1
f 70/7/1 66/7/1 69/7/1
f 71/3/2 72/3/2 74/3/2
f 72/7/2 73/7/2 75/7/2
f 74/3/2 72/3/2 75/3/2
f 75/7/2 73/7/2 76/7/2
f 76/7/2 73/7/2 77/7/2
f 78/3/2 79/3/2 80/3/2
f 80/3/2 79/3/2 81/3/2
f 80/2/2 81/2/2 82/2/2
f 82/2/2 81/2/2 83/2/2
f 84/7/2 85/7/2 86/7/2
f 86/7/2 85/7/2 87/7/2
f 88/5/2 89/5/2 93/5/2
f 89/3/2 90/3/2 94/3/2
f 93/5/2 89/5/2 94/5/2
f 94/3/2 90/3/2 95/3/2
f 91/7/2 92/7/2 97/7/2
f 97/7/2 92/7/2 98/7/2
f 95/3/2 96/3/2 99/3/2
f 93/3/2 94/3/2 99/3/2
f 94/3/2 95/3/2 99/3/2
f 99/3/2 96/3/2 100/3/2
f 100/3/2 96/3/2 101/3/2
f 101/3/2 96/3/2 102/3/2
f 101/6/2 102/6/2 103/6/2
f 102/3/2 96/3/2 103/3/2
f 103/3/2 96/3/2 104/3/2
f 99/4/2 100/4/2 105/4/2
f 100/3/2 101/3/2 106/3/2
f 105/4/2 100/4/2 106/4/2
f 101/6/2 103/6/2 107/6/2
f 106/3/2 101/3/2 107/3/2
f 103/6/2 104/6/2 107/6/2
f 107/6/2 104/6/2 108/6/2
f 109/3/2 110/3/2 111/3/2
f 111/3/2 110/3/2 112/3/2
f 111/2/2 112/2/2 114/2/2
f 114/2/2 112/2/2 115/2/2
f 114/7/2 115/7/2 117/7/2
f 115/4/2 116/4/2 117/4/2
f 113/7/2 114/7/2 117/7/2
f 117/4/2 116/4/2 118/4/2
f 113/7/2 117/7/2 119/7/2
f 117/7/2 118/7/2 119/7/2
f 119/7/2 118/7/2 120/7/2
f 120/7/2 118/7/2 121/7/2
f 120/5/2 121/5/2 122/5/2
f 121/7/2 118/7/2 123/7/2
f 122/5/2 121/5/2 123/5/2
f 122/4/2 123/4/2 125/4/2
f 123/7/2 118/7/2 126/7/2
f 125/4/2 123/4/2 126/4/2
f 126/7/2 118/7/2 127/7/2
f 124/7/2 125/7/2 128/7/2
f 125/7/2 126/7/2 128/7/2
f 128/7/2 126/7/2 129/7/2
f 130/3/2 131/3/2 134/3/2
f 131/6/2 132/6/2 134/6/2
f 132/7/2 133/7/2 135/7/2
f 134/6/2 132/6/2 135/6/2
f 130/3/2 134/3/2 136/3/2
f 134/3/2 135/3/2 136/3/2
f 135/7/2 133/7/2 137/7/2
f 136/3/2 135/3/2 137/3/2
f 137/7/2 133/7/2 138/7/2
f 141/6/3 140/6/3 139/6/3
f 142/6/3 140/6/3 141/6/3
f 143/3/3 142/3/3 141/3/3
f 144/3/3 142/3/3 143/3/3
f 147/3/3 146/3/3 145/3/3
f 148/3/3 146/3/3 147/3/3
f 152/6/3 150/6/3 149/6/3
f 153/3/3 151/3/3 150/3/3
f 153/6/3 150/6/3 152/6/3
f 154/3/3 151/3/3 153/3/3
f 155/3/3 151/3/3 154/3/3
f 156/3/3 153/3/3 152/3/3
f 156/3/3 154/3/3 153/3/3
f 156/4/3 155/4/3 154/4/3
f 157/4/3 155/4/3 156/4/3
f 158/3/3 156/3/3 152/3/3
f 158/3/3 157/3/3 156/3/3
f 159/3/3 157/3/3 158/3/3
f 160/3/3 157/3/3 159/3/3
f 161/3/3 157/3/3 160/3/3
f 162/5/3 159/5/3 158/5/3
f 163/3/3 160/3/3 159/3/3
f 163/5/3 159/5/3 162/5/3
f 164/4/3 161/4/3 160/4/3
f 164/3/3 160/3/3 163/3/3
f 165/4/3 161/4/3 164/4/3
f 171/7/3 167/7/3 166/7/3
f 172/7/3 167/7/3 171/7/3
f 173/7/3 167/7/3 172/7/3
f 174/7/3 167/7/3 173/7/3
f 175/7/3 169/7/3 168/7/3
f 176/7/3 169/7/3 175/7/3
f 177/7/3 171/7/3 170/7/3
f 177/7/3 172/7/3 171/7/3
f 177/4/3 173/4/3 172/4/3
f 178/7/3 174/7/3 173/7/3
f 178/4/3 173/4/3 177/4/3
f 178/7/3 175/7/3 174/7/3
f 179/7/3 177/7/3 170/7/3
f 179/5/3 178/5/3 177/5/3
f 180/7/3 175/7/3 178/7/3
f 180/5/3 178/5/3 179/5/3
f 181/7/3 180/7/3 179/7/3
f 181/7/3 175/7/3 180/7/3
f 182/7/3 175/7/3 181/7/3
f 183/7/3 179/7/3 170/7/3
f 183/7/3 181/7/3 179/7/3
f 184/7/3 181/7/3 183/7/3
f 185/4/3 182/4/3 181/4/3
f 185/7/3 181/7/3 184/7/3
f 186/7/3 175/7/3 182/7/3
f 186/4/3 182/4/3 185/4/3
f 187/7/3 175/7/3 186/7/3
f 189/7/3 185/7/3 184/7/3
f 190/7/3 185/7/3 189/7/3
f 191/7/3 188/7/3 187/7/3
f 192/7/3 188/7/3 191/7/3
f 196/5/3 194/5/3 193/5/3
f 197/2/3 195/2/3 194/2/3
f 197/5/3 194/5/3 196/5/3
f 198/2/3 195/2/3 197/2/3
f 199/2/3 195/2/3 198/2/3
f 200/3/3 197/3/3 196/3/3
f 201/2/3 198/2/3 197/2/3
f 201/3/3 197/3/3 200/3/3
f 202/2/3 198/2/3 201/2/3
f 206/6/3 204/6/3 203/6/3
f 207/2/3 205/2/3 204/2/3
f 207/6/3 204/6/3 206/6/3
f 208/2/3 205/2/3 207/2/3
f 210/3/3 207/3/3 206/3/3
f 211/2/3 208/2/3 207/2/3
f 211/3/3 207/3/3 210/3/3
f 211/2/3 209/2/3 208/2/3
f 212/2/3 209/2/3 211/2/3
f 213/7/4 214/7/4 215/7/4
f 215/7/4 214/7/4 216/7/4
f 217/6/4 218/6/4 220/6/4
f 218/3/4 219/3/4 221/3/4
f 220/6/4 218/6/4 221/6/4
f 220/3/4 221/3/4 222/3/4
f 221/3/4 219/3/4 222/3/4
f 222/3/4 219/3/4 223/3/4
f 220/3/4 222/3/4 224/3/4
f 222/6/4 223/6/4 225/6/4
f 224/3/4 222/3/4 225/3/4
f 225/6/4 223/6/4 226/6/4
f 227/7/4 228/7/4 230/7/4
f 228/7/4 229/7/4 230/7/4
f 230/7/4 229/7/4 231/7/4
f 235/7/4 236/7/4 237/7/4
f 237/7/4 236/7/4 238/7/4
f 232/3/4 233/3/4 239/3/4
f 233/2/4 234/2/4 240/2/4
f 239/3/4 233/3/4 240/3/4
f 240/2/4 234/2/4 241/2/4
f 241/2/4 234/2/4 244/2/4
f 244/2/4 234/2/4 245/2/4
f 243/2/4 244/2/4 245/2/4
f 242/3/4 243/3/4 248/3/4
f 243/2/4 245/2/4 249/2/4
f 248/3/4 243/3/4 249/3/4
f 249/2/4 245/2/4 250/2/4
f 246/7/4 247/7/4 251/7/4
f 251/7/4 247/7/4 252/7/4
f 253/7/4 254/7/4 255/7/4
f 255/7/4 254/7/4 256/7/4
f 256/7/4 254/7/4 257/7/4
f 253/7/4 255/7/4 259/7/4
f 255/4/4 256/4/4 259/4/4
f 259/4/4 256/4/4 260/4/4
f 257/7/4 258/7/4 261/7/4
f 260/4/4 256/4/4 261/4/4
f 256/7/4 257/7/4 261/7/4
f 259/5/4 260/5/4 262/5/4
f 253/7/4 259/7/4 262/7/4
f 260/7/4 261/7/4 263/7/4
f 262/5/4 260/5/4 263/5/4
f 253/7/4 262/7/4 264/7/4
f 262/7/4 263/7/4 264/7/4
f 264/7/4 263/7/4 265/7/4
f 261/7/4 258/7/4 266/7/4
f 265/7/4 263/7/4 266/7/4
f 263/7/4 261/7/4 266/7/4
f 266/7/4 258/7/4 267/7/4
f 264/4/4 265/4/4 268/4/4
f 265/7/4 266/7/4 269/7/4
f 268/4/4 265/4/4 269/4/4
f 269/7/4 266/7/4 270/7/4
f 277/5/5 272/5/5 271/5/5
f 278/3/5 273/3/5 272/3/5
f 278/5/5 272/5/5 277/5/5
f 279/6/5 275/6/5 274/6/5
f 280/3/5 276/3/5 275/3/5
f 280/6/5 275/6/5 279/6/5
f 281/3/5 278/3/5 277/3/5
f 282/3/5 273/3/5 278/3/5
f 282/3/5 278/3/5 281/3/5
f 283/3/5 280/3/5 279/3/5
f 284/3/5 276/3/5 280/3/5
f 284/3/5 280/3/5 283/3/5
f 287/7/5 286/7/5 285/7/5
f 288/7/5 286/7/5 287/7/5
f 289/7/5 286/7/5 288/7/5
f 290/7/5 286/7/5 289/7/5
f 291/2/5 289/2/5 288/2/5
f 292/2/5 289/2/5 291/2/5
f 297/7/5 294/7/5 293/7/5
f 298/7/5 294/7/5 297/7/5
f 299/7/5 296/7/5 295/7/5
f 300/7/5 296/7/5 299/7/5
f 304/7/5 302/7/5 301/7/5
f 305/4/5 303/4/5 302/4/5
f 305/7/5 302/7/5 304/7/5
f 306/4/5 303/4/5 305/4/5
f 312/6/5 308/6/5 307/6/5
f 313/3/5 309/3/5 308/3/5
f 313/6/5 308/6/5 312/6/5
f 314/3/5 311/3/5 310/3/5
f 315/3/5 311/3/5 314/3/5
f 316/3/5 313/3/5 312/3/5
f 317/3/5 309/3/5 313/3/5
f 317/3/5 313/3/5 316/3/5
f 318/3/5 314/3/5 310/3/5
f 319/6/5 315/6/5 314/6/5
f 319/3/5 314/3/5 318/3/5
f 320/6/5 315/6/5 319/6/5
f 321/7/5 317/7/5 316/7/5
f 322/7/5 317/7/5 321/7/5
f 323/7/5 319/7/5 318/7/5
f 323/7/5 320/7/5 319/7/5
f 324/7/5 320/7/5 323/7/5
f 325/7/5 321/7/5 316/7/5
f 326/7/5 321/7/5 325/7/5
f 327/7/5 320/7/5 324/7/5
f 328/7/5 320/7/5 327/7/5
f 333/6/5 330/6/5 329/6/5
f 334/3/5 331/3/5 330/3/5
f 334/6/5 330/6/5 333/6/5
f 335/5/5 332/5/5 331/5/5
f 335/3/5 331/3/5 334/3/5
f 336/5/5 332/5/5 335/5/5
f 337/3/5 334/3/5 333/3/5
f 337/3/5 335/3/5 334/3/5
f 337/3/5 336/3/5 335/3/5
f 338/3/5 336/3/5 337/3/5
f 339/6/6 340/6/6 344/6/6
f 340/3/6 341/3/6 345/3/6
f 344/6/6 340/6/6 345/6/6
f 344/3/6 345/3/6 346/3/6
f 345/3/6 341/3/6 347/3/6
f 346/3/6 345/3/6 347/3/6
f 342/3/6 343/3/6 348/3/6
f 348/3/6 343/3/6 349/3/6
f 346/7/6 347/7/6 350/7/6
f 348/7/6 349/7/6 351/7/6
f 346/7/6 350/7/6 352/7/6
f 352/7/6 350/7/6 353/7/6
f 351/7/6 349/7/6 354/7/6
f 354/7/6 349/7/6 355/7/6
f 346/7/6 352/7/6 356/7/6
f 356/7/6 352/7/6 357/7/6
f 355/7/6 349/7/6 358/7/6
f 358/7/6 349/7/6 359/7/6
f 360/7/6 361/7/6 364/7/6
f 364/7/6 361/7/6 365/7/6
f 362/7/6 363/7/6 366/7/6
f 366/7/6 363/7/6 367/7/6
f 368/7/6 369/7/6 372/7/6
f 368/7/6 372/7/6 373/7/6
f 370/7/6 371/7/6 375/7/6
f 368/7/6 373/7/6 376/7/6
f 373/3/6 374/3/6 377/3/6
f 376/7/6 373/7/6 377/7/6
f 374/3/6 375/3/6 377/3/6
f 375/7/6 371/7/6 378/7/6
f 377/3/6 375/3/6 378/3/6
f 378/7/6 371/7/6 379/7/6
f 377/7/6 378/7/6 380/7/6
f 380/7/6 378/7/6 381/7/6
f 382/3/6 383/3/6 387/3/6
f 383/4/6 384/4/6 388/4/6
f 387/3/6 383/3/6 388/3/6
f 384/3/6 385/3/6 389/3/6
f 388/4/6 384/4/6 389/4/6
f 385/4/6 386/4/6 390/4/6
f 389/3/6 385/3/6 390/3/6
f 390/4/6 386/4/6 391/4/6
f 388/3/6 389/3/6 392/3/6
f 389/3/6 390/3/6 392/3/6
f 390/3/6 391/3/6 392/3/6
f 392/3/6 391/3/6 393/3/6
f 387/5/6 388/5/6 394/5/6
f 388/3/6 392/3/6 395/3/6
f 394/5/6 388/5/6 395/5/6
f 394/3/6 395/3/6 396/3/6
f 392/6/6 393/6/6 397/6/6
f 396/3/6 395/3/6 397/3/6
f 395/3/6 392/3/6 397/3/6
f 397/6/6 393/6/6 398/6/6
