# MagicaVoxel @ Ephtracy

# material
mtllib chr_ninjaknight.mtl
usemtl palette

# normals
vn -1 0 0
vn 1 0 0
vn 0 0 1
vn 0 0 -1
vn 0 -1 0
vn 0 1 0

# texcoords
vt 0.849609 0.5
vt 0.853516 0.5
vt 0.857422 0.5
vt 0.861328 0.5
vt 0.958984 0.5
vt 0.962891 0.5

# verts
v -5 1 2
v -5 1 -0
v -5 7 2
v -5 7 -0
v -4 3 -0
v -4 3 -1
v -4 4 3
v -4 4 2
v -4 7 3
v -4 7 2
v -4 7 -0
v -4 8 2
v -4 8 -0
v -4 8 -1
v -3 3 3
v -3 3 2
v -3 4 3
v -3 4 2
v -3 7 3
v -3 7 2
v -3 8 3
v -3 8 2
v -3 9 2
v -3 9 -1
v -3 10 3
v -3 10 2
v -3 10 -1
v -3 10 -2
v -3 13 3
v -3 13 2
v -3 13 -1
v -3 13 -2
v -3 14 2
v -3 14 -1
v -2 0 2
v -2 0 -0
v -2 2 3
v -2 2 2
v -2 2 -0
v -2 2 -1
v -2 3 3
v -2 3 2
v -2 3 -1
v -2 8 2
v -2 8 -0
v -2 8 -1
v -2 9 3
v -2 9 2
v -2 9 -1
v -2 9 -2
v -2 10 3
v -2 10 2
v -2 10 -1
v -2 10 -2
v -2 13 3
v -2 13 2
v -2 13 -1
v -2 13 -2
v -2 14 3
v -2 14 2
v -2 14 -1
v -2 14 -2
v 1 0 2
v 1 0 -0
v 1 1 2
v 1 1 -0
v 3 1 2
v 3 1 -0
v 3 3 2
v 3 3 -0
v -3 1 2
v -3 1 -0
v -3 3 2
v -3 3 -0
v -1 0 2
v -1 0 -0
v -1 1 2
v -1 1 -0
v 2 0 2
v 2 0 -0
v 2 2 3
v 2 2 2
v 2 2 -0
v 2 2 -1
v 2 3 3
v 2 3 2
v 2 3 -1
v 2 8 2
v 2 8 -0
v 2 8 -1
v 2 9 3
v 2 9 2
v 2 9 -1
v 2 9 -2
v 2 10 3
v 2 10 2
v 2 10 -1
v 2 10 -2
v 2 13 3
v 2 13 2
v 2 13 -1
v 2 13 -2
v 2 14 3
v 2 14 2
v 2 14 -1
v 2 14 -2
v 3 3 3
v 3 3 2
v 3 4 3
v 3 4 2
v 3 7 3
v 3 7 2
v 3 8 3
v 3 8 2
v 3 9 2
v 3 9 -1
v 3 10 3
v 3 10 2
v 3 10 -1
v 3 10 -2
v 3 13 3
v 3 13 2
v 3 13 -1
v 3 13 -2
v 3 14 2
v 3 14 -1
v 4 3 -0
v 4 3 -1
v 4 4 3
v 4 4 2
v 4 7 3
v 4 7 2
v 4 7 -0
v 4 8 2
v 4 8 -0
v 4 8 -1
v 5 1 2
v 5 1 -0
v 5 7 2
v 5 7 -0
v -4 4 3
v -4 7 3
v -3 3 3
v -3 4 3
v -3 7 3
v -3 8 3
v -3 10 3
v -3 13 3
v -2 2 3
v -2 3 3
v -2 5 3
v -2 7 3
v -2 9 3
v -2 10 3
v -2 11 3
v -2 12 3
v -2 13 3
v -2 14 3
v -1 3 3
v -1 5 3
v -1 9 3
v -1 11 3
v 1 3 3
v 1 5 3
v 1 9 3
v 1 11 3
v 2 2 3
v 2 3 3
v 2 5 3
v 2 7 3
v 2 9 3
v 2 10 3
v 2 11 3
v 2 12 3
v 2 13 3
v 2 14 3
v 3 3 3
v 3 4 3
v 3 7 3
v 3 8 3
v 3 10 3
v 3 13 3
v 4 4 3
v 4 7 3
v -5 1 2
v -5 7 2
v -4 1 2
v -4 4 2
v -4 7 2
v -4 8 2
v -3 1 2
v -3 3 2
v -3 4 2
v -3 7 2
v -3 8 2
v -3 9 2
v -3 10 2
v -3 13 2
v -3 14 2
v -2 0 2
v -2 2 2
v -2 8 2
v -2 9 2
v -2 10 2
v -2 13 2
v -2 14 2
v -1 0 2
v -1 1 2
v -1 9 2
v 1 0 2
v 1 1 2
v 1 9 2
v 2 0 2
v 2 2 2
v 2 8 2
v 2 9 2
v 2 10 2
v 2 13 2
v 2 14 2
v 3 1 2
v 3 3 2
v 3 4 2
v 3 7 2
v 3 8 2
v 3 9 2
v 3 10 2
v 3 13 2
v 3 14 2
v 4 1 2
v 4 4 2
v 4 7 2
v 4 8 2
v 5 1 2
v 5 7 2
v -5 1 -0
v -5 7 -0
v -4 1 -0
v -4 3 -0
v -4 7 -0
v -3 1 -0
v -3 3 -0
v -2 0 -0
v -2 2 -0
v -1 0 -0
v -1 1 -0
v 1 0 -0
v 1 1 -0
v 2 0 -0
v 2 2 -0
v 3 1 -0
v 3 3 -0
v 4 1 -0
v 4 3 -0
v 4 7 -0
v 5 1 -0
v 5 7 -0
v -4 3 -1
v -4 8 -1
v -3 9 -1
v -3 10 -1
v -3 13 -1
v -3 14 -1
v -2 2 -1
v -2 3 -1
v -2 8 -1
v -2 9 -1
v -2 10 -1
v -2 13 -1
v -2 14 -1
v 2 2 -1
v 2 3 -1
v 2 8 -1
v 2 9 -1
v 2 10 -1
v 2 13 -1
v 2 14 -1
v 3 9 -1
v 3 10 -1
v 3 13 -1
v 3 14 -1
v 4 3 -1
v 4 8 -1
v -3 10 -2
v -3 13 -2
v -2 9 -2
v -2 10 -2
v -2 13 -2
v -2 14 -2
v 2 9 -2
v 2 10 -2
v 2 13 -2
v 2 14 -2
v 3 10 -2
v 3 13 -2
v -2 0 2
v -1 0 2
v 1 0 2
v 2 0 2
v -2 0 -0
v -1 0 -0
v 1 0 -0
v 2 0 -0
v -5 1 2
v -4 1 2
v -3 1 2
v -1 1 2
v 1 1 2
v 3 1 2
v 4 1 2
v 5 1 2
v -5 1 -0
v -4 1 -0
v -3 1 -0
v -1 1 -0
v 1 1 -0
v 3 1 -0
v 4 1 -0
v 5 1 -0
v -2 2 3
v 2 2 3
v -2 2 2
v 2 2 2
v -2 2 -0
v 2 2 -0
v -2 2 -1
v 2 2 -1
v -3 3 3
v -2 3 3
v 2 3 3
v 3 3 3
v -3 3 2
v -2 3 2
v 2 3 2
v 3 3 2
v -4 3 -0
v -3 3 -0
v 3 3 -0
v 4 3 -0
v -4 3 -1
v -2 3 -1
v 2 3 -1
v 4 3 -1
v -4 4 3
v -3 4 3
v 3 4 3
v 4 4 3
v -4 4 2
v -3 4 2
v 3 4 2
v 4 4 2
v -2 9 3
v -1 9 3
v 1 9 3
v 2 9 3
v -3 9 2
v -2 9 2
v -1 9 2
v 1 9 2
v 2 9 2
v 3 9 2
v -3 9 -1
v -2 9 -1
v 2 9 -1
v 3 9 -1
v -2 9 -2
v 2 9 -2
v -3 10 3
v -2 10 3
v 2 10 3
v 3 10 3
v -3 10 2
v -2 10 2
v 2 10 2
v 3 10 2
v -3 10 -1
v -2 10 -1
v 2 10 -1
v 3 10 -1
v -3 10 -2
v -2 10 -2
v 2 10 -2
v 3 10 -2
v -4 7 3
v -3 7 3
v 3 7 3
v 4 7 3
v -5 7 2
v -4 7 2
v -3 7 2
v 3 7 2
v 4 7 2
v 5 7 2
v -5 7 -0
v -4 7 -0
v 4 7 -0
v 5 7 -0
v -3 8 3
v 3 8 3
v -4 8 2
v -3 8 2
v -2 8 2
v 2 8 2
v 3 8 2
v 4 8 2
v -4 8 -0
v -2 8 -0
v 2 8 -0
v 4 8 -0
v -4 8 -1
v -2 8 -1
v 2 8 -1
v 4 8 -1
v -3 13 3
v -2 13 3
v 2 13 3
v 3 13 3
v -3 13 2
v -2 13 2
v 2 13 2
v 3 13 2
v -3 13 -1
v -2 13 -1
v 2 13 -1
v 3 13 -1
v -3 13 -2
v -2 13 -2
v 2 13 -2
v 3 13 -2
v -2 14 3
v 2 14 3
v -3 14 2
v -2 14 2
v 2 14 2
v 3 14 2
v -3 14 -1
v -2 14 -1
v 2 14 -1
v 3 14 -1
v -2 14 -2
v 2 14 -2

# faces
f 3/1/1 2/1/1 1/1/1
f 4/1/1 2/1/1 3/1/1
f 9/1/1 8/1/1 7/1/1
f 10/1/1 8/1/1 9/1/1
f 11/4/1 6/4/1 5/4/1
f 12/1/1 11/1/1 10/1/1
f 13/4/1 6/4/1 11/4/1
f 13/1/1 11/1/1 12/1/1
f 14/4/1 6/4/1 13/4/1
f 17/1/1 16/1/1 15/1/1
f 18/1/1 16/1/1 17/1/1
f 21/1/1 20/1/1 19/1/1
f 22/1/1 20/1/1 21/1/1
f 26/1/1 24/1/1 23/1/1
f 27/1/1 24/1/1 26/1/1
f 29/1/1 26/1/1 25/1/1
f 29/1/1 28/1/1 27/1/1
f 29/1/1 27/1/1 26/1/1
f 30/1/1 28/1/1 29/1/1
f 31/1/1 28/1/1 30/1/1
f 32/1/1 28/1/1 31/1/1
f 33/1/1 31/1/1 30/1/1
f 34/1/1 31/1/1 33/1/1
f 38/4/1 36/4/1 35/4/1
f 39/4/1 36/4/1 38/4/1
f 41/1/1 38/1/1 37/1/1
f 42/4/1 40/4/1 39/4/1
f 42/1/1 38/1/1 41/1/1
f 42/4/1 39/4/1 38/4/1
f 43/4/1 40/4/1 42/4/1
f 48/4/1 45/4/1 44/4/1
f 48/4/1 46/4/1 45/4/1
f 49/4/1 46/4/1 48/4/1
f 51/1/1 48/1/1 47/1/1
f 52/1/1 48/1/1 51/1/1
f 53/1/1 50/1/1 49/1/1
f 54/1/1 50/1/1 53/1/1
f 59/1/1 56/1/1 55/1/1
f 60/1/1 56/1/1 59/1/1
f 61/1/1 58/1/1 57/1/1
f 62/1/1 58/1/1 61/1/1
f 65/4/1 64/4/1 63/4/1
f 66/4/1 64/4/1 65/4/1
f 69/2/1 68/2/1 67/2/1
f 70/2/1 68/2/1 69/2/1
f 71/2/2 72/2/2 73/2/2
f 73/2/2 72/2/2 74/2/2
f 75/4/2 76/4/2 77/4/2
f 77/4/2 76/4/2 78/4/2
f 79/4/2 80/4/2 82/4/2
f 82/4/2 80/4/2 83/4/2
f 81/1/2 82/1/2 85/1/2
f 83/4/2 84/4/2 86/4/2
f 85/1/2 82/1/2 86/1/2
f 82/4/2 83/4/2 86/4/2
f 86/4/2 84/4/2 87/4/2
f 88/4/2 89/4/2 92/4/2
f 89/4/2 90/4/2 92/4/2
f 92/4/2 90/4/2 93/4/2
f 91/1/2 92/1/2 95/1/2
f 95/1/2 92/1/2 96/1/2
f 93/1/2 94/1/2 97/1/2
f 97/1/2 94/1/2 98/1/2
f 99/1/2 100/1/2 103/1/2
f 103/1/2 100/1/2 104/1/2
f 101/1/2 102/1/2 105/1/2
f 105/1/2 102/1/2 106/1/2
f 107/1/2 108/1/2 109/1/2
f 109/1/2 108/1/2 110/1/2
f 111/1/2 112/1/2 113/1/2
f 113/1/2 112/1/2 114/1/2
f 115/1/2 116/1/2 118/1/2
f 118/1/2 116/1/2 119/1/2
f 117/1/2 118/1/2 121/1/2
f 119/1/2 120/1/2 121/1/2
f 118/1/2 119/1/2 121/1/2
f 121/1/2 120/1/2 122/1/2
f 122/1/2 120/1/2 123/1/2
f 123/1/2 120/1/2 124/1/2
f 122/1/2 123/1/2 125/1/2
f 125/1/2 123/1/2 126/1/2
f 129/1/2 130/1/2 131/1/2
f 131/1/2 130/1/2 132/1/2
f 127/4/2 128/4/2 133/4/2
f 132/1/2 133/1/2 134/1/2
f 133/4/2 128/4/2 135/4/2
f 134/1/2 133/1/2 135/1/2
f 135/4/2 128/4/2 136/4/2
f 137/1/2 138/1/2 139/1/2
f 139/1/2 138/1/2 140/1/2
f 144/1/3 142/1/3 141/1/3
f 145/1/3 142/1/3 144/1/3
f 150/1/3 144/1/3 143/1/3
f 150/1/3 145/1/3 144/1/3
f 150/1/3 146/1/3 145/1/3
f 151/1/3 146/1/3 150/1/3
f 152/1/3 146/1/3 151/1/3
f 154/1/3 148/1/3 147/1/3
f 155/1/3 148/1/3 154/1/3
f 156/1/3 148/1/3 155/1/3
f 157/1/3 148/1/3 156/1/3
f 159/1/3 150/1/3 149/1/3
f 159/1/3 151/1/3 150/1/3
f 160/3/3 152/3/3 151/3/3
f 160/1/3 151/1/3 159/1/3
f 161/1/3 154/1/3 153/1/3
f 161/1/3 155/1/3 154/1/3
f 162/5/3 156/5/3 155/5/3
f 162/1/3 155/1/3 161/1/3
f 163/1/3 159/1/3 149/1/3
f 163/3/3 160/3/3 159/3/3
f 164/3/3 152/3/3 160/3/3
f 164/3/3 160/3/3 163/3/3
f 165/6/3 162/6/3 161/6/3
f 166/5/3 156/5/3 162/5/3
f 166/6/3 162/6/3 165/6/3
f 167/1/3 163/1/3 149/1/3
f 167/1/3 164/1/3 163/1/3
f 168/1/3 164/1/3 167/1/3
f 169/3/3 152/3/3 164/3/3
f 169/1/3 164/1/3 168/1/3
f 170/1/3 146/1/3 152/1/3
f 170/3/3 152/3/3 169/3/3
f 171/1/3 166/1/3 165/1/3
f 172/1/3 166/1/3 171/1/3
f 173/5/3 156/5/3 166/5/3
f 173/1/3 166/1/3 172/1/3
f 174/1/3 158/1/3 157/1/3
f 174/5/3 156/5/3 173/5/3
f 174/1/3 157/1/3 156/1/3
f 175/1/3 158/1/3 174/1/3
f 176/1/3 158/1/3 175/1/3
f 177/1/3 169/1/3 168/1/3
f 177/1/3 170/1/3 169/1/3
f 178/1/3 170/1/3 177/1/3
f 179/1/3 146/1/3 170/1/3
f 179/1/3 170/1/3 178/1/3
f 180/1/3 146/1/3 179/1/3
f 181/1/3 173/1/3 172/1/3
f 181/1/3 175/1/3 174/1/3
f 181/1/3 174/1/3 173/1/3
f 182/1/3 175/1/3 181/1/3
f 183/1/3 179/1/3 178/1/3
f 184/1/3 179/1/3 183/1/3
f 187/1/3 186/1/3 185/1/3
f 188/1/3 186/1/3 187/1/3
f 189/1/3 186/1/3 188/1/3
f 191/2/3 188/2/3 187/2/3
f 192/2/3 188/2/3 191/2/3
f 193/2/3 188/2/3 192/2/3
f 194/1/3 190/1/3 189/1/3
f 195/1/3 190/1/3 194/1/3
f 203/1/3 197/1/3 196/1/3
f 204/1/3 197/1/3 203/1/3
f 205/1/3 199/1/3 198/1/3
f 206/1/3 199/1/3 205/1/3
f 207/4/3 201/4/3 200/4/3
f 208/4/3 201/4/3 207/4/3
f 209/4/3 203/4/3 202/4/3
f 211/4/3 201/4/3 208/4/3
f 212/4/3 209/4/3 202/4/3
f 213/4/3 211/4/3 210/4/3
f 214/4/3 201/4/3 211/4/3
f 214/4/3 211/4/3 213/4/3
f 215/4/3 212/4/3 202/4/3
f 216/4/3 212/4/3 215/4/3
f 225/1/3 217/1/3 216/1/3
f 226/1/3 217/1/3 225/1/3
f 227/1/3 219/1/3 218/1/3
f 228/1/3 219/1/3 227/1/3
f 229/2/3 221/2/3 220/2/3
f 229/2/3 222/2/3 221/2/3
f 230/2/3 222/2/3 229/2/3
f 231/1/3 224/1/3 223/1/3
f 232/1/3 224/1/3 231/1/3
f 233/1/3 230/1/3 229/1/3
f 233/1/3 231/1/3 230/1/3
f 234/1/3 231/1/3 233/1/3
f 235/1/4 236/1/4 237/1/4
f 237/1/4 236/1/4 238/1/4
f 238/1/4 236/1/4 239/1/4
f 237/2/4 238/2/4 240/2/4
f 240/2/4 238/2/4 241/2/4
f 242/4/4 243/4/4 244/4/4
f 244/4/4 243/4/4 245/4/4
f 245/4/4 243/4/4 247/4/4
f 246/4/4 247/4/4 248/4/4
f 247/4/4 243/4/4 249/4/4
f 248/4/4 247/4/4 249/4/4
f 250/2/4 251/2/4 252/2/4
f 252/2/4 251/2/4 253/2/4
f 252/1/4 253/1/4 255/1/4
f 253/1/4 254/1/4 255/1/4
f 255/1/4 254/1/4 256/1/4
f 257/4/4 258/4/4 264/4/4
f 264/4/4 258/4/4 265/4/4
f 259/1/4 260/1/4 266/1/4
f 266/1/4 260/1/4 267/1/4
f 261/1/4 262/1/4 268/1/4
f 268/1/4 262/1/4 269/1/4
f 264/4/4 265/4/4 270/4/4
f 263/4/4 264/4/4 270/4/4
f 265/4/4 266/4/4 270/4/4
f 270/4/4 266/4/4 271/4/4
f 271/4/4 266/4/4 272/4/4
f 272/4/4 266/4/4 273/4/4
f 273/1/4 274/1/4 277/1/4
f 277/1/4 274/1/4 278/1/4
f 275/1/4 276/1/4 279/1/4
f 279/1/4 276/1/4 280/1/4
f 271/4/4 272/4/4 281/4/4
f 281/4/4 272/4/4 282/4/4
f 283/1/4 284/1/4 286/1/4
f 286/1/4 284/1/4 287/1/4
f 285/1/4 286/1/4 289/1/4
f 287/1/4 288/1/4 289/1/4
f 286/1/4 287/1/4 289/1/4
f 289/1/4 288/1/4 290/1/4
f 290/1/4 288/1/4 291/1/4
f 291/1/4 288/1/4 292/1/4
f 290/1/4 291/1/4 293/1/4
f 293/1/4 291/1/4 294/1/4
f 299/4/5 296/4/5 295/4/5
f 300/4/5 296/4/5 299/4/5
f 301/4/5 298/4/5 297/4/5
f 302/4/5 298/4/5 301/4/5
f 311/1/5 304/1/5 303/1/5
f 312/2/5 305/2/5 304/2/5
f 312/1/5 304/1/5 311/1/5
f 313/2/5 305/2/5 312/2/5
f 314/4/5 307/4/5 306/4/5
f 315/4/5 307/4/5 314/4/5
f 316/2/5 309/2/5 308/2/5
f 317/1/5 310/1/5 309/1/5
f 317/2/5 309/2/5 316/2/5
f 318/1/5 310/1/5 317/1/5
f 321/1/5 320/1/5 319/1/5
f 322/1/5 320/1/5 321/1/5
f 325/4/5 324/4/5 323/4/5
f 326/4/5 324/4/5 325/4/5
f 331/1/5 328/1/5 327/1/5
f 332/1/5 328/1/5 331/1/5
f 333/1/5 330/1/5 329/1/5
f 334/1/5 330/1/5 333/1/5
f 336/4/5 332/4/5 331/4/5
f 337/4/5 334/4/5 333/4/5
f 339/4/5 336/4/5 335/4/5
f 340/4/5 332/4/5 336/4/5
f 340/4/5 336/4/5 339/4/5
f 341/4/5 337/4/5 333/4/5
f 341/4/5 338/4/5 337/4/5
f 342/4/5 338/4/5 341/4/5
f 347/1/5 344/1/5 343/1/5
f 348/1/5 344/1/5 347/1/5
f 349/1/5 346/1/5 345/1/5
f 350/1/5 346/1/5 349/1/5
f 356/1/5 352/1/5 351/1/5
f 357/6/5 353/6/5 352/6/5
f 357/1/5 352/1/5 356/1/5
f 358/1/5 354/1/5 353/1/5
f 358/6/5 353/6/5 357/6/5
f 359/1/5 354/1/5 358/1/5
f 361/1/5 356/1/5 355/1/5
f 362/1/5 356/1/5 361/1/5
f 363/1/5 360/1/5 359/1/5
f 364/1/5 360/1/5 363/1/5
f 365/1/5 363/1/5 362/1/5
f 366/1/5 363/1/5 365/1/5
f 371/1/5 368/1/5 367/1/5
f 372/1/5 368/1/5 371/1/5
f 373/1/5 370/1/5 369/1/5
f 374/1/5 370/1/5 373/1/5
f 379/1/5 376/1/5 375/1/5
f 380/1/5 376/1/5 379/1/5
f 381/1/5 378/1/5 377/1/5
f 382/1/5 378/1/5 381/1/5
f 383/1/6 384/1/6 388/1/6
f 388/1/6 384/1/6 389/1/6
f 385/1/6 386/1/6 390/1/6
f 390/1/6 386/1/6 391/1/6
f 387/1/6 388/1/6 393/1/6
f 393/1/6 388/1/6 394/1/6
f 391/1/6 392/1/6 395/1/6
f 395/1/6 392/1/6 396/1/6
f 397/1/6 398/1/6 400/1/6
f 400/1/6 398/1/6 401/1/6
f 401/1/6 398/1/6 402/1/6
f 402/1/6 398/1/6 403/1/6
f 399/1/6 400/1/6 405/1/6
f 400/1/6 401/1/6 405/1/6
f 405/1/6 401/1/6 406/1/6
f 403/1/6 404/1/6 407/1/6
f 402/1/6 403/1/6 407/1/6
f 407/1/6 404/1/6 408/1/6
f 405/4/6 406/4/6 409/4/6
f 409/4/6 406/4/6 410/4/6
f 407/4/6 408/4/6 411/4/6
f 411/4/6 408/4/6 412/4/6
f 413/1/6 414/1/6 417/1/6
f 417/1/6 414/1/6 418/1/6
f 415/1/6 416/1/6 419/1/6
f 419/1/6 416/1/6 420/1/6
f 421/1/6 422/1/6 425/1/6
f 425/1/6 422/1/6 426/1/6
f 423/1/6 424/1/6 427/1/6
f 427/1/6 424/1/6 428/1/6
f 429/1/6 430/1/6 432/1/6
f 432/1/6 430/1/6 433/1/6
f 431/1/6 432/1/6 435/1/6
f 433/1/6 434/1/6 435/1/6
f 432/1/6 433/1/6 435/1/6
f 435/1/6 434/1/6 436/1/6
f 436/1/6 434/1/6 437/1/6
f 437/1/6 434/1/6 438/1/6
f 436/1/6 437/1/6 439/1/6
f 439/1/6 437/1/6 440/1/6
