# MagicaVoxel @ Ephtracy

# material
mtllib chr_dog.mtl
usemtl palette

# normals
vn -1 0 0
vn 1 0 0
vn 0 0 1
vn 0 0 -1
vn 0 -1 0
vn 0 1 0

# texcoords
vt 0.591797 0.5
vt 0.958984 0.5
vt 0.962891 0.5
vt 0.966797 0.5
vt 0.994141 0.5

# verts
v -2 0 3
v -2 0 2
v -2 0 -4
v -2 0 -5
v -2 1 3
v -2 1 2
v -2 1 -4
v -2 1 -5
v -2 2 -3
v -2 2 -4
v -2 3 -3
v -2 3 -5
v -2 4 3
v -2 4 2
v -2 4 1
v -2 4 -2
v -2 4 -3
v -2 5 4
v -2 5 3
v -2 5 1
v -2 5 -2
v -2 7 3
v -2 7 2
v -2 7 -1
v -2 7 -5
v -2 8 4
v -2 8 2
v -2 8 1
v -2 8 -1
v -2 9 6
v -2 9 4
v -2 10 5
v -2 10 3
v -2 10 2
v -2 11 6
v -2 11 5
v -2 11 4
v -2 11 3
v -2 12 5
v -2 12 4
v -2 12 3
v -2 12 2
v -2 14 3
v -2 14 2
v -2 14 1
v -1 3 -7
v -1 3 -8
v -1 4 -6
v -1 4 -7
v -1 4 -8
v -1 5 -5
v -1 5 -6
v -1 5 -7
v -1 6 -5
v -1 6 -6
v 1 0 3
v 1 0 2
v 1 0 -4
v 1 0 -5
v 1 1 3
v 1 1 2
v 1 1 -4
v 1 1 -5
v 1 2 -3
v 1 2 -4
v 1 3 -3
v 1 3 -5
v 1 4 3
v 1 4 2
v 1 4 -3
v 1 4 -4
v 1 4 -5
v 1 13 3
v 1 13 2
v 1 13 1
v 1 14 3
v 1 14 2
v 1 14 1
v -1 0 3
v -1 0 2
v -1 0 -4
v -1 0 -5
v -1 1 3
v -1 1 2
v -1 1 -4
v -1 1 -5
v -1 2 -3
v -1 2 -4
v -1 3 -3
v -1 3 -5
v -1 4 3
v -1 4 2
v -1 4 -3
v -1 4 -4
v -1 4 -5
v -1 13 3
v -1 13 2
v -1 13 1
v -1 14 3
v -1 14 2
v -1 14 1
v 1 3 -7
v 1 3 -8
v 1 4 -6
v 1 4 -7
v 1 4 -8
v 1 5 -5
v 1 5 -6
v 1 5 -7
v 1 6 -5
v 1 6 -6
v 2 0 3
v 2 0 2
v 2 0 -4
v 2 0 -5
v 2 1 3
v 2 1 2
v 2 1 -4
v 2 1 -5
v 2 2 -3
v 2 2 -4
v 2 3 -3
v 2 3 -5
v 2 4 3
v 2 4 2
v 2 4 1
v 2 4 -2
v 2 4 -3
v 2 5 4
v 2 5 3
v 2 5 1
v 2 5 -2
v 2 7 3
v 2 7 2
v 2 7 -1
v 2 7 -5
v 2 8 4
v 2 8 2
v 2 8 1
v 2 8 -1
v 2 9 6
v 2 9 4
v 2 10 4
v 2 10 3
v 2 10 2
v 2 11 6
v 2 11 5
v 2 11 4
v 2 11 3
v 2 12 5
v 2 12 4
v 2 12 3
v 2 12 2
v 2 14 3
v 2 14 2
v 2 14 1
v -2 9 6
v -2 11 6
v -1 10 6
v -1 11 6
v 1 10 6
v 1 11 6
v 2 9 6
v 2 11 6
v -2 11 5
v -2 12 5
v -1 11 5
v -1 12 5
v 1 11 5
v 1 12 5
v 2 11 5
v 2 12 5
v -2 5 4
v -2 8 4
v -2 9 4
v 2 5 4
v 2 8 4
v 2 9 4
v -2 0 3
v -2 1 3
v -2 4 3
v -2 5 3
v -2 12 3
v -2 14 3
v -1 0 3
v -1 1 3
v -1 4 3
v -1 5 3
v -1 13 3
v -1 14 3
v 1 0 3
v 1 1 3
v 1 4 3
v 1 5 3
v 1 13 3
v 1 14 3
v 2 0 3
v 2 1 3
v 2 4 3
v 2 5 3
v 2 12 3
v 2 14 3
v -2 2 -3
v -2 3 -3
v -2 4 -3
v -1 2 -3
v -1 3 -3
v -1 4 -3
v 1 2 -3
v 1 3 -3
v 1 4 -3
v 2 2 -3
v 2 3 -3
v 2 4 -3
v -2 0 -4
v -2 1 -4
v -2 2 -4
v -1 0 -4
v -1 1 -4
v -1 2 -4
v 1 0 -4
v 1 1 -4
v 1 2 -4
v 2 0 -4
v 2 1 -4
v 2 2 -4
v -1 4 -6
v -1 5 -6
v 1 4 -6
v 1 5 -6
v -1 3 -7
v -1 4 -7
v 1 3 -7
v 1 4 -7
v -2 0 2
v -2 1 2
v -2 4 2
v -1 0 2
v -1 1 2
v -1 4 2
v 1 0 2
v 1 1 2
v 1 4 2
v 2 0 2
v 2 1 2
v 2 4 2
v -2 8 1
v -2 14 1
v -1 13 1
v -1 14 1
v 1 13 1
v 1 14 1
v 2 8 1
v 2 14 1
v -2 7 -1
v -2 8 -1
v 2 7 -1
v 2 8 -1
v -2 0 -5
v -2 1 -5
v -2 3 -5
v -2 7 -5
v -1 0 -5
v -1 1 -5
v -1 3 -5
v -1 4 -5
v -1 5 -5
v -1 6 -5
v 1 0 -5
v 1 1 -5
v 1 3 -5
v 1 4 -5
v 1 5 -5
v 1 6 -5
v 2 0 -5
v 2 1 -5
v 2 3 -5
v 2 7 -5
v -1 5 -6
v -1 6 -6
v 1 5 -6
v 1 6 -6
v -1 4 -7
v -1 5 -7
v 1 4 -7
v 1 5 -7
v -1 3 -8
v -1 4 -8
v 1 3 -8
v 1 4 -8
v -2 0 3
v -1 0 3
v 1 0 3
v 2 0 3
v -2 0 2
v -1 0 2
v 1 0 2
v 2 0 2
v -2 0 -4
v -1 0 -4
v 1 0 -4
v 2 0 -4
v -2 0 -5
v -1 0 -5
v 1 0 -5
v 2 0 -5
v -2 2 -3
v -1 2 -3
v 1 2 -3
v 2 2 -3
v -2 2 -4
v -1 2 -4
v 1 2 -4
v 2 2 -4
v -1 3 -7
v 1 3 -7
v -1 3 -8
v 1 3 -8
v -1 4 3
v 1 4 3
v -2 4 2
v -1 4 2
v 1 4 2
v 2 4 2
v -2 4 1
v -1 4 1
v 1 4 1
v 2 4 1
v -2 4 -2
v -1 4 -2
v 1 4 -2
v 2 4 -2
v -2 4 -3
v -1 4 -3
v 1 4 -3
v 2 4 -3
v -1 4 -4
v 1 4 -4
v -1 4 -5
v 1 4 -5
v -1 4 -6
v 1 4 -6
v -1 4 -7
v 1 4 -7
v -2 5 4
v 2 5 4
v -2 5 3
v -1 5 3
v 1 5 3
v 2 5 3
v -1 5 -5
v 1 5 -5
v -1 5 -6
v 1 5 -6
v -2 9 6
v 2 9 6
v -2 9 4
v 2 9 4
v -1 4 -7
v 1 4 -7
v -1 4 -8
v 1 4 -8
v -1 5 -6
v 1 5 -6
v -1 5 -7
v 1 5 -7
v -1 6 -5
v 1 6 -5
v -1 6 -6
v 1 6 -6
v -2 7 -1
v 2 7 -1
v -2 7 -5
v 2 7 -5
v -2 8 1
v 2 8 1
v -2 8 -1
v 2 8 -1
v -2 11 6
v -1 11 6
v 1 11 6
v 2 11 6
v -2 11 5
v -1 11 5
v 1 11 5
v 2 11 5
v -2 12 5
v -1 12 5
v 1 12 5
v 2 12 5
v -2 12 4
v -1 12 4
v 1 12 4
v 2 12 4
v -2 12 3
v 2 12 3
v -1 13 3
v 1 13 3
v -1 13 2
v 1 13 2
v -1 13 1
v 1 13 1
v -2 14 3
v -1 14 3
v 1 14 3
v 2 14 3
v -2 14 2
v -1 14 2
v 1 14 2
v 2 14 2
v -2 14 1
v -1 14 1
v 1 14 1
v 2 14 1

# faces
f 5/4/1 2/4/1 1/4/1
f 6/4/1 2/4/1 5/4/1
f 7/4/1 4/4/1 3/4/1
f 8/4/1 4/4/1 7/4/1
f 10/2/1 8/2/1 7/2/1
f 11/2/1 10/2/1 9/2/1
f 12/2/1 8/2/1 10/2/1
f 12/2/1 10/2/1 11/2/1
f 13/2/1 6/2/1 5/2/1
f 14/2/1 6/2/1 13/2/1
f 17/5/1 12/5/1 11/5/1
f 19/5/1 14/5/1 13/5/1
f 19/5/1 15/5/1 14/5/1
f 20/2/1 16/2/1 15/2/1
f 20/5/1 15/5/1 19/5/1
f 21/5/1 17/5/1 16/5/1
f 21/2/1 16/2/1 20/2/1
f 22/3/1 19/3/1 18/3/1
f 22/5/1 20/5/1 19/5/1
f 22/5/1 21/5/1 20/5/1
f 23/5/1 21/5/1 22/5/1
f 24/5/1 21/5/1 23/5/1
f 25/5/1 17/5/1 21/5/1
f 25/5/1 21/5/1 24/5/1
f 25/5/1 12/5/1 17/5/1
f 26/3/1 23/3/1 22/3/1
f 26/3/1 22/3/1 18/3/1
f 27/5/1 24/5/1 23/5/1
f 27/3/1 23/3/1 26/3/1
f 28/5/1 24/5/1 27/5/1
f 29/5/1 24/5/1 28/5/1
f 31/2/1 27/2/1 26/2/1
f 32/2/1 31/2/1 30/2/1
f 33/2/1 27/2/1 31/2/1
f 33/2/1 31/2/1 32/2/1
f 34/5/1 28/5/1 27/5/1
f 34/2/1 27/2/1 33/2/1
f 35/2/1 32/2/1 30/2/1
f 36/3/1 33/3/1 32/3/1
f 36/2/1 32/2/1 35/2/1
f 37/3/1 33/3/1 36/3/1
f 38/5/1 34/5/1 33/5/1
f 38/3/1 33/3/1 37/3/1
f 39/1/1 37/1/1 36/1/1
f 40/5/1 38/5/1 37/5/1
f 40/1/1 37/1/1 39/1/1
f 41/5/1 34/5/1 38/5/1
f 41/5/1 38/5/1 40/5/1
f 42/5/1 28/5/1 34/5/1
f 42/5/1 34/5/1 41/5/1
f 43/4/1 42/4/1 41/4/1
f 44/5/1 28/5/1 42/5/1
f 44/4/1 42/4/1 43/4/1
f 45/5/1 28/5/1 44/5/1
f 49/3/1 47/3/1 46/3/1
f 50/3/1 47/3/1 49/3/1
f 52/2/1 49/2/1 48/2/1
f 53/2/1 49/2/1 52/2/1
f 54/2/1 52/2/1 51/2/1
f 55/2/1 52/2/1 54/2/1
f 60/4/1 57/4/1 56/4/1
f 61/4/1 57/4/1 60/4/1
f 62/4/1 59/4/1 58/4/1
f 63/4/1 59/4/1 62/4/1
f 65/2/1 63/2/1 62/2/1
f 66/2/1 65/2/1 64/2/1
f 67/2/1 63/2/1 65/2/1
f 67/2/1 65/2/1 66/2/1
f 68/2/1 61/2/1 60/2/1
f 69/2/1 61/2/1 68/2/1
f 70/5/1 67/5/1 66/5/1
f 71/5/1 67/5/1 70/5/1
f 72/5/1 67/5/1 71/5/1
f 76/4/1 74/4/1 73/4/1
f 77/5/1 75/5/1 74/5/1
f 77/4/1 74/4/1 76/4/1
f 78/5/1 75/5/1 77/5/1
f 79/4/2 80/4/2 83/4/2
f 83/4/2 80/4/2 84/4/2
f 81/4/2 82/4/2 85/4/2
f 85/4/2 82/4/2 86/4/2
f 85/2/2 86/2/2 88/2/2
f 87/2/2 88/2/2 89/2/2
f 88/2/2 86/2/2 90/2/2
f 89/2/2 88/2/2 90/2/2
f 83/2/2 84/2/2 91/2/2
f 91/2/2 84/2/2 92/2/2
f 89/5/2 90/5/2 93/5/2
f 93/5/2 90/5/2 94/5/2
f 94/5/2 90/5/2 95/5/2
f 96/4/2 97/4/2 99/4/2
f 97/5/2 98/5/2 100/5/2
f 99/4/2 97/4/2 100/4/2
f 100/5/2 98/5/2 101/5/2
f 102/3/2 103/3/2 105/3/2
f 105/3/2 103/3/2 106/3/2
f 104/2/2 105/2/2 108/2/2
f 108/2/2 105/2/2 109/2/2
f 107/2/2 108/2/2 110/2/2
f 110/2/2 108/2/2 111/2/2
f 112/4/2 113/4/2 116/4/2
f 116/4/2 113/4/2 117/4/2
f 114/4/2 115/4/2 118/4/2
f 118/4/2 115/4/2 119/4/2
f 118/2/2 119/2/2 121/2/2
f 120/2/2 121/2/2 122/2/2
f 121/2/2 119/2/2 123/2/2
f 122/2/2 121/2/2 123/2/2
f 116/2/2 117/2/2 124/2/2
f 124/2/2 117/2/2 125/2/2
f 122/5/2 123/5/2 128/5/2
f 124/5/2 125/5/2 130/5/2
f 125/5/2 126/5/2 130/5/2
f 126/2/2 127/2/2 131/2/2
f 130/5/2 126/5/2 131/5/2
f 127/5/2 128/5/2 132/5/2
f 131/2/2 127/2/2 132/2/2
f 129/3/2 130/3/2 133/3/2
f 130/5/2 131/5/2 133/5/2
f 131/5/2 132/5/2 133/5/2
f 133/5/2 132/5/2 134/5/2
f 134/5/2 132/5/2 135/5/2
f 132/5/2 128/5/2 136/5/2
f 135/5/2 132/5/2 136/5/2
f 128/5/2 123/5/2 136/5/2
f 133/3/2 134/3/2 137/3/2
f 129/3/2 133/3/2 137/3/2
f 134/5/2 135/5/2 138/5/2
f 137/3/2 134/3/2 138/3/2
f 138/5/2 135/5/2 139/5/2
f 139/5/2 135/5/2 140/5/2
f 137/2/2 138/2/2 142/2/2
f 142/2/2 138/2/2 143/2/2
f 141/2/2 142/2/2 143/2/2
f 143/2/2 138/2/2 144/2/2
f 138/5/2 139/5/2 145/5/2
f 144/2/2 138/2/2 145/2/2
f 141/2/2 143/2/2 146/2/2
f 146/2/2 143/2/2 147/2/2
f 143/3/2 144/3/2 148/3/2
f 147/2/2 143/2/2 148/2/2
f 144/5/2 145/5/2 149/5/2
f 148/3/2 144/3/2 149/3/2
f 147/1/2 148/1/2 150/1/2
f 148/5/2 149/5/2 151/5/2
f 150/1/2 148/1/2 151/1/2
f 149/5/2 145/5/2 152/5/2
f 151/5/2 149/5/2 152/5/2
f 145/5/2 139/5/2 153/5/2
f 152/5/2 145/5/2 153/5/2
f 152/4/2 153/4/2 154/4/2
f 153/5/2 139/5/2 155/5/2
f 154/4/2 153/4/2 155/4/2
f 155/5/2 139/5/2 156/5/2
f 159/2/3 158/2/3 157/2/3
f 160/2/3 158/2/3 159/2/3
f 161/2/3 159/2/3 157/2/3
f 161/5/3 160/5/3 159/5/3
f 162/5/3 160/5/3 161/5/3
f 163/2/3 161/2/3 157/2/3
f 163/2/3 162/2/3 161/2/3
f 164/2/3 162/2/3 163/2/3
f 167/1/3 166/1/3 165/1/3
f 168/1/3 166/1/3 167/1/3
f 169/4/3 168/4/3 167/4/3
f 170/4/3 168/4/3 169/4/3
f 171/1/3 170/1/3 169/1/3
f 172/1/3 170/1/3 171/1/3
f 176/3/3 174/3/3 173/3/3
f 177/2/3 175/2/3 174/2/3
f 177/3/3 174/3/3 176/3/3
f 178/2/3 175/2/3 177/2/3
f 185/4/3 180/4/3 179/4/3
f 186/2/3 181/2/3 180/2/3
f 186/4/3 180/4/3 185/4/3
f 187/5/3 182/5/3 181/5/3
f 187/2/3 181/2/3 186/2/3
f 188/5/3 182/5/3 187/5/3
f 189/4/3 184/4/3 183/4/3
f 190/4/3 184/4/3 189/4/3
f 193/3/3 188/3/3 187/3/3
f 194/3/3 188/3/3 193/3/3
f 195/4/3 189/4/3 183/4/3
f 197/4/3 192/4/3 191/4/3
f 198/2/3 193/2/3 192/2/3
f 198/4/3 192/4/3 197/4/3
f 199/5/3 194/5/3 193/5/3
f 199/2/3 193/2/3 198/2/3
f 200/5/3 194/5/3 199/5/3
f 201/4/3 196/4/3 195/4/3
f 201/4/3 195/4/3 183/4/3
f 202/4/3 196/4/3 201/4/3
f 206/2/3 204/2/3 203/2/3
f 207/5/3 205/5/3 204/5/3
f 207/2/3 204/2/3 206/2/3
f 208/5/3 205/5/3 207/5/3
f 212/2/3 210/2/3 209/2/3
f 213/5/3 211/5/3 210/5/3
f 213/2/3 210/2/3 212/2/3
f 214/5/3 211/5/3 213/5/3
f 218/4/3 216/4/3 215/4/3
f 219/2/3 217/2/3 216/2/3
f 219/4/3 216/4/3 218/4/3
f 220/2/3 217/2/3 219/2/3
f 224/4/3 222/4/3 221/4/3
f 225/2/3 223/2/3 222/2/3
f 225/4/3 222/4/3 224/4/3
f 226/2/3 223/2/3 225/2/3
f 229/2/3 228/2/3 227/2/3
f 230/2/3 228/2/3 229/2/3
f 233/3/3 232/3/3 231/3/3
f 234/3/3 232/3/3 233/3/3
f 235/4/4 236/4/4 238/4/4
f 236/2/4 237/2/4 239/2/4
f 238/4/4 236/4/4 239/4/4
f 239/2/4 237/2/4 240/2/4
f 241/4/4 242/4/4 244/4/4
f 242/2/4 243/2/4 245/2/4
f 244/4/4 242/4/4 245/4/4
f 245/2/4 243/2/4 246/2/4
f 247/5/4 248/5/4 249/5/4
f 249/5/4 248/5/4 250/5/4
f 247/5/4 249/5/4 251/5/4
f 247/5/4 251/5/4 253/5/4
f 251/5/4 252/5/4 253/5/4
f 253/5/4 252/5/4 254/5/4
f 255/5/4 256/5/4 257/5/4
f 257/5/4 256/5/4 258/5/4
f 259/4/4 260/4/4 263/4/4
f 260/2/4 261/2/4 264/2/4
f 263/4/4 260/4/4 264/4/4
f 261/5/4 262/5/4 265/5/4
f 264/2/4 261/2/4 265/2/4
f 265/5/4 262/5/4 266/5/4
f 266/5/4 262/5/4 267/5/4
f 267/5/4 262/5/4 268/5/4
f 266/5/4 267/5/4 272/5/4
f 272/5/4 267/5/4 273/5/4
f 268/5/4 262/5/4 274/5/4
f 269/4/4 270/4/4 275/4/4
f 270/2/4 271/2/4 276/2/4
f 275/4/4 270/4/4 276/4/4
f 272/5/4 273/5/4 277/5/4
f 276/2/4 271/2/4 277/2/4
f 273/5/4 274/5/4 277/5/4
f 271/5/4 272/5/4 277/5/4
f 274/5/4 262/5/4 278/5/4
f 277/5/4 274/5/4 278/5/4
f 279/2/4 280/2/4 281/2/4
f 281/2/4 280/2/4 282/2/4
f 283/2/4 284/2/4 285/2/4
f 285/2/4 284/2/4 286/2/4
f 287/3/4 288/3/4 289/3/4
f 289/3/4 288/3/4 290/3/4
f 295/4/5 292/4/5 291/4/5
f 296/4/5 292/4/5 295/4/5
f 297/4/5 294/4/5 293/4/5
f 298/4/5 294/4/5 297/4/5
f 303/4/5 300/4/5 299/4/5
f 304/4/5 300/4/5 303/4/5
f 305/4/5 302/4/5 301/4/5
f 306/4/5 302/4/5 305/4/5
f 311/2/5 308/2/5 307/2/5
f 312/2/5 308/2/5 311/2/5
f 313/2/5 310/2/5 309/2/5
f 314/2/5 310/2/5 313/2/5
f 317/3/5 316/3/5 315/3/5
f 318/3/5 316/3/5 317/3/5
f 322/3/5 320/3/5 319/3/5
f 323/3/5 320/3/5 322/3/5
f 325/5/5 322/5/5 321/5/5
f 326/2/5 323/2/5 322/2/5
f 326/5/5 322/5/5 325/5/5
f 327/5/5 324/5/5 323/5/5
f 327/2/5 323/2/5 326/2/5
f 328/5/5 324/5/5 327/5/5
f 329/2/5 326/2/5 325/2/5
f 329/2/5 327/2/5 326/2/5
f 329/2/5 328/2/5 327/2/5
f 330/2/5 328/2/5 329/2/5
f 331/2/5 328/2/5 330/2/5
f 332/2/5 328/2/5 331/2/5
f 333/5/5 330/5/5 329/5/5
f 334/2/5 331/2/5 330/2/5
f 334/5/5 330/5/5 333/5/5
f 335/5/5 332/5/5 331/5/5
f 335/2/5 331/2/5 334/2/5
f 336/5/5 332/5/5 335/5/5
f 337/2/5 335/2/5 334/2/5
f 338/2/5 335/2/5 337/2/5
f 339/5/5 338/5/5 337/5/5
f 340/5/5 338/5/5 339/5/5
f 343/2/5 342/2/5 341/2/5
f 344/2/5 342/2/5 343/2/5
f 347/3/5 346/3/5 345/3/5
f 348/3/5 346/3/5 347/3/5
f 349/3/5 346/3/5 348/3/5
f 350/3/5 346/3/5 349/3/5
f 353/2/5 352/2/5 351/2/5
f 354/2/5 352/2/5 353/2/5
f 357/2/5 356/2/5 355/2/5
f 358/2/5 356/2/5 357/2/5
f 359/3/6 360/3/6 361/3/6
f 361/3/6 360/3/6 362/3/6
f 363/2/6 364/2/6 365/2/6
f 365/2/6 364/2/6 366/2/6
f 367/2/6 368/2/6 369/2/6
f 369/2/6 368/2/6 370/2/6
f 371/5/6 372/5/6 373/5/6
f 373/5/6 372/5/6 374/5/6
f 375/5/6 376/5/6 377/5/6
f 377/5/6 376/5/6 378/5/6
f 379/2/6 380/2/6 383/2/6
f 380/5/6 381/5/6 384/5/6
f 383/2/6 380/2/6 384/2/6
f 381/2/6 382/2/6 385/2/6
f 384/5/6 381/5/6 385/5/6
f 385/2/6 382/2/6 386/2/6
f 387/1/6 388/1/6 391/1/6
f 388/4/6 389/4/6 392/4/6
f 391/1/6 388/1/6 392/1/6
f 389/1/6 390/1/6 393/1/6
f 392/4/6 389/4/6 393/4/6
f 393/1/6 390/1/6 394/1/6
f 391/5/6 392/5/6 395/5/6
f 392/5/6 393/5/6 395/5/6
f 393/5/6 394/5/6 395/5/6
f 395/5/6 394/5/6 396/5/6
f 397/4/6 398/4/6 399/4/6
f 399/4/6 398/4/6 400/4/6
f 399/5/6 400/5/6 401/5/6
f 401/5/6 400/5/6 402/5/6
f 403/4/6 404/4/6 407/4/6
f 407/4/6 404/4/6 408/4/6
f 405/4/6 406/4/6 409/4/6
f 409/4/6 406/4/6 410/4/6
f 407/5/6 408/5/6 411/5/6
f 411/5/6 408/5/6 412/5/6
f 409/5/6 410/5/6 413/5/6
f 413/5/6 410/5/6 414/5/6
