# MagicaVoxel @ Ephtracy

# group
o 

# material
mtllib comp.mtl
usemtl palette

# normals
vn -1 0 0
vn 1 0 0
vn 0 0 1
vn 0 0 -1
vn 0 -1 0
vn 0 1 0

# texcoords
vt 0.775391 0.5
vt 0.841797 0.5
vt 0.962891 0.5
vt 0.966797 0.5
vt 0.986328 0.5

# verts
v -0.4 0.9 0.2
v -0.4 0.9 -0.1
v -0.4 1.6 0.2
v -0.4 1.6 -0.1
v -0.3 0.4 0.1
v -0.3 0.4 0
v -0.3 0.7 0.1
v -0.3 0.7 0
v -0.3 0.9 -0.1
v -0.3 0.9 -0.3
v -0.3 1.5 -0.1
v -0.3 1.5 -0.3
v -0.2 0 0.1
v -0.2 0 0
v -0.2 0.3 0.1
v -0.2 0.3 0
v -0.2 0.7 0.1
v -0.2 0.7 0
v -0.2 0.8 0.1
v -0.2 0.8 0
v -0.2 1 -0.3
v -0.2 1 -0.4
v -0.2 1.4 -0.3
v -0.2 1.4 -0.4
v -0.1 0.3 0.1
v -0.1 0.3 0
v -0.1 0.7 0.1
v -0.1 0.7 0
v -0.1 0.8 0.1
v -0.1 0.8 0
v -0.1 0.9 0.1
v -0.1 0.9 0
v 0.1 0 0.1
v 0.1 0 0
v 0.1 0.3 0.1
v 0.1 0.3 0
v 0.2 0.4 0.1
v 0.2 0.4 0
v 0.2 0.7 0.1
v 0.2 0.7 0
v -0.2 0.4 0.1
v -0.2 0.4 0
v -0.2 0.7 0.1
v -0.2 0.7 0
v -0.1 0 0.1
v -0.1 0 0
v -0.1 0.3 0.1
v -0.1 0.3 0
v 0.1 0.3 0.1
v 0.1 0.3 0
v 0.1 0.7 0.1
v 0.1 0.7 0
v 0.1 0.8 0.1
v 0.1 0.8 0
v 0.1 0.9 0.1
v 0.1 0.9 0
v 0.2 0 0.1
v 0.2 0 0
v 0.2 0.3 0.1
v 0.2 0.3 0
v 0.2 0.7 0.1
v 0.2 0.7 0
v 0.2 0.8 0.1
v 0.2 0.8 0
v 0.2 1 -0.3
v 0.2 1 -0.4
v 0.2 1.4 -0.3
v 0.2 1.4 -0.4
v 0.3 0.4 0.1
v 0.3 0.4 0
v 0.3 0.7 0.1
v 0.3 0.7 0
v 0.3 0.9 -0.1
v 0.3 0.9 -0.3
v 0.3 1.5 -0.1
v 0.3 1.5 -0.3
v 0.4 0.9 0.2
v 0.4 0.9 -0.1
v 0.4 1.6 0.2
v 0.4 1.6 -0.1
v -0.4 0.9 0.2
v -0.4 1.6 0.2
v -0.3 1 0.2
v -0.3 1.5 0.2
v -0.2 1.3 0.2
v -0.2 1.4 0.2
v -0.1 1.1 0.2
v -0.1 1.2 0.2
v -0.1 1.3 0.2
v -0.1 1.4 0.2
v 0.1 1.1 0.2
v 0.1 1.2 0.2
v 0.1 1.3 0.2
v 0.1 1.4 0.2
v 0.2 1.3 0.2
v 0.2 1.4 0.2
v 0.3 1 0.2
v 0.3 1.5 0.2
v 0.4 0.9 0.2
v 0.4 1.6 0.2
v -0.3 0.4 0.1
v -0.3 0.7 0.1
v -0.2 0 0.1
v -0.2 0.3 0.1
v -0.2 0.4 0.1
v -0.2 0.7 0.1
v -0.2 0.8 0.1
v -0.1 0 0.1
v -0.1 0.3 0.1
v -0.1 0.7 0.1
v -0.1 0.8 0.1
v -0.1 0.9 0.1
v 0 0.3 0.1
v 0 0.7 0.1
v 0 0.8 0.1
v 0 0.9 0.1
v 0.1 0 0.1
v 0.1 0.3 0.1
v 0.1 0.7 0.1
v 0.1 0.8 0.1
v 0.1 0.9 0.1
v 0.2 0 0.1
v 0.2 0.3 0.1
v 0.2 0.4 0.1
v 0.2 0.7 0.1
v 0.2 0.8 0.1
v 0.3 0.4 0.1
v 0.3 0.7 0.1
v -0.3 0.4 0
v -0.3 0.7 0
v -0.2 0 0
v -0.2 0.3 0
v -0.2 0.4 0
v -0.2 0.7 0
v -0.2 0.8 0
v -0.1 0 0
v -0.1 0.3 0
v -0.1 0.7 0
v -0.1 0.8 0
v -0.1 0.9 0
v 0 0.3 0
v 0 0.7 0
v 0 0.8 0
v 0 0.9 0
v 0.1 0 0
v 0.1 0.3 0
v 0.1 0.7 0
v 0.1 0.8 0
v 0.1 0.9 0
v 0.2 0 0
v 0.2 0.3 0
v 0.2 0.4 0
v 0.2 0.7 0
v 0.2 0.8 0
v 0.3 0.4 0
v 0.3 0.7 0
v -0.4 0.9 -0.1
v -0.4 1.6 -0.1
v -0.3 0.9 -0.1
v -0.3 1.5 -0.1
v 0.3 0.9 -0.1
v 0.3 1.5 -0.1
v 0.4 0.9 -0.1
v 0.4 1.6 -0.1
v -0.3 0.9 -0.3
v -0.3 1.5 -0.3
v -0.2 1 -0.3
v -0.2 1.4 -0.3
v 0.2 1 -0.3
v 0.2 1.4 -0.3
v 0.3 0.9 -0.3
v 0.3 1.5 -0.3
v -0.2 1 -0.4
v -0.2 1.4 -0.4
v 0.2 1 -0.4
v 0.2 1.4 -0.4
v -0.2 0 0.1
v -0.1 0 0.1
v 0.1 0 0.1
v 0.2 0 0.1
v -0.2 0 0
v -0.1 0 0
v 0.1 0 0
v 0.2 0 0
v -0.1 0.3 0.1
v 0 0.3 0.1
v 0.1 0.3 0.1
v -0.1 0.3 0
v 0 0.3 0
v 0.1 0.3 0
v -0.3 0.4 0.1
v -0.2 0.4 0.1
v 0.2 0.4 0.1
v 0.3 0.4 0.1
v -0.3 0.4 0
v -0.2 0.4 0
v 0.2 0.4 0
v 0.3 0.4 0
v -0.2 0.7 0.1
v -0.1 0.7 0.1
v 0.1 0.7 0.1
v 0.2 0.7 0.1
v -0.2 0.7 0
v -0.1 0.7 0
v 0.1 0.7 0
v 0.2 0.7 0
v -0.4 0.9 0.2
v 0.4 0.9 0.2
v -0.1 0.9 0.1
v 0 0.9 0.1
v 0.1 0.9 0.1
v -0.1 0.9 0
v 0 0.9 0
v 0.1 0.9 0
v -0.4 0.9 -0.1
v -0.3 0.9 -0.1
v 0.3 0.9 -0.1
v 0.4 0.9 -0.1
v -0.3 0.9 -0.3
v 0.3 0.9 -0.3
v -0.2 1 -0.3
v 0.2 1 -0.3
v -0.2 1 -0.4
v 0.2 1 -0.4
v -0.2 0.3 0.1
v -0.1 0.3 0.1
v 0.1 0.3 0.1
v 0.2 0.3 0.1
v -0.2 0.3 0
v -0.1 0.3 0
v 0.1 0.3 0
v 0.2 0.3 0
v -0.3 0.7 0.1
v -0.2 0.7 0.1
v 0.2 0.7 0.1
v 0.3 0.7 0.1
v -0.3 0.7 0
v -0.2 0.7 0
v 0.2 0.7 0
v 0.3 0.7 0
v -0.2 0.8 0.1
v -0.1 0.8 0.1
v 0.1 0.8 0.1
v 0.2 0.8 0.1
v -0.2 0.8 0
v -0.1 0.8 0
v 0.1 0.8 0
v 0.2 0.8 0
v -0.2 1.4 -0.3
v 0.2 1.4 -0.3
v -0.2 1.4 -0.4
v 0.2 1.4 -0.4
v -0.3 1.5 -0.1
v 0.3 1.5 -0.1
v -0.3 1.5 -0.3
v 0.3 1.5 -0.3
v -0.4 1.6 0.2
v 0.4 1.6 0.2
v -0.4 1.6 -0.1
v 0.4 1.6 -0.1

# faces
f 3/4/1 2/4/1 1/4/1
f 4/4/1 2/4/1 3/4/1
f 7/1/1 6/1/1 5/1/1
f 8/1/1 6/1/1 7/1/1
f 11/4/1 10/4/1 9/4/1
f 12/4/1 10/4/1 11/4/1
f 15/2/1 14/2/1 13/2/1
f 16/2/1 14/2/1 15/2/1
f 19/1/1 18/1/1 17/1/1
f 20/1/1 18/1/1 19/1/1
f 23/4/1 22/4/1 21/4/1
f 24/4/1 22/4/1 23/4/1
f 27/2/1 26/2/1 25/2/1
f 28/2/1 26/2/1 27/2/1
f 31/2/1 30/2/1 29/2/1
f 32/2/1 30/2/1 31/2/1
f 35/1/1 34/1/1 33/1/1
f 36/1/1 34/1/1 35/1/1
f 39/2/1 38/2/1 37/2/1
f 40/2/1 38/2/1 39/2/1
f 41/1/2 42/1/2 43/1/2
f 43/1/2 42/1/2 44/1/2
f 45/2/2 46/2/2 47/2/2
f 47/2/2 46/2/2 48/2/2
f 49/1/2 50/1/2 51/1/2
f 51/1/2 50/1/2 52/1/2
f 53/1/2 54/1/2 55/1/2
f 55/1/2 54/1/2 56/1/2
f 57/1/2 58/1/2 59/1/2
f 59/1/2 58/1/2 60/1/2
f 61/2/2 62/2/2 63/2/2
f 63/2/2 62/2/2 64/2/2
f 65/4/2 66/4/2 67/4/2
f 67/4/2 66/4/2 68/4/2
f 69/2/2 70/2/2 71/2/2
f 71/2/2 70/2/2 72/2/2
f 73/4/2 74/4/2 75/4/2
f 75/4/2 74/4/2 76/4/2
f 77/4/2 78/4/2 79/4/2
f 79/4/2 78/4/2 80/4/2
f 83/4/3 82/4/3 81/4/3
f 84/4/3 82/4/3 83/4/3
f 85/5/3 84/5/3 83/5/3
f 86/5/3 84/5/3 85/5/3
f 87/5/3 85/5/3 83/5/3
f 88/5/3 85/5/3 87/5/3
f 89/3/3 86/3/3 85/3/3
f 89/5/3 85/5/3 88/5/3
f 90/5/3 84/5/3 86/5/3
f 90/3/3 86/3/3 89/3/3
f 91/3/3 88/3/3 87/3/3
f 91/5/3 87/5/3 83/5/3
f 92/5/3 89/5/3 88/5/3
f 92/3/3 88/3/3 91/3/3
f 92/5/3 90/5/3 89/5/3
f 93/5/3 90/5/3 92/5/3
f 94/5/3 84/5/3 90/5/3
f 94/5/3 90/5/3 93/5/3
f 95/5/3 93/5/3 92/5/3
f 95/5/3 92/5/3 91/5/3
f 95/3/3 94/3/3 93/3/3
f 96/5/3 84/5/3 94/5/3
f 96/3/3 94/3/3 95/3/3
f 97/4/3 83/4/3 81/4/3
f 97/5/3 91/5/3 83/5/3
f 97/5/3 96/5/3 95/5/3
f 97/5/3 95/5/3 91/5/3
f 98/5/3 84/5/3 96/5/3
f 98/5/3 96/5/3 97/5/3
f 98/4/3 82/4/3 84/4/3
f 99/4/3 97/4/3 81/4/3
f 99/4/3 98/4/3 97/4/3
f 100/4/3 82/4/3 98/4/3
f 100/4/3 98/4/3 99/4/3
f 105/1/3 102/1/3 101/1/3
f 106/1/3 102/1/3 105/1/3
f 108/2/3 104/2/3 103/2/3
f 109/2/3 104/2/3 108/2/3
f 110/1/3 107/1/3 106/1/3
f 111/1/3 107/1/3 110/1/3
f 113/2/3 110/2/3 109/2/3
f 114/1/3 111/1/3 110/1/3
f 114/2/3 110/2/3 113/2/3
f 115/2/3 112/2/3 111/2/3
f 115/1/3 111/1/3 114/1/3
f 116/2/3 112/2/3 115/2/3
f 118/1/3 114/1/3 113/1/3
f 119/2/3 115/2/3 114/2/3
f 119/1/3 114/1/3 118/1/3
f 120/1/3 116/1/3 115/1/3
f 120/2/3 115/2/3 119/2/3
f 121/1/3 116/1/3 120/1/3
f 122/1/3 118/1/3 117/1/3
f 123/1/3 118/1/3 122/1/3
f 125/2/3 120/2/3 119/2/3
f 126/2/3 120/2/3 125/2/3
f 127/2/3 125/2/3 124/2/3
f 128/2/3 125/2/3 127/2/3
f 129/1/4 130/1/4 133/1/4
f 133/1/4 130/1/4 134/1/4
f 131/2/4 132/2/4 136/2/4
f 136/2/4 132/2/4 137/2/4
f 134/1/4 135/1/4 138/1/4
f 138/1/4 135/1/4 139/1/4
f 137/2/4 138/2/4 141/2/4
f 138/1/4 139/1/4 142/1/4
f 141/2/4 138/2/4 142/2/4
f 139/2/4 140/2/4 143/2/4
f 142/1/4 139/1/4 143/1/4
f 143/2/4 140/2/4 144/2/4
f 141/1/4 142/1/4 146/1/4
f 142/2/4 143/2/4 147/2/4
f 146/1/4 142/1/4 147/1/4
f 143/1/4 144/1/4 148/1/4
f 147/2/4 143/2/4 148/2/4
f 148/1/4 144/1/4 149/1/4
f 145/1/4 146/1/4 150/1/4
f 150/1/4 146/1/4 151/1/4
f 147/2/4 148/2/4 153/2/4
f 153/2/4 148/2/4 154/2/4
f 152/2/4 153/2/4 155/2/4
f 155/2/4 153/2/4 156/2/4
f 157/4/4 158/4/4 159/4/4
f 159/4/4 158/4/4 160/4/4
f 160/4/4 158/4/4 162/4/4
f 161/4/4 162/4/4 163/4/4
f 162/4/4 158/4/4 164/4/4
f 163/4/4 162/4/4 164/4/4
f 165/4/4 166/4/4 167/4/4
f 167/4/4 166/4/4 168/4/4
f 165/4/4 167/4/4 169/4/4
f 168/4/4 166/4/4 170/4/4
f 165/4/4 169/4/4 171/4/4
f 169/4/4 170/4/4 171/4/4
f 170/4/4 166/4/4 172/4/4
f 171/4/4 170/4/4 172/4/4
f 173/4/4 174/4/4 175/4/4
f 175/4/4 174/4/4 176/4/4
f 181/2/5 178/2/5 177/2/5
f 182/2/5 178/2/5 181/2/5
f 183/1/5 180/1/5 179/1/5
f 184/1/5 180/1/5 183/1/5
f 188/2/5 186/2/5 185/2/5
f 189/1/5 187/1/5 186/1/5
f 189/2/5 186/2/5 188/2/5
f 190/1/5 187/1/5 189/1/5
f 195/1/5 192/1/5 191/1/5
f 196/1/5 192/1/5 195/1/5
f 197/2/5 194/2/5 193/2/5
f 198/2/5 194/2/5 197/2/5
f 203/1/5 200/1/5 199/1/5
f 204/1/5 200/1/5 203/1/5
f 205/2/5 202/2/5 201/2/5
f 206/2/5 202/2/5 205/2/5
f 209/4/5 208/4/5 207/4/5
f 210/4/5 208/4/5 209/4/5
f 211/4/5 208/4/5 210/4/5
f 212/4/5 209/4/5 207/4/5
f 214/4/5 208/4/5 211/4/5
f 215/4/5 213/4/5 212/4/5
f 215/4/5 214/4/5 213/4/5
f 215/4/5 212/4/5 207/4/5
f 216/4/5 214/4/5 215/4/5
f 217/4/5 208/4/5 214/4/5
f 217/4/5 214/4/5 216/4/5
f 218/4/5 208/4/5 217/4/5
f 219/4/5 217/4/5 216/4/5
f 220/4/5 217/4/5 219/4/5
f 223/4/5 222/4/5 221/4/5
f 224/4/5 222/4/5 223/4/5
f 225/2/6 226/2/6 229/2/6
f 229/2/6 226/2/6 230/2/6
f 227/1/6 228/1/6 231/1/6
f 231/1/6 228/1/6 232/1/6
f 233/1/6 234/1/6 237/1/6
f 237/1/6 234/1/6 238/1/6
f 235/2/6 236/2/6 239/2/6
f 239/2/6 236/2/6 240/2/6
f 241/1/6 242/1/6 245/1/6
f 245/1/6 242/1/6 246/1/6
f 243/2/6 244/2/6 247/2/6
f 247/2/6 244/2/6 248/2/6
f 249/4/6 250/4/6 251/4/6
f 251/4/6 250/4/6 252/4/6
f 253/4/6 254/4/6 255/4/6
f 255/4/6 254/4/6 256/4/6
f 257/4/6 258/4/6 259/4/6
f 259/4/6 258/4/6 260/4/6
