# MagicaVoxel @ Ephtracy

# group
o 

# material
mtllib mini.mtl
usemtl palette

# normals
vn -1 0 0
vn 1 0 0
vn 0 0 1
vn 0 0 -1
vn 0 -1 0
vn 0 1 0

# texcoords
vt 0.306641 0.5
vt 0.587891 0.5
vt 0.798828 0.5
vt 0.958984 0.5
vt 0.970703 0.5
vt 0.994141 0.5

# verts
v -0.6 0.3 0.1
v -0.6 0.3 -0.1
v -0.6 0.8 0.1
v -0.6 0.8 -0.1
v -0.5 0.8 0.1
v -0.5 0.8 -0.1
v -0.5 0.9 0.1
v -0.5 0.9 -0.1
v -0.4 0.2 0.1
v -0.4 0.2 -0.1
v -0.4 0.3 0.2
v -0.4 0.3 0.1
v -0.4 0.3 0
v -0.4 0.3 -0.1
v -0.4 0.3 -0.2
v -0.4 0.4 0.1
v -0.4 0.4 0
v -0.4 0.5 0.2
v -0.4 0.5 0.1
v -0.4 0.5 -0.1
v -0.4 0.5 -0.2
v -0.4 0.9 0.2
v -0.4 0.9 0.1
v -0.4 0.9 -0.1
v -0.4 0.9 -0.2
v -0.4 1 0.2
v -0.4 1 -0.2
v -0.3 0 0.1
v -0.3 0 -0.1
v -0.3 0.1 0.1
v -0.3 0.1 -0.1
v -0.3 0.2 0.2
v -0.3 0.2 0.1
v -0.3 0.2 -0.1
v -0.3 0.2 -0.2
v -0.3 0.3 0.2
v -0.3 0.3 0.1
v -0.3 0.3 -0.1
v -0.3 0.3 -0.2
v -0.3 1 0.2
v -0.3 1 -0.2
v -0.3 1.1 0.2
v -0.3 1.1 0.1
v -0.3 1.2 0.1
v -0.3 1.2 -0.2
v -0.3 1.3 0.1
v -0.3 1.3 -0.2
v -0.3 1.4 0.2
v -0.3 1.4 0.1
v -0.3 1.5 0.2
v -0.3 1.5 -0.2
v -0.2 1.5 0.2
v -0.2 1.5 -0.2
v -0.2 1.6 0.2
v -0.2 1.6 -0.2
v 0.2 0 0.1
v 0.2 0 -0.1
v 0.2 0.1 0.1
v 0.2 0.1 -0.1
v 0.2 0.2 0.1
v 0.2 0.2 -0.1
v 0.6 0.3 0.1
v 0.6 0.3 0
v 0.6 0.4 0.1
v 0.6 0.4 0
v -0.5 0.3 0.1
v -0.5 0.3 0
v -0.5 0.4 0.1
v -0.5 0.4 0
v -0.1 0 0.1
v -0.1 0 -0.1
v -0.1 0.1 0.1
v -0.1 0.1 -0.1
v -0.1 0.2 0.1
v -0.1 0.2 -0.1
v 0.3 1.5 0.2
v 0.3 1.5 -0.2
v 0.3 1.6 0.2
v 0.3 1.6 -0.2
v 0.4 0 0.1
v 0.4 0 -0.1
v 0.4 0.1 0.1
v 0.4 0.1 -0.1
v 0.4 0.2 0.2
v 0.4 0.2 0.1
v 0.4 0.2 -0.1
v 0.4 0.2 -0.2
v 0.4 0.3 0.2
v 0.4 0.3 0.1
v 0.4 0.3 -0.1
v 0.4 0.3 -0.2
v 0.4 1 0.2
v 0.4 1 -0.2
v 0.4 1.1 0.2
v 0.4 1.1 0.1
v 0.4 1.2 0.1
v 0.4 1.2 -0.2
v 0.4 1.3 0.1
v 0.4 1.3 -0.2
v 0.4 1.4 0.2
v 0.4 1.4 0.1
v 0.4 1.5 0.2
v 0.4 1.5 -0.2
v 0.5 0.2 0.1
v 0.5 0.2 -0.1
v 0.5 0.3 0.2
v 0.5 0.3 0.1
v 0.5 0.3 0
v 0.5 0.3 -0.1
v 0.5 0.3 -0.2
v 0.5 0.4 0.1
v 0.5 0.4 0
v 0.5 0.5 0.2
v 0.5 0.5 0.1
v 0.5 0.5 -0.1
v 0.5 0.5 -0.2
v 0.5 0.9 0.2
v 0.5 0.9 0.1
v 0.5 0.9 -0.1
v 0.5 0.9 -0.2
v 0.5 1 0.2
v 0.5 1 -0.2
v 0.6 0.8 0.1
v 0.6 0.8 -0.1
v 0.6 0.9 0.1
v 0.6 0.9 -0.1
v 0.7 0.3 0.1
v 0.7 0.3 -0.1
v 0.7 0.8 0.1
v 0.7 0.8 -0.1
v -0.4 0.3 0.2
v -0.4 0.5 0.2
v -0.4 0.9 0.2
v -0.4 1 0.2
v -0.3 0.2 0.2
v -0.3 0.3 0.2
v -0.3 0.4 0.2
v -0.3 0.5 0.2
v -0.3 0.9 0.2
v -0.3 1 0.2
v -0.3 1.1 0.2
v -0.3 1.4 0.2
v -0.3 1.5 0.2
v -0.2 0.4 0.2
v -0.2 0.5 0.2
v -0.2 0.9 0.2
v -0.2 1.2 0.2
v -0.2 1.3 0.2
v -0.2 1.5 0.2
v -0.2 1.6 0.2
v -0.1 1.2 0.2
v -0.1 1.3 0.2
v 0 1.1 0.2
v 0 1.2 0.2
v 0 1.3 0.2
v 0 1.4 0.2
v 0.1 1.1 0.2
v 0.1 1.2 0.2
v 0.1 1.3 0.2
v 0.1 1.4 0.2
v 0.2 1.2 0.2
v 0.2 1.3 0.2
v 0.3 0.4 0.2
v 0.3 0.5 0.2
v 0.3 0.9 0.2
v 0.3 1.2 0.2
v 0.3 1.3 0.2
v 0.3 1.5 0.2
v 0.3 1.6 0.2
v 0.4 0.2 0.2
v 0.4 0.3 0.2
v 0.4 0.4 0.2
v 0.4 0.5 0.2
v 0.4 0.9 0.2
v 0.4 1 0.2
v 0.4 1.1 0.2
v 0.4 1.4 0.2
v 0.4 1.5 0.2
v 0.5 0.3 0.2
v 0.5 0.5 0.2
v 0.5 0.9 0.2
v 0.5 1 0.2
v -0.6 0.3 0.1
v -0.6 0.8 0.1
v -0.5 0.3 0.1
v -0.5 0.4 0.1
v -0.5 0.8 0.1
v -0.5 0.9 0.1
v -0.4 0.2 0.1
v -0.4 0.3 0.1
v -0.4 0.4 0.1
v -0.4 0.5 0.1
v -0.4 0.9 0.1
v -0.3 0 0.1
v -0.3 0.1 0.1
v -0.3 0.2 0.1
v -0.3 0.3 0.1
v -0.1 0 0.1
v -0.1 0.1 0.1
v -0.1 0.2 0.1
v 0.2 0 0.1
v 0.2 0.1 0.1
v 0.2 0.2 0.1
v 0.4 0 0.1
v 0.4 0.1 0.1
v 0.4 0.2 0.1
v 0.4 0.3 0.1
v 0.5 0.2 0.1
v 0.5 0.3 0.1
v 0.5 0.4 0.1
v 0.5 0.5 0.1
v 0.5 0.9 0.1
v 0.6 0.3 0.1
v 0.6 0.4 0.1
v 0.6 0.8 0.1
v 0.6 0.9 0.1
v 0.7 0.3 0.1
v 0.7 0.8 0.1
v -0.5 0.3 0
v -0.5 0.4 0
v -0.4 0.3 0
v -0.4 0.4 0
v 0.5 0.3 0
v 0.5 0.4 0
v 0.6 0.3 0
v 0.6 0.4 0
v -0.6 0.3 -0.1
v -0.6 0.8 -0.1
v -0.5 0.8 -0.1
v -0.5 0.9 -0.1
v -0.4 0.2 -0.1
v -0.4 0.3 -0.1
v -0.4 0.5 -0.1
v -0.4 0.9 -0.1
v -0.3 0 -0.1
v -0.3 0.1 -0.1
v -0.3 0.2 -0.1
v -0.3 0.3 -0.1
v -0.1 0 -0.1
v -0.1 0.1 -0.1
v -0.1 0.2 -0.1
v 0.2 0 -0.1
v 0.2 0.1 -0.1
v 0.2 0.2 -0.1
v 0.4 0 -0.1
v 0.4 0.1 -0.1
v 0.4 0.2 -0.1
v 0.4 0.3 -0.1
v 0.5 0.2 -0.1
v 0.5 0.3 -0.1
v 0.5 0.5 -0.1
v 0.5 0.9 -0.1
v 0.6 0.8 -0.1
v 0.6 0.9 -0.1
v 0.7 0.3 -0.1
v 0.7 0.8 -0.1
v -0.4 0.3 -0.2
v -0.4 0.5 -0.2
v -0.4 0.9 -0.2
v -0.4 1 -0.2
v -0.3 0.2 -0.2
v -0.3 0.3 -0.2
v -0.3 0.4 -0.2
v -0.3 0.5 -0.2
v -0.3 0.9 -0.2
v -0.3 1 -0.2
v -0.3 1.2 -0.2
v -0.3 1.3 -0.2
v -0.3 1.5 -0.2
v -0.2 0.4 -0.2
v -0.2 0.5 -0.2
v -0.2 0.9 -0.2
v -0.2 1.5 -0.2
v -0.2 1.6 -0.2
v 0.3 0.4 -0.2
v 0.3 0.5 -0.2
v 0.3 0.9 -0.2
v 0.3 1.5 -0.2
v 0.3 1.6 -0.2
v 0.4 0.2 -0.2
v 0.4 0.3 -0.2
v 0.4 0.4 -0.2
v 0.4 0.5 -0.2
v 0.4 0.9 -0.2
v 0.4 1 -0.2
v 0.4 1.2 -0.2
v 0.4 1.3 -0.2
v 0.4 1.5 -0.2
v 0.5 0.3 -0.2
v 0.5 0.5 -0.2
v 0.5 0.9 -0.2
v 0.5 1 -0.2
v -0.3 0 0.1
v -0.1 0 0.1
v 0.2 0 0.1
v 0.4 0 0.1
v -0.3 0 -0.1
v -0.1 0 -0.1
v 0.2 0 -0.1
v 0.4 0 -0.1
v -0.3 0.2 0.2
v 0.4 0.2 0.2
v -0.4 0.2 0.1
v -0.3 0.2 0.1
v -0.1 0.2 0.1
v 0.2 0.2 0.1
v 0.4 0.2 0.1
v 0.5 0.2 0.1
v -0.4 0.2 -0.1
v -0.3 0.2 -0.1
v -0.1 0.2 -0.1
v 0.2 0.2 -0.1
v 0.4 0.2 -0.1
v 0.5 0.2 -0.1
v -0.3 0.2 -0.2
v 0.4 0.2 -0.2
v -0.4 0.3 0.2
v -0.3 0.3 0.2
v 0.4 0.3 0.2
v 0.5 0.3 0.2
v -0.6 0.3 0.1
v -0.5 0.3 0.1
v -0.4 0.3 0.1
v -0.3 0.3 0.1
v 0.4 0.3 0.1
v 0.5 0.3 0.1
v 0.6 0.3 0.1
v 0.7 0.3 0.1
v -0.5 0.3 0
v -0.4 0.3 0
v 0.5 0.3 0
v 0.6 0.3 0
v -0.6 0.3 -0.1
v -0.4 0.3 -0.1
v -0.3 0.3 -0.1
v 0.4 0.3 -0.1
v 0.5 0.3 -0.1
v 0.7 0.3 -0.1
v -0.4 0.3 -0.2
v -0.3 0.3 -0.2
v 0.4 0.3 -0.2
v 0.5 0.3 -0.2
v -0.5 0.4 0.1
v -0.4 0.4 0.1
v 0.5 0.4 0.1
v 0.6 0.4 0.1
v -0.5 0.4 0
v -0.4 0.4 0
v 0.5 0.4 0
v 0.6 0.4 0
v -0.6 0.8 0.1
v -0.5 0.8 0.1
v 0.6 0.8 0.1
v 0.7 0.8 0.1
v -0.6 0.8 -0.1
v -0.5 0.8 -0.1
v 0.6 0.8 -0.1
v 0.7 0.8 -0.1
v -0.5 0.9 0.1
v -0.4 0.9 0.1
v 0.5 0.9 0.1
v 0.6 0.9 0.1
v -0.5 0.9 -0.1
v -0.4 0.9 -0.1
v 0.5 0.9 -0.1
v 0.6 0.9 -0.1
v -0.4 1 0.2
v -0.3 1 0.2
v 0.4 1 0.2
v 0.5 1 0.2
v -0.4 1 -0.2
v -0.3 1 -0.2
v 0.4 1 -0.2
v 0.5 1 -0.2
v -0.3 1.5 0.2
v -0.2 1.5 0.2
v 0.3 1.5 0.2
v 0.4 1.5 0.2
v -0.3 1.5 -0.2
v -0.2 1.5 -0.2
v 0.3 1.5 -0.2
v 0.4 1.5 -0.2
v -0.2 1.6 0.2
v 0.3 1.6 0.2
v -0.2 1.6 -0.2
v 0.3 1.6 -0.2

# faces
f 3/2/1 2/2/1 1/2/1
f 4/2/1 2/2/1 3/2/1
f 7/2/1 6/2/1 5/2/1
f 8/2/1 6/2/1 7/2/1
f 12/3/1 10/3/1 9/3/1
f 13/3/1 10/3/1 12/3/1
f 14/3/1 10/3/1 13/3/1
f 16/3/1 12/3/1 11/3/1
f 16/3/1 13/3/1 12/3/1
f 17/3/1 13/3/1 16/3/1
f 18/3/1 16/3/1 11/3/1
f 19/3/1 16/3/1 18/3/1
f 20/3/1 15/3/1 14/3/1
f 21/3/1 15/3/1 20/3/1
f 22/2/1 19/2/1 18/2/1
f 23/2/1 19/2/1 22/2/1
f 24/2/1 21/2/1 20/2/1
f 25/2/1 21/2/1 24/2/1
f 26/3/1 23/3/1 22/3/1
f 26/3/1 24/3/1 23/3/1
f 26/3/1 25/3/1 24/3/1
f 27/3/1 25/3/1 26/3/1
f 30/2/1 29/2/1 28/2/1
f 31/2/1 29/2/1 30/2/1
f 33/3/1 31/3/1 30/3/1
f 34/3/1 31/3/1 33/3/1
f 36/3/1 33/3/1 32/3/1
f 37/3/1 33/3/1 36/3/1
f 38/3/1 35/3/1 34/3/1
f 39/3/1 35/3/1 38/3/1
f 42/2/1 41/2/1 40/2/1
f 43/2/1 41/2/1 42/2/1
f 44/6/1 43/6/1 42/6/1
f 44/2/1 41/2/1 43/2/1
f 45/2/1 41/2/1 44/2/1
f 46/6/1 44/6/1 42/6/1
f 46/6/1 45/6/1 44/6/1
f 47/6/1 45/6/1 46/6/1
f 48/6/1 46/6/1 42/6/1
f 49/2/1 47/2/1 46/2/1
f 49/6/1 46/6/1 48/6/1
f 50/2/1 49/2/1 48/2/1
f 51/2/1 47/2/1 49/2/1
f 51/2/1 49/2/1 50/2/1
f 54/2/1 53/2/1 52/2/1
f 55/2/1 53/2/1 54/2/1
f 58/2/1 57/2/1 56/2/1
f 59/2/1 57/2/1 58/2/1
f 60/3/1 59/3/1 58/3/1
f 61/3/1 59/3/1 60/3/1
f 64/2/1 63/2/1 62/2/1
f 65/2/1 63/2/1 64/2/1
f 66/2/2 67/2/2 68/2/2
f 68/2/2 67/2/2 69/2/2
f 70/2/2 71/2/2 72/2/2
f 72/2/2 71/2/2 73/2/2
f 72/3/2 73/3/2 74/3/2
f 74/3/2 73/3/2 75/3/2
f 76/2/2 77/2/2 78/2/2
f 78/2/2 77/2/2 79/2/2
f 80/2/2 81/2/2 82/2/2
f 82/2/2 81/2/2 83/2/2
f 82/3/2 83/3/2 85/3/2
f 85/3/2 83/3/2 86/3/2
f 84/3/2 85/3/2 88/3/2
f 88/3/2 85/3/2 89/3/2
f 86/3/2 87/3/2 90/3/2
f 90/3/2 87/3/2 91/3/2
f 92/2/2 93/2/2 94/2/2
f 94/2/2 93/2/2 95/2/2
f 94/6/2 95/6/2 96/6/2
f 95/2/2 93/2/2 96/2/2
f 96/2/2 93/2/2 97/2/2
f 94/6/2 96/6/2 98/6/2
f 96/6/2 97/6/2 98/6/2
f 98/6/2 97/6/2 99/6/2
f 94/6/2 98/6/2 100/6/2
f 98/2/2 99/2/2 101/2/2
f 100/6/2 98/6/2 101/6/2
f 100/2/2 101/2/2 102/2/2
f 101/2/2 99/2/2 103/2/2
f 102/2/2 101/2/2 103/2/2
f 104/3/2 105/3/2 107/3/2
f 107/3/2 105/3/2 108/3/2
f 108/3/2 105/3/2 109/3/2
f 106/3/2 107/3/2 111/3/2
f 107/3/2 108/3/2 111/3/2
f 111/3/2 108/3/2 112/3/2
f 106/3/2 111/3/2 113/3/2
f 113/3/2 111/3/2 114/3/2
f 109/3/2 110/3/2 115/3/2
f 115/3/2 110/3/2 116/3/2
f 113/2/2 114/2/2 117/2/2
f 117/2/2 114/2/2 118/2/2
f 115/2/2 116/2/2 119/2/2
f 119/2/2 116/2/2 120/2/2
f 117/3/2 118/3/2 121/3/2
f 118/3/2 119/3/2 121/3/2
f 119/3/2 120/3/2 121/3/2
f 121/3/2 120/3/2 122/3/2
f 123/2/2 124/2/2 125/2/2
f 125/2/2 124/2/2 126/2/2
f 127/2/2 128/2/2 129/2/2
f 129/2/2 128/2/2 130/2/2
f 136/3/3 132/3/3 131/3/3
f 137/3/3 132/3/3 136/3/3
f 138/2/3 133/2/3 132/2/3
f 138/3/3 132/3/3 137/3/3
f 139/3/3 134/3/3 133/3/3
f 139/2/3 133/2/3 138/2/3
f 140/3/3 134/3/3 139/3/3
f 144/5/3 138/5/3 137/5/3
f 144/3/3 137/3/3 136/3/3
f 144/3/3 136/3/3 135/3/3
f 145/3/3 139/3/3 138/3/3
f 145/5/3 138/5/3 144/5/3
f 146/2/3 141/2/3 140/2/3
f 146/3/3 139/3/3 145/3/3
f 146/2/3 140/2/3 139/2/3
f 147/6/3 142/6/3 141/6/3
f 148/6/3 142/6/3 147/6/3
f 149/2/3 143/2/3 142/2/3
f 151/6/3 147/6/3 141/6/3
f 151/4/3 148/4/3 147/4/3
f 152/6/3 142/6/3 148/6/3
f 152/4/3 148/4/3 151/4/3
f 153/6/3 151/6/3 141/6/3
f 153/2/3 141/2/3 146/2/3
f 153/6/3 152/6/3 151/6/3
f 153/2/3 146/2/3 145/2/3
f 154/6/3 152/6/3 153/6/3
f 155/6/3 142/6/3 152/6/3
f 155/6/3 152/6/3 154/6/3
f 156/2/3 149/2/3 142/2/3
f 156/6/3 142/6/3 155/6/3
f 156/2/3 150/2/3 149/2/3
f 157/2/3 154/2/3 153/2/3
f 157/2/3 153/2/3 145/2/3
f 158/6/3 155/6/3 154/6/3
f 158/2/3 154/2/3 157/2/3
f 159/2/3 156/2/3 155/2/3
f 159/6/3 155/6/3 158/6/3
f 160/2/3 150/2/3 156/2/3
f 160/2/3 156/2/3 159/2/3
f 161/6/3 159/6/3 158/6/3
f 161/6/3 158/6/3 157/6/3
f 161/6/3 160/6/3 159/6/3
f 162/6/3 160/6/3 161/6/3
f 163/3/3 145/3/3 144/3/3
f 163/3/3 144/3/3 135/3/3
f 164/2/3 157/2/3 145/2/3
f 164/3/3 145/3/3 163/3/3
f 165/2/3 157/2/3 164/2/3
f 166/4/3 162/4/3 161/4/3
f 166/6/3 161/6/3 157/6/3
f 167/6/3 160/6/3 162/6/3
f 167/4/3 162/4/3 166/4/3
f 168/2/3 150/2/3 160/2/3
f 169/2/3 150/2/3 168/2/3
f 170/3/3 163/3/3 135/3/3
f 171/3/3 163/3/3 170/3/3
f 172/5/3 164/5/3 163/5/3
f 172/3/3 163/3/3 171/3/3
f 173/3/3 165/3/3 164/3/3
f 173/5/3 164/5/3 172/5/3
f 174/2/3 157/2/3 165/2/3
f 174/3/3 165/3/3 173/3/3
f 175/2/3 157/2/3 174/2/3
f 176/6/3 166/6/3 157/6/3
f 176/2/3 157/2/3 175/2/3
f 176/6/3 167/6/3 166/6/3
f 177/6/3 160/6/3 167/6/3
f 177/6/3 167/6/3 176/6/3
f 177/2/3 168/2/3 160/2/3
f 178/2/3 168/2/3 177/2/3
f 179/3/3 173/3/3 172/3/3
f 179/3/3 172/3/3 171/3/3
f 180/2/3 174/2/3 173/2/3
f 180/3/3 173/3/3 179/3/3
f 181/3/3 175/3/3 174/3/3
f 181/2/3 174/2/3 180/2/3
f 182/3/3 175/3/3 181/3/3
f 185/2/3 184/2/3 183/2/3
f 186/2/3 184/2/3 185/2/3
f 187/2/3 184/2/3 186/2/3
f 191/2/3 188/2/3 187/2/3
f 191/2/3 187/2/3 186/2/3
f 192/2/3 188/2/3 191/2/3
f 193/2/3 188/2/3 192/2/3
f 196/3/3 190/3/3 189/3/3
f 197/3/3 190/3/3 196/3/3
f 198/2/3 195/2/3 194/2/3
f 199/3/3 196/3/3 195/3/3
f 199/2/3 195/2/3 198/2/3
f 200/3/3 196/3/3 199/3/3
f 204/2/3 202/2/3 201/2/3
f 205/3/3 203/3/3 202/3/3
f 205/2/3 202/2/3 204/2/3
f 206/3/3 203/3/3 205/3/3
f 208/3/3 207/3/3 206/3/3
f 209/3/3 207/3/3 208/3/3
f 214/2/3 212/2/3 211/2/3
f 214/2/3 211/2/3 210/2/3
f 215/2/3 212/2/3 214/2/3
f 216/2/3 212/2/3 215/2/3
f 217/2/3 214/2/3 213/2/3
f 217/2/3 215/2/3 214/2/3
f 218/2/3 215/2/3 217/2/3
f 221/2/3 220/2/3 219/2/3
f 222/2/3 220/2/3 221/2/3
f 225/2/3 224/2/3 223/2/3
f 226/2/3 224/2/3 225/2/3
f 227/2/4 228/2/4 229/2/4
f 227/2/4 229/2/4 232/2/4
f 229/2/4 230/2/4 232/2/4
f 232/2/4 230/2/4 233/2/4
f 233/2/4 230/2/4 234/2/4
f 231/3/4 232/3/4 237/3/4
f 237/3/4 232/3/4 238/3/4
f 235/2/4 236/2/4 239/2/4
f 236/3/4 237/3/4 240/3/4
f 239/2/4 236/2/4 240/2/4
f 240/3/4 237/3/4 241/3/4
f 242/2/4 243/2/4 245/2/4
f 243/3/4 244/3/4 246/3/4
f 245/2/4 243/2/4 246/2/4
f 246/3/4 244/3/4 247/3/4
f 247/3/4 248/3/4 249/3/4
f 249/3/4 248/3/4 250/3/4
f 251/2/4 252/2/4 253/2/4
f 250/2/4 251/2/4 253/2/4
f 253/2/4 252/2/4 254/2/4
f 250/2/4 253/2/4 255/2/4
f 255/2/4 253/2/4 256/2/4
f 257/3/4 258/3/4 262/3/4
f 262/3/4 258/3/4 263/3/4
f 258/2/4 259/2/4 264/2/4
f 263/3/4 258/3/4 264/3/4
f 259/3/4 260/3/4 265/3/4
f 264/2/4 259/2/4 265/2/4
f 265/3/4 260/3/4 266/3/4
f 263/5/4 264/5/4 270/5/4
f 262/3/4 263/3/4 270/3/4
f 261/3/4 262/3/4 270/3/4
f 264/3/4 265/3/4 271/3/4
f 270/5/4 264/5/4 271/5/4
f 266/2/4 267/2/4 272/2/4
f 271/3/4 265/3/4 272/3/4
f 265/2/4 266/2/4 272/2/4
f 268/2/4 269/2/4 273/2/4
f 270/3/4 271/3/4 275/3/4
f 261/3/4 270/3/4 275/3/4
f 271/2/4 272/2/4 276/2/4
f 275/3/4 271/3/4 276/3/4
f 272/2/4 267/2/4 277/2/4
f 276/2/4 272/2/4 277/2/4
f 273/2/4 274/2/4 278/2/4
f 268/2/4 273/2/4 278/2/4
f 278/2/4 274/2/4 279/2/4
f 261/3/4 275/3/4 280/3/4
f 280/3/4 275/3/4 281/3/4
f 275/5/4 276/5/4 282/5/4
f 281/3/4 275/3/4 282/3/4
f 276/3/4 277/3/4 283/3/4
f 282/5/4 276/5/4 283/5/4
f 277/2/4 267/2/4 284/2/4
f 283/3/4 277/3/4 284/3/4
f 284/2/4 267/2/4 285/2/4
f 267/6/4 268/6/4 286/6/4
f 285/2/4 267/2/4 286/2/4
f 268/2/4 278/2/4 287/2/4
f 286/6/4 268/6/4 287/6/4
f 287/2/4 278/2/4 288/2/4
f 282/3/4 283/3/4 289/3/4
f 281/3/4 282/3/4 289/3/4
f 283/2/4 284/2/4 290/2/4
f 289/3/4 283/3/4 290/3/4
f 284/3/4 285/3/4 291/3/4
f 290/2/4 284/2/4 291/2/4
f 291/3/4 285/3/4 292/3/4
f 297/2/5 294/2/5 293/2/5
f 298/2/5 294/2/5 297/2/5
f 299/2/5 296/2/5 295/2/5
f 300/2/5 296/2/5 299/2/5
f 304/3/5 302/3/5 301/3/5
f 305/3/5 302/3/5 304/3/5
f 306/3/5 302/3/5 305/3/5
f 307/3/5 302/3/5 306/3/5
f 309/3/5 304/3/5 303/3/5
f 310/3/5 304/3/5 309/3/5
f 311/3/5 306/3/5 305/3/5
f 312/3/5 306/3/5 311/3/5
f 313/3/5 308/3/5 307/3/5
f 314/3/5 308/3/5 313/3/5
f 315/3/5 312/3/5 311/3/5
f 315/3/5 313/3/5 312/3/5
f 315/3/5 311/3/5 310/3/5
f 316/3/5 313/3/5 315/3/5
f 323/3/5 318/3/5 317/3/5
f 324/3/5 318/3/5 323/3/5
f 325/3/5 320/3/5 319/3/5
f 326/3/5 320/3/5 325/3/5
f 329/2/5 322/2/5 321/2/5
f 332/2/5 328/2/5 327/2/5
f 333/2/5 330/2/5 329/2/5
f 333/2/5 329/2/5 321/2/5
f 334/2/5 330/2/5 333/2/5
f 337/2/5 332/2/5 331/2/5
f 338/2/5 328/2/5 332/2/5
f 338/2/5 332/2/5 337/2/5
f 339/3/5 335/3/5 334/3/5
f 340/3/5 335/3/5 339/3/5
f 341/3/5 337/3/5 336/3/5
f 342/3/5 337/3/5 341/3/5
f 347/2/5 344/2/5 343/2/5
f 348/2/5 344/2/5 347/2/5
f 349/2/5 346/2/5 345/2/5
f 350/2/5 346/2/5 349/2/5
f 351/2/6 352/2/6 355/2/6
f 355/2/6 352/2/6 356/2/6
f 353/2/6 354/2/6 357/2/6
f 357/2/6 354/2/6 358/2/6
f 359/2/6 360/2/6 363/2/6
f 363/2/6 360/2/6 364/2/6
f 361/2/6 362/2/6 365/2/6
f 365/2/6 362/2/6 366/2/6
f 367/3/6 368/3/6 371/3/6
f 371/3/6 368/3/6 372/3/6
f 369/3/6 370/3/6 373/3/6
f 373/3/6 370/3/6 374/3/6
f 375/2/6 376/2/6 379/2/6
f 379/2/6 376/2/6 380/2/6
f 377/2/6 378/2/6 381/2/6
f 381/2/6 378/2/6 382/2/6
f 383/2/6 384/2/6 385/2/6
f 385/2/6 384/2/6 386/2/6
