# MagicaVoxel @ Ephtracy

# group
o 

# material
mtllib pig.mtl
usemtl palette

# normals
vn -1 0 0
vn 1 0 0
vn 0 0 1
vn 0 0 -1
vn 0 -1 0
vn 0 1 0

# texcoords
vt 0.0527344 0.5
vt 0.0566406 0.5
vt 0.0605469 0.5
vt 0.958984 0.5
vt 0.994141 0.5

# verts
v -0.4 0 0.3
v -0.4 0 0.1
v -0.4 0 -0.3
v -0.4 0 -0.5
v -0.4 0.2 0.4
v -0.4 0.2 0.3
v -0.4 0.2 0.1
v -0.4 0.2 -0.3
v -0.4 0.2 -0.5
v -0.4 0.2 -0.6
v -0.4 0.3 0.4
v -0.4 0.3 0.1
v -0.4 0.3 0
v -0.4 0.3 -0.1
v -0.4 0.3 -0.3
v -0.4 0.3 -0.6
v -0.4 0.4 0.1
v -0.4 0.4 0
v -0.4 0.4 -0.1
v -0.4 0.4 -0.3
v -0.4 0.8 -0.5
v -0.4 0.8 -0.6
v -0.4 0.9 0.4
v -0.4 0.9 -0.5
v -0.3 0.4 0.6
v -0.3 0.4 0.4
v -0.3 0.8 -0.5
v -0.3 0.8 -0.6
v -0.3 0.9 0.4
v -0.3 0.9 0.1
v -0.3 0.9 -0.5
v -0.3 0.9 -0.6
v -0.3 1.1 0.6
v -0.3 1.1 0.1
v -0.1 0.4 -0.6
v -0.1 0.4 -0.7
v -0.1 0.5 0.7
v -0.1 0.5 0.6
v -0.1 0.5 -0.6
v -0.1 0.5 -0.7
v -0.1 0.6 -0.6
v -0.1 0.6 -0.7
v -0.1 0.7 0.7
v -0.1 0.7 0.6
v 0.3 0 0.3
v 0.3 0 0.1
v 0.3 0 -0.3
v 0.3 0 -0.5
v 0.3 0.2 0.3
v 0.3 0.2 0.1
v 0.3 0.2 -0.3
v 0.3 0.2 -0.5
v -0.2 0 0.3
v -0.2 0 0.1
v -0.2 0 -0.3
v -0.2 0 -0.5
v -0.2 0.2 0.3
v -0.2 0.2 0.1
v -0.2 0.2 -0.3
v -0.2 0.2 -0.5
v 0.2 0.4 -0.6
v 0.2 0.4 -0.7
v 0.2 0.5 0.7
v 0.2 0.5 0.6
v 0.2 0.6 -0.6
v 0.2 0.6 -0.7
v 0.2 0.7 0.7
v 0.2 0.7 0.6
v 0.4 0.4 0.6
v 0.4 0.4 0.4
v 0.4 0.8 -0.5
v 0.4 0.8 -0.6
v 0.4 0.9 0.4
v 0.4 0.9 0.1
v 0.4 0.9 -0.5
v 0.4 0.9 -0.6
v 0.4 1.1 0.6
v 0.4 1.1 0.1
v 0.5 0 0.3
v 0.5 0 0.1
v 0.5 0 -0.3
v 0.5 0 -0.5
v 0.5 0.2 0.4
v 0.5 0.2 0.3
v 0.5 0.2 0.1
v 0.5 0.2 -0.3
v 0.5 0.2 -0.5
v 0.5 0.2 -0.6
v 0.5 0.3 0.4
v 0.5 0.3 0.2
v 0.5 0.3 -0.4
v 0.5 0.3 -0.6
v 0.5 0.4 0.2
v 0.5 0.4 -0.1
v 0.5 0.4 -0.3
v 0.5 0.4 -0.4
v 0.5 0.5 -0.1
v 0.5 0.5 -0.3
v 0.5 0.8 -0.5
v 0.5 0.8 -0.6
v 0.5 0.9 0.4
v 0.5 0.9 -0.5
v -0.1 0.5 0.7
v -0.1 0.7 0.7
v 0.2 0.5 0.7
v 0.2 0.7 0.7
v -0.3 0.4 0.6
v -0.3 1.1 0.6
v -0.2 0.7 0.6
v -0.2 0.9 0.6
v -0.1 0.5 0.6
v -0.1 0.7 0.6
v -0.1 0.9 0.6
v 0 0.7 0.6
v 0 0.9 0.6
v 0.1 0.7 0.6
v 0.1 0.9 0.6
v 0.2 0.5 0.6
v 0.2 0.7 0.6
v 0.2 0.9 0.6
v 0.3 0.7 0.6
v 0.3 0.9 0.6
v 0.4 0.4 0.6
v 0.4 1.1 0.6
v -0.4 0.2 0.4
v -0.4 0.3 0.4
v -0.4 0.9 0.4
v -0.3 0.4 0.4
v -0.3 0.9 0.4
v -0.1 0.3 0.4
v -0.1 0.4 0.4
v 0.2 0.3 0.4
v 0.2 0.4 0.4
v 0.4 0.4 0.4
v 0.4 0.9 0.4
v 0.5 0.2 0.4
v 0.5 0.3 0.4
v 0.5 0.9 0.4
v -0.4 0 0.3
v -0.4 0.2 0.3
v -0.2 0 0.3
v -0.2 0.2 0.3
v 0.3 0 0.3
v 0.3 0.2 0.3
v 0.5 0 0.3
v 0.5 0.2 0.3
v -0.4 0 -0.3
v -0.4 0.2 -0.3
v -0.2 0 -0.3
v -0.2 0.2 -0.3
v 0.3 0 -0.3
v 0.3 0.2 -0.3
v 0.5 0 -0.3
v 0.5 0.2 -0.3
v -0.4 0 0.1
v -0.4 0.2 0.1
v -0.3 0.9 0.1
v -0.3 1.1 0.1
v -0.2 0 0.1
v -0.2 0.2 0.1
v 0.3 0 0.1
v 0.3 0.2 0.1
v 0.4 0.9 0.1
v 0.4 1.1 0.1
v 0.5 0 0.1
v 0.5 0.2 0.1
v -0.4 0 -0.5
v -0.4 0.2 -0.5
v -0.4 0.8 -0.5
v -0.4 0.9 -0.5
v -0.3 0.8 -0.5
v -0.3 0.9 -0.5
v -0.2 0 -0.5
v -0.2 0.2 -0.5
v 0.3 0 -0.5
v 0.3 0.2 -0.5
v 0.4 0.8 -0.5
v 0.4 0.9 -0.5
v 0.5 0 -0.5
v 0.5 0.2 -0.5
v 0.5 0.8 -0.5
v 0.5 0.9 -0.5
v -0.4 0.2 -0.6
v -0.4 0.3 -0.6
v -0.4 0.8 -0.6
v -0.3 0.3 -0.6
v -0.3 0.4 -0.6
v -0.3 0.8 -0.6
v -0.3 0.9 -0.6
v -0.2 0.3 -0.6
v -0.2 0.4 -0.6
v -0.1 0.4 -0.6
v -0.1 0.5 -0.6
v -0.1 0.6 -0.6
v 0 0.3 -0.6
v 0 0.4 -0.6
v 0.2 0.4 -0.6
v 0.2 0.6 -0.6
v 0.4 0.3 -0.6
v 0.4 0.4 -0.6
v 0.4 0.8 -0.6
v 0.4 0.9 -0.6
v 0.5 0.2 -0.6
v 0.5 0.3 -0.6
v 0.5 0.8 -0.6
v -0.1 0.4 -0.7
v -0.1 0.5 -0.7
v -0.1 0.6 -0.7
v 0 0.4 -0.7
v 0 0.5 -0.7
v 0.2 0.4 -0.7
v 0.2 0.6 -0.7
v -0.4 0 0.3
v -0.2 0 0.3
v 0.3 0 0.3
v 0.5 0 0.3
v -0.4 0 0.1
v -0.2 0 0.1
v 0.3 0 0.1
v 0.5 0 0.1
v -0.4 0 -0.3
v -0.2 0 -0.3
v 0.3 0 -0.3
v 0.5 0 -0.3
v -0.4 0 -0.5
v -0.2 0 -0.5
v 0.3 0 -0.5
v 0.5 0 -0.5
v -0.4 0.2 0.4
v 0.5 0.2 0.4
v -0.4 0.2 0.3
v -0.2 0.2 0.3
v 0.3 0.2 0.3
v 0.5 0.2 0.3
v -0.4 0.2 0.1
v -0.2 0.2 0.1
v 0.3 0.2 0.1
v 0.5 0.2 0.1
v -0.4 0.2 -0.3
v -0.2 0.2 -0.3
v 0.3 0.2 -0.3
v 0.5 0.2 -0.3
v -0.4 0.2 -0.5
v -0.2 0.2 -0.5
v 0.3 0.2 -0.5
v 0.5 0.2 -0.5
v -0.4 0.2 -0.6
v 0.5 0.2 -0.6
v -0.3 0.4 0.6
v 0.4 0.4 0.6
v -0.3 0.4 0.4
v -0.1 0.4 0.4
v 0.2 0.4 0.4
v 0.4 0.4 0.4
v -0.1 0.4 -0.6
v 0 0.4 -0.6
v 0.2 0.4 -0.6
v -0.1 0.4 -0.7
v 0 0.4 -0.7
v 0.2 0.4 -0.7
v -0.1 0.5 0.7
v 0.2 0.5 0.7
v -0.1 0.5 0.6
v 0.2 0.5 0.6
v -0.1 0.6 -0.6
v 0.2 0.6 -0.6
v -0.1 0.6 -0.7
v 0.2 0.6 -0.7
v -0.1 0.7 0.7
v 0.2 0.7 0.7
v -0.1 0.7 0.6
v 0 0.7 0.6
v 0.1 0.7 0.6
v 0.2 0.7 0.6
v -0.4 0.8 -0.5
v -0.3 0.8 -0.5
v 0.4 0.8 -0.5
v 0.5 0.8 -0.5
v -0.4 0.8 -0.6
v -0.3 0.8 -0.6
v 0.4 0.8 -0.6
v 0.5 0.8 -0.6
v -0.4 0.9 0.4
v -0.3 0.9 0.4
v 0.4 0.9 0.4
v 0.5 0.9 0.4
v -0.3 0.9 0.1
v 0.4 0.9 0.1
v -0.4 0.9 -0.5
v -0.3 0.9 -0.5
v 0.4 0.9 -0.5
v 0.5 0.9 -0.5
v -0.3 0.9 -0.6
v 0.4 0.9 -0.6
v -0.3 1.1 0.6
v 0.4 1.1 0.6
v -0.3 1.1 0.1
v 0.4 1.1 0.1

# faces
f 6/3/1 2/3/1 1/3/1
f 7/3/1 2/3/1 6/3/1
f 8/3/1 4/3/1 3/3/1
f 9/3/1 4/3/1 8/3/1
f 11/3/1 7/3/1 6/3/1
f 11/3/1 10/3/1 9/3/1
f 11/3/1 9/3/1 8/3/1
f 11/3/1 8/3/1 7/3/1
f 11/3/1 6/3/1 5/3/1
f 12/3/1 10/3/1 11/3/1
f 13/3/1 10/3/1 12/3/1
f 14/3/1 10/3/1 13/3/1
f 15/3/1 10/3/1 14/3/1
f 16/3/1 10/3/1 15/3/1
f 17/1/1 12/1/1 11/1/1
f 17/3/1 13/3/1 12/3/1
f 18/1/1 14/1/1 13/1/1
f 18/3/1 13/3/1 17/3/1
f 19/3/1 15/3/1 14/3/1
f 19/1/1 14/1/1 18/1/1
f 20/1/1 16/1/1 15/1/1
f 20/3/1 15/3/1 19/3/1
f 21/1/1 19/1/1 18/1/1
f 21/1/1 16/1/1 20/1/1
f 21/1/1 20/1/1 19/1/1
f 21/1/1 18/1/1 17/1/1
f 22/1/1 16/1/1 21/1/1
f 23/1/1 17/1/1 11/1/1
f 23/1/1 21/1/1 17/1/1
f 24/1/1 21/1/1 23/1/1
f 29/1/1 26/1/1 25/1/1
f 31/1/1 28/1/1 27/1/1
f 32/1/1 28/1/1 31/1/1
f 33/1/1 30/1/1 29/1/1
f 33/1/1 29/1/1 25/1/1
f 34/1/1 30/1/1 33/1/1
f 39/3/1 36/3/1 35/3/1
f 40/3/1 36/3/1 39/3/1
f 41/1/1 40/1/1 39/1/1
f 42/1/1 40/1/1 41/1/1
f 43/2/1 38/2/1 37/2/1
f 44/2/1 38/2/1 43/2/1
f 49/3/1 46/3/1 45/3/1
f 50/3/1 46/3/1 49/3/1
f 51/3/1 48/3/1 47/3/1
f 52/3/1 48/3/1 51/3/1
f 53/3/2 54/3/2 57/3/2
f 57/3/2 54/3/2 58/3/2
f 55/3/2 56/3/2 59/3/2
f 59/3/2 56/3/2 60/3/2
f 61/1/2 62/1/2 65/1/2
f 65/1/2 62/1/2 66/1/2
f 63/2/2 64/2/2 67/2/2
f 67/2/2 64/2/2 68/2/2
f 69/1/2 70/1/2 73/1/2
f 71/1/2 72/1/2 75/1/2
f 75/1/2 72/1/2 76/1/2
f 73/1/2 74/1/2 77/1/2
f 69/1/2 73/1/2 77/1/2
f 77/1/2 74/1/2 78/1/2
f 79/3/2 80/3/2 84/3/2
f 84/3/2 80/3/2 85/3/2
f 81/3/2 82/3/2 86/3/2
f 86/3/2 82/3/2 87/3/2
f 84/3/2 85/3/2 89/3/2
f 87/3/2 88/3/2 89/3/2
f 86/3/2 87/3/2 89/3/2
f 85/3/2 86/3/2 89/3/2
f 83/3/2 84/3/2 89/3/2
f 89/3/2 88/3/2 90/3/2
f 90/3/2 88/3/2 91/3/2
f 91/3/2 88/3/2 92/3/2
f 89/1/2 90/1/2 93/1/2
f 90/3/2 91/3/2 93/3/2
f 93/3/2 91/3/2 94/3/2
f 94/3/2 91/3/2 95/3/2
f 91/1/2 92/1/2 96/1/2
f 95/3/2 91/3/2 96/3/2
f 94/3/2 95/3/2 97/3/2
f 93/1/2 94/1/2 97/1/2
f 95/1/2 96/1/2 98/1/2
f 97/3/2 95/3/2 98/3/2
f 96/1/2 92/1/2 99/1/2
f 98/1/2 96/1/2 99/1/2
f 97/1/2 98/1/2 99/1/2
f 99/1/2 92/1/2 100/1/2
f 93/1/2 97/1/2 101/1/2
f 89/1/2 93/1/2 101/1/2
f 97/1/2 99/1/2 101/1/2
f 101/1/2 99/1/2 102/1/2
f 105/2/3 104/2/3 103/2/3
f 106/2/3 104/2/3 105/2/3
f 109/1/3 108/1/3 107/1/3
f 110/1/3 108/1/3 109/1/3
f 111/1/3 109/1/3 107/1/3
f 112/4/3 110/4/3 109/4/3
f 112/1/3 109/1/3 111/1/3
f 113/1/3 108/1/3 110/1/3
f 113/4/3 110/4/3 112/4/3
f 114/5/3 113/5/3 112/5/3
f 115/1/3 108/1/3 113/1/3
f 115/5/3 113/5/3 114/5/3
f 116/1/3 115/1/3 114/1/3
f 117/1/3 108/1/3 115/1/3
f 117/1/3 115/1/3 116/1/3
f 118/1/3 111/1/3 107/1/3
f 119/5/3 117/5/3 116/5/3
f 120/1/3 108/1/3 117/1/3
f 120/5/3 117/5/3 119/5/3
f 121/1/3 119/1/3 118/1/3
f 121/4/3 120/4/3 119/4/3
f 122/1/3 108/1/3 120/1/3
f 122/4/3 120/4/3 121/4/3
f 123/1/3 121/1/3 118/1/3
f 123/1/3 118/1/3 107/1/3
f 123/1/3 122/1/3 121/1/3
f 124/1/3 108/1/3 122/1/3
f 124/1/3 122/1/3 123/1/3
f 128/1/3 127/1/3 126/1/3
f 129/1/3 127/1/3 128/1/3
f 130/3/3 126/3/3 125/3/3
f 130/1/3 128/1/3 126/1/3
f 131/1/3 128/1/3 130/1/3
f 132/3/3 130/3/3 125/3/3
f 132/3/3 131/3/3 130/3/3
f 133/3/3 131/3/3 132/3/3
f 134/1/3 133/1/3 132/1/3
f 136/3/3 132/3/3 125/3/3
f 137/1/3 134/1/3 132/1/3
f 137/3/3 132/3/3 136/3/3
f 137/1/3 135/1/3 134/1/3
f 138/1/3 135/1/3 137/1/3
f 141/3/3 140/3/3 139/3/3
f 142/3/3 140/3/3 141/3/3
f 145/3/3 144/3/3 143/3/3
f 146/3/3 144/3/3 145/3/3
f 149/3/3 148/3/3 147/3/3
f 150/3/3 148/3/3 149/3/3
f 153/3/3 152/3/3 151/3/3
f 154/3/3 152/3/3 153/3/3
f 155/3/4 156/3/4 159/3/4
f 159/3/4 156/3/4 160/3/4
f 157/1/4 158/1/4 163/1/4
f 163/1/4 158/1/4 164/1/4
f 161/3/4 162/3/4 165/3/4
f 165/3/4 162/3/4 166/3/4
f 169/1/4 170/1/4 171/1/4
f 171/1/4 170/1/4 172/1/4
f 167/3/4 168/3/4 173/3/4
f 173/3/4 168/3/4 174/3/4
f 175/3/4 176/3/4 179/3/4
f 179/3/4 176/3/4 180/3/4
f 177/1/4 178/1/4 181/1/4
f 181/1/4 178/1/4 182/1/4
f 183/3/4 184/3/4 186/3/4
f 184/1/4 185/1/4 186/1/4
f 186/1/4 185/1/4 187/1/4
f 187/1/4 185/1/4 188/1/4
f 183/3/4 186/3/4 190/3/4
f 186/3/4 187/3/4 190/3/4
f 188/1/4 189/1/4 191/1/4
f 190/3/4 187/3/4 191/3/4
f 187/1/4 188/1/4 191/1/4
f 190/1/4 191/1/4 192/1/4
f 191/1/4 189/1/4 192/1/4
f 192/1/4 189/1/4 193/1/4
f 193/1/4 189/1/4 194/1/4
f 183/3/4 190/3/4 195/3/4
f 190/1/4 192/1/4 195/1/4
f 195/1/4 192/1/4 196/1/4
f 195/3/4 196/3/4 197/3/4
f 194/1/4 189/1/4 198/1/4
f 195/3/4 197/3/4 199/3/4
f 183/3/4 195/3/4 199/3/4
f 197/1/4 198/1/4 200/1/4
f 199/3/4 197/3/4 200/3/4
f 198/1/4 189/1/4 201/1/4
f 200/1/4 198/1/4 201/1/4
f 201/1/4 189/1/4 202/1/4
f 183/3/4 199/3/4 203/3/4
f 199/1/4 200/1/4 204/1/4
f 203/3/4 199/3/4 204/3/4
f 200/1/4 201/1/4 204/1/4
f 204/1/4 201/1/4 205/1/4
f 206/3/4 207/3/4 209/3/4
f 207/1/4 208/1/4 210/1/4
f 209/3/4 207/3/4 210/3/4
f 209/1/4 210/1/4 211/1/4
f 210/1/4 208/1/4 212/1/4
f 211/1/4 210/1/4 212/1/4
f 217/3/5 214/3/5 213/3/5
f 218/3/5 214/3/5 217/3/5
f 219/3/5 216/3/5 215/3/5
f 220/3/5 216/3/5 219/3/5
f 225/3/5 222/3/5 221/3/5
f 226/3/5 222/3/5 225/3/5
f 227/3/5 224/3/5 223/3/5
f 228/3/5 224/3/5 227/3/5
f 231/3/5 230/3/5 229/3/5
f 232/3/5 230/3/5 231/3/5
f 233/3/5 230/3/5 232/3/5
f 234/3/5 230/3/5 233/3/5
f 236/3/5 233/3/5 232/3/5
f 237/3/5 233/3/5 236/3/5
f 239/3/5 236/3/5 235/3/5
f 239/3/5 238/3/5 237/3/5
f 239/3/5 237/3/5 236/3/5
f 240/3/5 238/3/5 239/3/5
f 241/3/5 238/3/5 240/3/5
f 242/3/5 238/3/5 241/3/5
f 244/3/5 241/3/5 240/3/5
f 245/3/5 241/3/5 244/3/5
f 247/3/5 244/3/5 243/3/5
f 247/3/5 246/3/5 245/3/5
f 247/3/5 245/3/5 244/3/5
f 248/3/5 246/3/5 247/3/5
f 251/1/5 250/1/5 249/1/5
f 252/1/5 250/1/5 251/1/5
f 253/1/5 250/1/5 252/1/5
f 254/1/5 250/1/5 253/1/5
f 258/3/5 256/3/5 255/3/5
f 259/1/5 257/1/5 256/1/5
f 259/3/5 256/3/5 258/3/5
f 260/1/5 257/1/5 259/1/5
f 263/2/5 262/2/5 261/2/5
f 264/2/5 262/2/5 263/2/5
f 265/1/6 266/1/6 267/1/6
f 267/1/6 266/1/6 268/1/6
f 269/2/6 270/2/6 271/2/6
f 271/2/6 270/2/6 272/2/6
f 272/2/6 270/2/6 273/2/6
f 273/2/6 270/2/6 274/2/6
f 275/1/6 276/1/6 279/1/6
f 279/1/6 276/1/6 280/1/6
f 277/1/6 278/1/6 281/1/6
f 281/1/6 278/1/6 282/1/6
f 283/1/6 284/1/6 287/1/6
f 285/1/6 286/1/6 288/1/6
f 283/1/6 287/1/6 289/1/6
f 287/1/6 288/1/6 289/1/6
f 289/1/6 288/1/6 290/1/6
f 288/1/6 286/1/6 291/1/6
f 290/1/6 288/1/6 291/1/6
f 291/1/6 286/1/6 292/1/6
f 290/1/6 291/1/6 293/1/6
f 293/1/6 291/1/6 294/1/6
f 295/1/6 296/1/6 297/1/6
f 297/1/6 296/1/6 298/1/6
