# MagicaVoxel @ Ephtracy

# group
o 

# material
mtllib pinguin.mtl
usemtl palette

# normals
vn -1 0 0
vn 1 0 0
vn 0 0 1
vn 0 0 -1
vn 0 -1 0
vn 0 1 0

# texcoords
vt 0.0605469 0.5
vt 0.185547 0.5
vt 0.958984 0.5
vt 0.994141 0.5

# verts
v -0.5 0.1 0.1
v -0.5 0.1 -0.2
v -0.5 0.2 -0.2
v -0.5 0.2 -0.3
v -0.5 0.5 0.1
v -0.5 0.5 -0.3
v -0.4 0 0.3
v -0.4 0 -0.1
v -0.4 0.1 0.3
v -0.4 0.1 0.1
v -0.4 0.1 -0.1
v -0.4 0.2 0.2
v -0.4 0.2 0.1
v -0.4 0.5 0.2
v -0.4 0.5 0.1
v -0.4 0.5 -0.3
v -0.4 0.9 0.1
v -0.4 0.9 -0.3
v -0.3 0.9 0
v -0.3 0.9 -0.3
v -0.3 1 0
v -0.3 1 -0.3
v -0.2 0.1 -0.2
v -0.2 0.1 -0.3
v -0.2 0.2 -0.2
v -0.2 0.2 -0.3
v -0.1 0.6 0.2
v -0.1 0.6 0.1
v -0.1 0.7 0.2
v -0.1 0.7 0.1
v 0.1 0 0.3
v 0.1 0 -0.1
v 0.1 0.1 0.3
v 0.1 0.1 0.1
v 0.1 0.1 0
v 0.1 0.1 -0.1
v -0.2 0 0.3
v -0.2 0 -0.1
v -0.2 0.1 0.3
v -0.2 0.1 0.1
v -0.2 0.1 0
v -0.2 0.1 -0.1
v 0 0.6 0.2
v 0 0.6 0.1
v 0 0.7 0.2
v 0 0.7 0.1
v 0.1 0.1 -0.2
v 0.1 0.1 -0.3
v 0.1 0.2 -0.2
v 0.1 0.2 -0.3
v 0.2 0.9 0
v 0.2 0.9 -0.3
v 0.2 1 0
v 0.2 1 -0.3
v 0.3 0 0.3
v 0.3 0 -0.1
v 0.3 0.1 0.3
v 0.3 0.1 0.1
v 0.3 0.1 -0.1
v 0.3 0.2 0.2
v 0.3 0.2 0.1
v 0.3 0.5 0.2
v 0.3 0.5 0.1
v 0.3 0.5 -0.3
v 0.3 0.9 0.1
v 0.3 0.9 -0.3
v 0.4 0.1 0.1
v 0.4 0.1 -0.2
v 0.4 0.2 -0.2
v 0.4 0.2 -0.3
v 0.4 0.5 0.1
v 0.4 0.5 -0.3
v -0.4 0 0.3
v -0.4 0.1 0.3
v -0.2 0 0.3
v -0.2 0.1 0.3
v 0.1 0 0.3
v 0.1 0.1 0.3
v 0.3 0 0.3
v 0.3 0.1 0.3
v -0.4 0.2 0.2
v -0.4 0.5 0.2
v -0.1 0.6 0.2
v -0.1 0.7 0.2
v 0 0.6 0.2
v 0 0.7 0.2
v 0.3 0.2 0.2
v 0.3 0.5 0.2
v -0.5 0.1 0.1
v -0.5 0.5 0.1
v -0.4 0.1 0.1
v -0.4 0.2 0.1
v -0.4 0.5 0.1
v -0.4 0.9 0.1
v -0.3 0.7 0.1
v -0.3 0.8 0.1
v -0.2 0.1 0.1
v -0.2 0.7 0.1
v -0.2 0.8 0.1
v -0.1 0.6 0.1
v -0.1 0.7 0.1
v 0 0.6 0.1
v 0 0.7 0.1
v 0.1 0.1 0.1
v 0.1 0.7 0.1
v 0.1 0.8 0.1
v 0.2 0.7 0.1
v 0.2 0.8 0.1
v 0.3 0.1 0.1
v 0.3 0.2 0.1
v 0.3 0.5 0.1
v 0.3 0.9 0.1
v 0.4 0.1 0.1
v 0.4 0.5 0.1
v -0.3 0.9 0
v -0.3 1 0
v 0.2 0.9 0
v 0.2 1 0
v -0.4 0 -0.1
v -0.4 0.1 -0.1
v -0.2 0 -0.1
v -0.2 0.1 -0.1
v 0.1 0 -0.1
v 0.1 0.1 -0.1
v 0.3 0 -0.1
v 0.3 0.1 -0.1
v -0.5 0.1 -0.2
v -0.5 0.2 -0.2
v -0.2 0.1 -0.2
v -0.2 0.2 -0.2
v 0.1 0.1 -0.2
v 0.1 0.2 -0.2
v 0.4 0.1 -0.2
v 0.4 0.2 -0.2
v -0.5 0.2 -0.3
v -0.5 0.5 -0.3
v -0.4 0.5 -0.3
v -0.4 0.9 -0.3
v -0.3 0.9 -0.3
v -0.3 1 -0.3
v -0.2 0.1 -0.3
v -0.2 0.2 -0.3
v 0.1 0.1 -0.3
v 0.1 0.2 -0.3
v 0.2 0.9 -0.3
v 0.2 1 -0.3
v 0.3 0.5 -0.3
v 0.3 0.9 -0.3
v 0.4 0.2 -0.3
v 0.4 0.5 -0.3
v -0.4 0 0.3
v -0.2 0 0.3
v 0.1 0 0.3
v 0.3 0 0.3
v -0.4 0 -0.1
v -0.2 0 -0.1
v 0.1 0 -0.1
v 0.3 0 -0.1
v -0.5 0.1 0.1
v -0.4 0.1 0.1
v -0.2 0.1 0.1
v 0.1 0.1 0.1
v 0.3 0.1 0.1
v 0.4 0.1 0.1
v -0.2 0.1 0
v 0.1 0.1 0
v -0.4 0.1 -0.1
v -0.2 0.1 -0.1
v 0.1 0.1 -0.1
v 0.3 0.1 -0.1
v -0.5 0.1 -0.2
v -0.2 0.1 -0.2
v 0.1 0.1 -0.2
v 0.4 0.1 -0.2
v -0.2 0.1 -0.3
v 0.1 0.1 -0.3
v -0.4 0.2 0.2
v 0.3 0.2 0.2
v -0.4 0.2 0.1
v 0.3 0.2 0.1
v -0.5 0.2 -0.2
v -0.2 0.2 -0.2
v 0.1 0.2 -0.2
v 0.4 0.2 -0.2
v -0.5 0.2 -0.3
v -0.2 0.2 -0.3
v 0.1 0.2 -0.3
v 0.4 0.2 -0.3
v -0.1 0.6 0.2
v 0 0.6 0.2
v -0.1 0.6 0.1
v 0 0.6 0.1
v -0.4 0.1 0.3
v -0.2 0.1 0.3
v 0.1 0.1 0.3
v 0.3 0.1 0.3
v -0.4 0.1 0.1
v -0.2 0.1 0.1
v 0.1 0.1 0.1
v 0.3 0.1 0.1
v -0.4 0.5 0.2
v 0.3 0.5 0.2
v -0.5 0.5 0.1
v -0.4 0.5 0.1
v 0.3 0.5 0.1
v 0.4 0.5 0.1
v -0.5 0.5 -0.3
v -0.4 0.5 -0.3
v 0.3 0.5 -0.3
v 0.4 0.5 -0.3
v -0.1 0.7 0.2
v 0 0.7 0.2
v -0.1 0.7 0.1
v 0 0.7 0.1
v -0.4 0.9 0.1
v 0.3 0.9 0.1
v -0.3 0.9 0
v 0.2 0.9 0
v -0.4 0.9 -0.3
v -0.3 0.9 -0.3
v 0.2 0.9 -0.3
v 0.3 0.9 -0.3
v -0.3 1 0
v 0.2 1 0
v -0.3 1 -0.3
v 0.2 1 -0.3

# faces
f 3/4/1 2/4/1 1/4/1
f 5/4/1 3/4/1 1/4/1
f 5/4/1 4/4/1 3/4/1
f 6/4/1 4/4/1 5/4/1
f 9/1/1 8/1/1 7/1/1
f 10/1/1 8/1/1 9/1/1
f 11/1/1 8/1/1 10/1/1
f 14/3/1 13/3/1 12/3/1
f 15/3/1 13/3/1 14/3/1
f 17/4/1 16/4/1 15/4/1
f 18/4/1 16/4/1 17/4/1
f 21/4/1 20/4/1 19/4/1
f 22/4/1 20/4/1 21/4/1
f 25/4/1 24/4/1 23/4/1
f 26/4/1 24/4/1 25/4/1
f 29/2/1 28/2/1 27/2/1
f 30/2/1 28/2/1 29/2/1
f 33/1/1 32/1/1 31/1/1
f 34/1/1 32/1/1 33/1/1
f 35/1/1 32/1/1 34/1/1
f 36/1/1 32/1/1 35/1/1
f 37/1/2 38/1/2 39/1/2
f 39/1/2 38/1/2 40/1/2
f 40/1/2 38/1/2 41/1/2
f 41/1/2 38/1/2 42/1/2
f 43/2/2 44/2/2 45/2/2
f 45/2/2 44/2/2 46/2/2
f 47/4/2 48/4/2 49/4/2
f 49/4/2 48/4/2 50/4/2
f 51/4/2 52/4/2 53/4/2
f 53/4/2 52/4/2 54/4/2
f 55/1/2 56/1/2 57/1/2
f 57/1/2 56/1/2 58/1/2
f 58/1/2 56/1/2 59/1/2
f 60/3/2 61/3/2 62/3/2
f 62/3/2 61/3/2 63/3/2
f 63/4/2 64/4/2 65/4/2
f 65/4/2 64/4/2 66/4/2
f 67/4/2 68/4/2 69/4/2
f 67/4/2 69/4/2 71/4/2
f 69/4/2 70/4/2 71/4/2
f 71/4/2 70/4/2 72/4/2
f 75/1/3 74/1/3 73/1/3
f 76/1/3 74/1/3 75/1/3
f 79/1/3 78/1/3 77/1/3
f 80/1/3 78/1/3 79/1/3
f 85/2/3 84/2/3 83/2/3
f 86/2/3 84/2/3 85/2/3
f 87/3/3 82/3/3 81/3/3
f 88/3/3 82/3/3 87/3/3
f 91/4/3 90/4/3 89/4/3
f 92/4/3 90/4/3 91/4/3
f 93/4/3 90/4/3 92/4/3
f 95/4/3 94/4/3 93/4/3
f 96/4/3 94/4/3 95/4/3
f 97/3/3 92/3/3 91/3/3
f 98/4/3 95/4/3 93/4/3
f 98/3/3 96/3/3 95/3/3
f 99/4/3 94/4/3 96/4/3
f 99/3/3 96/3/3 98/3/3
f 100/4/3 98/4/3 93/4/3
f 100/4/3 99/4/3 98/4/3
f 101/4/3 99/4/3 100/4/3
f 102/4/3 100/4/3 93/4/3
f 103/4/3 99/4/3 101/4/3
f 104/3/3 92/3/3 97/3/3
f 105/4/3 103/4/3 102/4/3
f 105/4/3 99/4/3 103/4/3
f 106/4/3 94/4/3 99/4/3
f 106/4/3 99/4/3 105/4/3
f 107/4/3 105/4/3 102/4/3
f 107/3/3 106/3/3 105/3/3
f 108/4/3 94/4/3 106/4/3
f 108/3/3 106/3/3 107/3/3
f 109/3/3 92/3/3 104/3/3
f 110/3/3 92/3/3 109/3/3
f 111/4/3 107/4/3 102/4/3
f 111/4/3 102/4/3 93/4/3
f 111/4/3 108/4/3 107/4/3
f 112/4/3 94/4/3 108/4/3
f 112/4/3 108/4/3 111/4/3
f 113/4/3 110/4/3 109/4/3
f 113/4/3 111/4/3 110/4/3
f 114/4/3 111/4/3 113/4/3
f 117/4/3 116/4/3 115/4/3
f 118/4/3 116/4/3 117/4/3
f 119/1/4 120/1/4 121/1/4
f 121/1/4 120/1/4 122/1/4
f 123/1/4 124/1/4 125/1/4
f 125/1/4 124/1/4 126/1/4
f 127/4/4 128/4/4 129/4/4
f 129/4/4 128/4/4 130/4/4
f 131/4/4 132/4/4 133/4/4
f 133/4/4 132/4/4 134/4/4
f 135/4/4 136/4/4 137/4/4
f 137/4/4 138/4/4 139/4/4
f 135/4/4 137/4/4 142/4/4
f 139/4/4 140/4/4 142/4/4
f 137/4/4 139/4/4 142/4/4
f 141/4/4 142/4/4 143/4/4
f 142/4/4 140/4/4 144/4/4
f 143/4/4 142/4/4 144/4/4
f 144/4/4 140/4/4 145/4/4
f 145/4/4 140/4/4 146/4/4
f 144/4/4 145/4/4 147/4/4
f 147/4/4 145/4/4 148/4/4
f 144/4/4 147/4/4 149/4/4
f 149/4/4 147/4/4 150/4/4
f 155/1/5 152/1/5 151/1/5
f 156/1/5 152/1/5 155/1/5
f 157/1/5 154/1/5 153/1/5
f 158/1/5 154/1/5 157/1/5
f 165/3/5 162/3/5 161/3/5
f 166/3/5 162/3/5 165/3/5
f 167/4/5 160/4/5 159/4/5
f 168/4/5 166/4/5 165/4/5
f 169/4/5 166/4/5 168/4/5
f 170/4/5 164/4/5 163/4/5
f 171/4/5 169/4/5 168/4/5
f 171/4/5 170/4/5 169/4/5
f 171/4/5 168/4/5 167/4/5
f 171/4/5 167/4/5 159/4/5
f 172/4/5 170/4/5 171/4/5
f 173/4/5 170/4/5 172/4/5
f 174/4/5 164/4/5 170/4/5
f 174/4/5 170/4/5 173/4/5
f 175/4/5 173/4/5 172/4/5
f 176/4/5 173/4/5 175/4/5
f 179/3/5 178/3/5 177/3/5
f 180/3/5 178/3/5 179/3/5
f 185/4/5 182/4/5 181/4/5
f 186/4/5 182/4/5 185/4/5
f 187/4/5 184/4/5 183/4/5
f 188/4/5 184/4/5 187/4/5
f 191/2/5 190/2/5 189/2/5
f 192/2/5 190/2/5 191/2/5
f 193/1/6 194/1/6 197/1/6
f 197/1/6 194/1/6 198/1/6
f 195/1/6 196/1/6 199/1/6
f 199/1/6 196/1/6 200/1/6
f 201/3/6 202/3/6 204/3/6
f 204/3/6 202/3/6 205/3/6
f 203/4/6 204/4/6 207/4/6
f 207/4/6 204/4/6 208/4/6
f 205/4/6 206/4/6 209/4/6
f 209/4/6 206/4/6 210/4/6
f 211/2/6 212/2/6 213/2/6
f 213/2/6 212/2/6 214/2/6
f 215/4/6 216/4/6 217/4/6
f 217/4/6 216/4/6 218/4/6
f 215/4/6 217/4/6 219/4/6
f 219/4/6 217/4/6 220/4/6
f 218/4/6 216/4/6 221/4/6
f 221/4/6 216/4/6 222/4/6
f 223/4/6 224/4/6 225/4/6
f 225/4/6 224/4/6 226/4/6
