# MagicaVoxel @ Ephtracy

# group
o 

# material
mtllib waterman.mtl
usemtl palette

# normals
vn -1 0 0
vn 1 0 0
vn 0 0 1
vn 0 0 -1
vn 0 -1 0
vn 0 1 0

# texcoords
vt 0.0332031 0.5
vt 0.916016 0.5
vt 0.923828 0.5
vt 0.994141 0.5

# verts
v -0.5 0.5 -0.1
v -0.5 0.5 -0.2
v -0.5 1 -0.1
v -0.5 1 -0.2
v -0.4 0 0.2
v -0.4 0 -0.3
v -0.4 0.1 0.2
v -0.4 0.1 -0.3
v -0.4 1 -0.1
v -0.4 1 -0.2
v -0.4 1.1 -0.1
v -0.4 1.1 -0.2
v -0.3 0 0.3
v -0.3 0 0.2
v -0.3 0.1 0.3
v -0.3 0.1 0.2
v -0.3 0.1 0
v -0.3 0.1 -0.2
v -0.3 0.4 0
v -0.3 0.4 -0.2
v -0.3 0.7 0
v -0.3 0.7 -0.2
v -0.3 0.7 -0.3
v -0.3 1 -0.1
v -0.3 1 -0.2
v -0.3 1.1 -0.1
v -0.3 1.1 -0.2
v -0.3 1.2 0
v -0.3 1.2 -0.3
v -0.2 1.2 0
v -0.2 1.2 -0.3
v -0.2 1.3 -0.2
v -0.2 1.3 -0.3
v -0.2 1.4 -0.1
v -0.2 1.4 -0.2
v -0.2 1.5 0
v -0.2 1.5 -0.1
v -0.2 1.6 0
v -0.2 1.6 -0.3
v 0.1 0 0.2
v 0.1 0 -0.3
v 0.1 0.1 0.2
v 0.1 0.1 -0.3
v 0.2 0 0.3
v 0.2 0 0.2
v 0.2 0.1 0.3
v 0.2 0.1 0.2
v 0.2 0.1 0
v 0.2 0.1 -0.2
v 0.2 0.4 0
v 0.2 0.4 -0.2
v 0.2 0.5 0
v 0.2 0.5 -0.2
v 0.4 0.5 -0.1
v 0.4 0.5 -0.2
v 0.4 1 -0.1
v 0.4 1 -0.2
v -0.4 0.5 -0.1
v -0.4 0.5 -0.2
v -0.4 1 -0.1
v -0.4 1 -0.2
v -0.2 0 0.3
v -0.2 0 0.2
v -0.2 0.1 0.3
v -0.2 0.1 0.2
v -0.2 0.1 0
v -0.2 0.1 -0.2
v -0.2 0.4 0
v -0.2 0.4 -0.2
v -0.2 0.5 0
v -0.2 0.5 -0.2
v -0.1 0 0.2
v -0.1 0 -0.3
v -0.1 0.1 0.2
v -0.1 0.1 -0.3
v 0.2 1.2 0
v 0.2 1.2 -0.3
v 0.2 1.3 -0.2
v 0.2 1.3 -0.3
v 0.2 1.4 -0.1
v 0.2 1.4 -0.2
v 0.2 1.5 0
v 0.2 1.5 -0.1
v 0.2 1.6 0
v 0.2 1.6 -0.3
v 0.3 0 0.3
v 0.3 0 0.2
v 0.3 0.1 0.3
v 0.3 0.1 0.2
v 0.3 0.1 0
v 0.3 0.1 -0.2
v 0.3 0.4 0
v 0.3 0.4 -0.2
v 0.3 0.7 0
v 0.3 0.7 -0.2
v 0.3 0.7 -0.3
v 0.3 1 -0.1
v 0.3 1 -0.2
v 0.3 1.1 -0.1
v 0.3 1.1 -0.2
v 0.3 1.2 0
v 0.3 1.2 -0.3
v 0.4 0 0.2
v 0.4 0 -0.3
v 0.4 0.1 0.2
v 0.4 0.1 -0.3
v 0.4 1 -0.1
v 0.4 1 -0.2
v 0.4 1.1 -0.1
v 0.4 1.1 -0.2
v 0.5 0.5 -0.1
v 0.5 0.5 -0.2
v 0.5 1 -0.1
v 0.5 1 -0.2
v -0.3 0 0.3
v -0.3 0.1 0.3
v -0.2 0 0.3
v -0.2 0.1 0.3
v 0.2 0 0.3
v 0.2 0.1 0.3
v 0.3 0 0.3
v 0.3 0.1 0.3
v -0.4 0 0.2
v -0.4 0.1 0.2
v -0.3 0 0.2
v -0.3 0.1 0.2
v -0.2 0 0.2
v -0.2 0.1 0.2
v -0.1 0 0.2
v -0.1 0.1 0.2
v 0.1 0 0.2
v 0.1 0.1 0.2
v 0.2 0 0.2
v 0.2 0.1 0.2
v 0.3 0 0.2
v 0.3 0.1 0.2
v 0.4 0 0.2
v 0.4 0.1 0.2
v -0.3 0.1 0
v -0.3 0.4 0
v -0.3 0.7 0
v -0.3 1.2 0
v -0.2 0.1 0
v -0.2 0.4 0
v -0.2 0.5 0
v -0.2 1.2 0
v -0.2 1.5 0
v -0.2 1.6 0
v 0.2 0.1 0
v 0.2 0.4 0
v 0.2 0.5 0
v 0.2 1.2 0
v 0.2 1.5 0
v 0.2 1.6 0
v 0.3 0.1 0
v 0.3 0.4 0
v 0.3 0.7 0
v 0.3 1.2 0
v -0.5 0.5 -0.1
v -0.5 1 -0.1
v -0.4 0.5 -0.1
v -0.4 1 -0.1
v -0.4 1.1 -0.1
v -0.3 1 -0.1
v -0.3 1.1 -0.1
v 0.3 1 -0.1
v 0.3 1.1 -0.1
v 0.4 0.5 -0.1
v 0.4 1 -0.1
v 0.4 1.1 -0.1
v 0.5 0.5 -0.1
v 0.5 1 -0.1
v -0.5 0.5 -0.2
v -0.5 1 -0.2
v -0.4 0.5 -0.2
v -0.4 1 -0.2
v -0.4 1.1 -0.2
v -0.3 0.1 -0.2
v -0.3 0.4 -0.2
v -0.3 0.7 -0.2
v -0.3 1 -0.2
v -0.3 1.1 -0.2
v -0.2 0.1 -0.2
v -0.2 0.4 -0.2
v -0.2 0.5 -0.2
v 0.2 0.1 -0.2
v 0.2 0.4 -0.2
v 0.2 0.5 -0.2
v 0.3 0.1 -0.2
v 0.3 0.4 -0.2
v 0.3 0.7 -0.2
v 0.3 1 -0.2
v 0.3 1.1 -0.2
v 0.4 0.5 -0.2
v 0.4 1 -0.2
v 0.4 1.1 -0.2
v 0.5 0.5 -0.2
v 0.5 1 -0.2
v -0.4 0 -0.3
v -0.4 0.1 -0.3
v -0.3 0.7 -0.3
v -0.3 1.2 -0.3
v -0.2 1.2 -0.3
v -0.2 1.3 -0.3
v -0.2 1.6 -0.3
v -0.1 0 -0.3
v -0.1 0.1 -0.3
v 0.1 0 -0.3
v 0.1 0.1 -0.3
v 0.2 1.2 -0.3
v 0.2 1.3 -0.3
v 0.2 1.6 -0.3
v 0.3 0.7 -0.3
v 0.3 1.2 -0.3
v 0.4 0 -0.3
v 0.4 0.1 -0.3
v -0.3 0 0.3
v -0.2 0 0.3
v 0.2 0 0.3
v 0.3 0 0.3
v -0.4 0 0.2
v -0.3 0 0.2
v -0.2 0 0.2
v -0.1 0 0.2
v 0.1 0 0.2
v 0.2 0 0.2
v 0.3 0 0.2
v 0.4 0 0.2
v -0.4 0 -0.3
v -0.1 0 -0.3
v 0.1 0 -0.3
v 0.4 0 -0.3
v -0.2 0.5 0
v 0.2 0.5 0
v -0.5 0.5 -0.1
v -0.4 0.5 -0.1
v 0.4 0.5 -0.1
v 0.5 0.5 -0.1
v -0.5 0.5 -0.2
v -0.4 0.5 -0.2
v -0.2 0.5 -0.2
v 0.2 0.5 -0.2
v 0.4 0.5 -0.2
v 0.5 0.5 -0.2
v -0.3 0.7 -0.2
v 0.3 0.7 -0.2
v -0.3 0.7 -0.3
v 0.3 0.7 -0.3
v -0.4 1 -0.1
v -0.3 1 -0.1
v 0.3 1 -0.1
v 0.4 1 -0.1
v -0.4 1 -0.2
v -0.3 1 -0.2
v 0.3 1 -0.2
v 0.4 1 -0.2
v -0.3 0.1 0.3
v -0.2 0.1 0.3
v 0.2 0.1 0.3
v 0.3 0.1 0.3
v -0.4 0.1 0.2
v -0.3 0.1 0.2
v -0.2 0.1 0.2
v -0.1 0.1 0.2
v 0.1 0.1 0.2
v 0.2 0.1 0.2
v 0.3 0.1 0.2
v 0.4 0.1 0.2
v -0.3 0.1 0
v -0.2 0.1 0
v 0.2 0.1 0
v 0.3 0.1 0
v -0.3 0.1 -0.2
v -0.2 0.1 -0.2
v 0.2 0.1 -0.2
v 0.3 0.1 -0.2
v -0.4 0.1 -0.3
v -0.1 0.1 -0.3
v 0.1 0.1 -0.3
v 0.4 0.1 -0.3
v -0.5 1 -0.1
v -0.4 1 -0.1
v 0.4 1 -0.1
v 0.5 1 -0.1
v -0.5 1 -0.2
v -0.4 1 -0.2
v 0.4 1 -0.2
v 0.5 1 -0.2
v -0.4 1.1 -0.1
v -0.3 1.1 -0.1
v 0.3 1.1 -0.1
v 0.4 1.1 -0.1
v -0.4 1.1 -0.2
v -0.3 1.1 -0.2
v 0.3 1.1 -0.2
v 0.4 1.1 -0.2
v -0.3 1.2 0
v -0.2 1.2 0
v 0.2 1.2 0
v 0.3 1.2 0
v -0.3 1.2 -0.3
v -0.2 1.2 -0.3
v 0.2 1.2 -0.3
v 0.3 1.2 -0.3
v -0.2 1.6 0
v 0.2 1.6 0
v -0.2 1.6 -0.3
v 0.2 1.6 -0.3

# faces
f 3/1/1 2/1/1 1/1/1
f 4/1/1 2/1/1 3/1/1
f 7/4/1 6/4/1 5/4/1
f 8/4/1 6/4/1 7/4/1
f 11/1/1 10/1/1 9/1/1
f 12/1/1 10/1/1 11/1/1
f 15/4/1 14/4/1 13/4/1
f 16/4/1 14/4/1 15/4/1
f 19/1/1 18/1/1 17/1/1
f 20/1/1 18/1/1 19/1/1
f 21/3/1 20/3/1 19/3/1
f 22/3/1 20/3/1 21/3/1
f 24/1/1 22/1/1 21/1/1
f 24/1/1 23/1/1 22/1/1
f 25/1/1 23/1/1 24/1/1
f 26/1/1 24/1/1 21/1/1
f 27/1/1 23/1/1 25/1/1
f 28/1/1 26/1/1 21/1/1
f 28/1/1 27/1/1 26/1/1
f 29/1/1 23/1/1 27/1/1
f 29/1/1 27/1/1 28/1/1
f 32/1/1 31/1/1 30/1/1
f 33/1/1 31/1/1 32/1/1
f 34/1/1 32/1/1 30/1/1
f 35/2/1 33/2/1 32/2/1
f 35/1/1 32/1/1 34/1/1
f 36/1/1 34/1/1 30/1/1
f 37/2/1 35/2/1 34/2/1
f 37/1/1 34/1/1 36/1/1
f 38/2/1 37/2/1 36/2/1
f 39/2/1 33/2/1 35/2/1
f 39/2/1 37/2/1 38/2/1
f 39/2/1 35/2/1 37/2/1
f 42/4/1 41/4/1 40/4/1
f 43/4/1 41/4/1 42/4/1
f 46/4/1 45/4/1 44/4/1
f 47/4/1 45/4/1 46/4/1
f 50/1/1 49/1/1 48/1/1
f 51/1/1 49/1/1 50/1/1
f 52/3/1 51/3/1 50/3/1
f 53/3/1 51/3/1 52/3/1
f 56/1/1 55/1/1 54/1/1
f 57/1/1 55/1/1 56/1/1
f 58/1/2 59/1/2 60/1/2
f 60/1/2 59/1/2 61/1/2
f 62/4/2 63/4/2 64/4/2
f 64/4/2 63/4/2 65/4/2
f 66/1/2 67/1/2 68/1/2
f 68/1/2 67/1/2 69/1/2
f 68/3/2 69/3/2 70/3/2
f 70/3/2 69/3/2 71/3/2
f 72/4/2 73/4/2 74/4/2
f 74/4/2 73/4/2 75/4/2
f 76/1/2 77/1/2 78/1/2
f 78/1/2 77/1/2 79/1/2
f 76/1/2 78/1/2 80/1/2
f 78/2/2 79/2/2 81/2/2
f 80/1/2 78/1/2 81/1/2
f 76/1/2 80/1/2 82/1/2
f 80/2/2 81/2/2 83/2/2
f 82/1/2 80/1/2 83/1/2
f 82/2/2 83/2/2 84/2/2
f 81/2/2 79/2/2 85/2/2
f 84/2/2 83/2/2 85/2/2
f 83/2/2 81/2/2 85/2/2
f 86/4/2 87/4/2 88/4/2
f 88/4/2 87/4/2 89/4/2
f 90/1/2 91/1/2 92/1/2
f 92/1/2 91/1/2 93/1/2
f 92/3/2 93/3/2 94/3/2
f 94/3/2 93/3/2 95/3/2
f 94/1/2 95/1/2 97/1/2
f 95/1/2 96/1/2 97/1/2
f 97/1/2 96/1/2 98/1/2
f 94/1/2 97/1/2 99/1/2
f 98/1/2 96/1/2 100/1/2
f 94/1/2 99/1/2 101/1/2
f 99/1/2 100/1/2 101/1/2
f 100/1/2 96/1/2 102/1/2
f 101/1/2 100/1/2 102/1/2
f 103/4/2 104/4/2 105/4/2
f 105/4/2 104/4/2 106/4/2
f 107/1/2 108/1/2 109/1/2
f 109/1/2 108/1/2 110/1/2
f 111/1/2 112/1/2 113/1/2
f 113/1/2 112/1/2 114/1/2
f 117/4/3 116/4/3 115/4/3
f 118/4/3 116/4/3 117/4/3
f 121/4/3 120/4/3 119/4/3
f 122/4/3 120/4/3 121/4/3
f 125/4/3 124/4/3 123/4/3
f 126/4/3 124/4/3 125/4/3
f 129/4/3 128/4/3 127/4/3
f 130/4/3 128/4/3 129/4/3
f 133/4/3 132/4/3 131/4/3
f 134/4/3 132/4/3 133/4/3
f 137/4/3 136/4/3 135/4/3
f 138/4/3 136/4/3 137/4/3
f 143/1/3 140/1/3 139/1/3
f 144/3/3 141/3/3 140/3/3
f 144/1/3 140/1/3 143/1/3
f 145/3/3 141/3/3 144/3/3
f 146/1/3 142/1/3 141/1/3
f 151/3/3 141/3/3 145/3/3
f 152/1/3 147/1/3 146/1/3
f 152/1/3 146/1/3 141/1/3
f 153/2/3 148/2/3 147/2/3
f 153/1/3 147/1/3 152/1/3
f 154/2/3 148/2/3 153/2/3
f 155/1/3 150/1/3 149/1/3
f 156/3/3 151/3/3 150/3/3
f 156/1/3 150/1/3 155/1/3
f 157/1/3 152/1/3 141/1/3
f 157/3/3 151/3/3 156/3/3
f 157/3/3 141/3/3 151/3/3
f 158/1/3 152/1/3 157/1/3
f 161/1/3 160/1/3 159/1/3
f 162/1/3 160/1/3 161/1/3
f 164/1/3 163/1/3 162/1/3
f 165/1/3 163/1/3 164/1/3
f 169/1/3 167/1/3 166/1/3
f 170/1/3 167/1/3 169/1/3
f 171/1/3 169/1/3 168/1/3
f 172/1/3 169/1/3 171/1/3
f 173/1/4 174/1/4 175/1/4
f 175/1/4 174/1/4 176/1/4
f 176/1/4 177/1/4 181/1/4
f 181/1/4 177/1/4 182/1/4
f 178/1/4 179/1/4 183/1/4
f 179/3/4 180/3/4 184/3/4
f 183/1/4 179/1/4 184/1/4
f 184/3/4 180/3/4 185/3/4
f 185/3/4 180/3/4 188/3/4
f 186/1/4 187/1/4 189/1/4
f 187/3/4 188/3/4 190/3/4
f 189/1/4 187/1/4 190/1/4
f 188/3/4 180/3/4 191/3/4
f 190/3/4 188/3/4 191/3/4
f 192/1/4 193/1/4 195/1/4
f 195/1/4 193/1/4 196/1/4
f 194/1/4 195/1/4 197/1/4
f 197/1/4 195/1/4 198/1/4
f 201/1/4 202/1/4 203/1/4
f 199/4/4 200/4/4 206/4/4
f 206/4/4 200/4/4 207/4/4
f 201/1/4 203/1/4 210/1/4
f 203/1/4 204/1/4 210/1/4
f 204/2/4 205/2/4 211/2/4
f 210/1/4 204/1/4 211/1/4
f 211/2/4 205/2/4 212/2/4
f 201/1/4 210/1/4 213/1/4
f 213/1/4 210/1/4 214/1/4
f 208/4/4 209/4/4 215/4/4
f 215/4/4 209/4/4 216/4/4
f 222/4/5 218/4/5 217/4/5
f 223/4/5 218/4/5 222/4/5
f 226/4/5 220/4/5 219/4/5
f 227/4/5 220/4/5 226/4/5
f 229/4/5 224/4/5 223/4/5
f 229/4/5 222/4/5 221/4/5
f 229/4/5 223/4/5 222/4/5
f 230/4/5 224/4/5 229/4/5
f 231/4/5 228/4/5 227/4/5
f 231/4/5 227/4/5 226/4/5
f 231/4/5 226/4/5 225/4/5
f 232/4/5 228/4/5 231/4/5
f 239/1/5 236/1/5 235/1/5
f 240/1/5 236/1/5 239/1/5
f 241/3/5 234/3/5 233/3/5
f 242/3/5 234/3/5 241/3/5
f 243/1/5 238/1/5 237/1/5
f 244/1/5 238/1/5 243/1/5
f 247/1/5 246/1/5 245/1/5
f 248/1/5 246/1/5 247/1/5
f 253/1/5 250/1/5 249/1/5
f 254/1/5 250/1/5 253/1/5
f 255/1/5 252/1/5 251/1/5
f 256/1/5 252/1/5 255/1/5
f 257/4/6 258/4/6 262/4/6
f 262/4/6 258/4/6 263/4/6
f 259/4/6 260/4/6 266/4/6
f 266/4/6 260/4/6 267/4/6
f 263/4/6 264/4/6 269/4/6
f 261/4/6 262/4/6 269/4/6
f 262/4/6 263/4/6 269/4/6
f 269/4/6 264/4/6 270/4/6
f 267/4/6 268/4/6 271/4/6
f 266/4/6 267/4/6 271/4/6
f 265/4/6 266/4/6 271/4/6
f 271/4/6 268/4/6 272/4/6
f 261/4/6 269/4/6 273/4/6
f 270/4/6 264/4/6 274/4/6
f 265/4/6 271/4/6 275/4/6
f 272/4/6 268/4/6 276/4/6
f 261/4/6 273/4/6 277/4/6
f 273/4/6 274/4/6 277/4/6
f 274/4/6 264/4/6 278/4/6
f 277/4/6 274/4/6 278/4/6
f 275/4/6 276/4/6 279/4/6
f 265/4/6 275/4/6 279/4/6
f 276/4/6 268/4/6 280/4/6
f 279/4/6 276/4/6 280/4/6
f 281/1/6 282/1/6 285/1/6
f 285/1/6 282/1/6 286/1/6
f 283/1/6 284/1/6 287/1/6
f 287/1/6 284/1/6 288/1/6
f 289/1/6 290/1/6 293/1/6
f 293/1/6 290/1/6 294/1/6
f 291/1/6 292/1/6 295/1/6
f 295/1/6 292/1/6 296/1/6
f 297/1/6 298/1/6 301/1/6
f 301/1/6 298/1/6 302/1/6
f 299/1/6 300/1/6 303/1/6
f 303/1/6 300/1/6 304/1/6
f 305/2/6 306/2/6 307/2/6
f 307/2/6 306/2/6 308/2/6
