# MagicaVoxel @ Ephtracy

# group
o 

# material
mtllib wolf.mtl
usemtl palette

# normals
vn -1 0 0
vn 1 0 0
vn 0 0 1
vn 0 0 -1
vn 0 -1 0
vn 0 1 0

# texcoords
vt 0.982422 0.5
vt 0.986328 0.5
vt 0.994141 0.5

# verts
v -0.2 0 0.4
v -0.2 0 0.3
v -0.2 0 -0.3
v -0.2 0 -0.4
v -0.2 0.1 0.4
v -0.2 0.1 0.3
v -0.2 0.2 -0.2
v -0.2 0.2 -0.3
v -0.2 0.3 -0.3
v -0.2 0.3 -0.4
v -0.2 0.4 0.3
v -0.2 0.4 0.1
v -0.2 0.4 0
v -0.2 0.4 -0.2
v -0.2 0.5 0.3
v -0.2 0.5 0.1
v -0.2 0.5 0
v -0.2 0.5 -0.3
v -0.2 0.5 -0.4
v -0.2 0.6 0.5
v -0.2 0.6 0.4
v -0.2 0.6 0.3
v -0.2 0.6 0.1
v -0.2 0.7 0
v -0.2 0.7 -0.4
v -0.2 0.8 0.7
v -0.2 0.8 0.5
v -0.2 0.8 0.3
v -0.2 0.8 0.2
v -0.2 0.8 0
v -0.2 1 0.7
v -0.2 1 0.6
v -0.2 1 0.5
v -0.2 1 0.4
v -0.2 1 0.3
v -0.2 1 0.2
v -0.2 1.1 0.6
v -0.2 1.1 0.5
v -0.2 1.1 0.4
v -0.2 1.1 0.3
v -0.2 1.3 0.4
v -0.2 1.3 0.2
v -0.1 0.3 -0.6
v -0.1 0.3 -0.7
v -0.1 0.4 -0.5
v -0.1 0.4 -0.6
v -0.1 0.4 -0.7
v -0.1 0.5 -0.4
v -0.1 0.5 -0.5
v -0.1 0.5 -0.6
v -0.1 0.6 -0.4
v -0.1 0.6 -0.5
v 0.1 0 0.4
v 0.1 0 0.3
v 0.1 0 -0.3
v 0.1 0 -0.4
v 0.1 0.2 0.4
v 0.1 0.2 0.3
v 0.1 0.2 -0.2
v 0.1 0.2 -0.3
v 0.1 0.4 0.4
v 0.1 0.4 0.3
v 0.1 0.4 -0.2
v 0.1 0.4 -0.4
v 0.1 1.2 0.4
v 0.1 1.2 0.3
v 0.1 1.2 0.2
v 0.1 1.3 0.4
v 0.1 1.3 0.3
v 0.1 1.3 0.2
v -0.1 0 0.4
v -0.1 0 0.3
v -0.1 0 -0.3
v -0.1 0 -0.4
v -0.1 0.1 0.4
v -0.1 0.1 0.3
v -0.1 0.2 -0.2
v -0.1 0.2 -0.3
v -0.1 0.3 -0.3
v -0.1 0.3 -0.4
v -0.1 0.4 0.4
v -0.1 0.4 0.3
v -0.1 0.4 -0.2
v -0.1 0.4 -0.3
v -0.1 0.4 -0.4
v -0.1 1.2 0.4
v -0.1 1.2 0.2
v -0.1 1.3 0.4
v -0.1 1.3 0.2
v 0.1 0.3 -0.6
v 0.1 0.3 -0.7
v 0.1 0.4 -0.5
v 0.1 0.4 -0.6
v 0.1 0.4 -0.7
v 0.1 0.5 -0.4
v 0.1 0.5 -0.5
v 0.1 0.5 -0.6
v 0.1 0.6 -0.4
v 0.1 0.6 -0.5
v 0.2 0 0.4
v 0.2 0 0.3
v 0.2 0 -0.3
v 0.2 0 -0.4
v 0.2 0.2 0.4
v 0.2 0.2 0.3
v 0.2 0.2 -0.2
v 0.2 0.2 -0.3
v 0.2 0.4 0.4
v 0.2 0.4 0.3
v 0.2 0.4 -0.2
v 0.2 0.6 0.5
v 0.2 0.6 0.4
v 0.2 0.6 0.2
v 0.2 0.6 -0.2
v 0.2 0.7 0.3
v 0.2 0.7 0.2
v 0.2 0.7 0
v 0.2 0.7 -0.2
v 0.2 0.7 -0.4
v 0.2 0.8 0.7
v 0.2 0.8 0.5
v 0.2 0.8 0.3
v 0.2 0.8 0.2
v 0.2 0.8 0
v 0.2 1 0.7
v 0.2 1 0.6
v 0.2 1 0.5
v 0.2 1.1 0.6
v 0.2 1.1 0.5
v 0.2 1.1 0.4
v 0.2 1.1 0.3
v 0.2 1.1 0.2
v 0.2 1.3 0.4
v 0.2 1.3 0.3
v 0.2 1.3 0.2
v -0.2 0.8 0.7
v -0.2 1 0.7
v -0.1 0.9 0.7
v -0.1 1 0.7
v 0.1 0.9 0.7
v 0.1 1 0.7
v 0.2 0.8 0.7
v 0.2 1 0.7
v -0.2 1 0.6
v -0.2 1.1 0.6
v -0.1 1 0.6
v -0.1 1.1 0.6
v 0.1 1 0.6
v 0.1 1.1 0.6
v 0.2 1 0.6
v 0.2 1.1 0.6
v -0.2 0.6 0.5
v -0.2 0.8 0.5
v 0.2 0.6 0.5
v 0.2 0.8 0.5
v -0.2 0 0.4
v -0.2 0.1 0.4
v -0.2 0.6 0.4
v -0.2 1.1 0.4
v -0.2 1.3 0.4
v -0.1 0 0.4
v -0.1 0.1 0.4
v -0.1 0.4 0.4
v -0.1 1.2 0.4
v -0.1 1.3 0.4
v 0.1 0 0.4
v 0.1 0.2 0.4
v 0.1 0.4 0.4
v 0.1 1.2 0.4
v 0.1 1.3 0.4
v 0.2 0 0.4
v 0.2 0.2 0.4
v 0.2 0.4 0.4
v 0.2 0.6 0.4
v 0.2 1.1 0.4
v 0.2 1.3 0.4
v -0.2 0.2 -0.2
v -0.2 0.4 -0.2
v -0.1 0.2 -0.2
v -0.1 0.4 -0.2
v 0.1 0.2 -0.2
v 0.1 0.4 -0.2
v 0.2 0.2 -0.2
v 0.2 0.4 -0.2
v -0.2 0 -0.3
v -0.2 0.2 -0.3
v -0.1 0 -0.3
v -0.1 0.2 -0.3
v 0.1 0 -0.3
v 0.1 0.2 -0.3
v 0.2 0 -0.3
v 0.2 0.2 -0.3
v -0.1 0.4 -0.5
v -0.1 0.5 -0.5
v 0 0.4 -0.5
v 0 0.5 -0.5
v 0.1 0.4 -0.5
v 0.1 0.5 -0.5
v -0.1 0.3 -0.6
v -0.1 0.4 -0.6
v 0 0.3 -0.6
v 0 0.4 -0.6
v 0.1 0.3 -0.6
v 0.1 0.4 -0.6
v -0.2 0 0.3
v -0.2 0.1 0.3
v -0.2 0.4 0.3
v -0.1 0 0.3
v -0.1 0.1 0.3
v -0.1 0.4 0.3
v 0.1 0 0.3
v 0.1 0.2 0.3
v 0.1 0.4 0.3
v 0.2 0 0.3
v 0.2 0.2 0.3
v 0.2 0.4 0.3
v -0.2 0.8 0.2
v -0.2 1 0.2
v -0.2 1.3 0.2
v -0.1 0.8 0.2
v -0.1 1 0.2
v -0.1 1.2 0.2
v -0.1 1.3 0.2
v 0.1 1.1 0.2
v 0.1 1.2 0.2
v 0.1 1.3 0.2
v 0.2 0.8 0.2
v 0.2 1.1 0.2
v 0.2 1.3 0.2
v -0.2 0.7 0
v -0.2 0.8 0
v 0.1 0.7 0
v 0.2 0.7 0
v 0.2 0.8 0
v -0.2 0 -0.4
v -0.2 0.3 -0.4
v -0.2 0.5 -0.4
v -0.2 0.7 -0.4
v -0.1 0 -0.4
v -0.1 0.3 -0.4
v -0.1 0.4 -0.4
v -0.1 0.5 -0.4
v -0.1 0.6 -0.4
v 0 0.5 -0.4
v 0 0.6 -0.4
v 0.1 0 -0.4
v 0.1 0.4 -0.4
v 0.1 0.5 -0.4
v 0.1 0.6 -0.4
v 0.2 0 -0.4
v 0.2 0.7 -0.4
v -0.1 0.5 -0.5
v -0.1 0.6 -0.5
v 0 0.5 -0.5
v 0 0.6 -0.5
v 0.1 0.5 -0.5
v 0.1 0.6 -0.5
v -0.1 0.4 -0.6
v -0.1 0.5 -0.6
v 0 0.4 -0.6
v 0 0.5 -0.6
v 0.1 0.4 -0.6
v 0.1 0.5 -0.6
v -0.1 0.3 -0.7
v -0.1 0.4 -0.7
v 0 0.3 -0.7
v 0 0.4 -0.7
v 0.1 0.3 -0.7
v 0.1 0.4 -0.7
v -0.2 0 0.4
v -0.1 0 0.4
v 0.1 0 0.4
v 0.2 0 0.4
v -0.2 0 0.3
v -0.1 0 0.3
v 0.1 0 0.3
v 0.2 0 0.3
v -0.2 0 -0.3
v -0.1 0 -0.3
v 0.1 0 -0.3
v 0.2 0 -0.3
v -0.2 0 -0.4
v -0.1 0 -0.4
v 0.1 0 -0.4
v 0.2 0 -0.4
v -0.2 0.2 -0.2
v -0.1 0.2 -0.2
v 0.1 0.2 -0.2
v 0.2 0.2 -0.2
v -0.2 0.2 -0.3
v -0.1 0.2 -0.3
v 0.1 0.2 -0.3
v 0.2 0.2 -0.3
v -0.1 0.3 -0.6
v 0 0.3 -0.6
v 0.1 0.3 -0.6
v -0.1 0.3 -0.7
v 0 0.3 -0.7
v 0.1 0.3 -0.7
v -0.1 0.4 0.4
v 0.1 0.4 0.4
v -0.2 0.4 0.3
v -0.1 0.4 0.3
v 0.1 0.4 0.3
v 0.2 0.4 0.3
v -0.2 0.4 0.1
v -0.1 0.4 0.1
v -0.2 0.4 0
v -0.1 0.4 0
v -0.2 0.4 -0.2
v -0.1 0.4 -0.2
v 0.1 0.4 -0.2
v 0.2 0.4 -0.2
v -0.1 0.4 -0.3
v -0.1 0.4 -0.4
v 0.1 0.4 -0.4
v -0.1 0.4 -0.5
v 0 0.4 -0.5
v 0.1 0.4 -0.5
v -0.1 0.4 -0.6
v 0 0.4 -0.6
v 0.1 0.4 -0.6
v -0.1 0.5 -0.4
v 0 0.5 -0.4
v 0.1 0.5 -0.4
v -0.1 0.5 -0.5
v 0 0.5 -0.5
v 0.1 0.5 -0.5
v -0.2 0.6 0.5
v 0.2 0.6 0.5
v -0.2 0.6 0.4
v 0.2 0.6 0.4
v -0.2 0.8 0.7
v 0.2 0.8 0.7
v -0.2 0.8 0.5
v 0.2 0.8 0.5
v -0.1 0.4 -0.6
v 0 0.4 -0.6
v 0.1 0.4 -0.6
v -0.1 0.4 -0.7
v 0 0.4 -0.7
v 0.1 0.4 -0.7
v -0.1 0.5 -0.5
v 0 0.5 -0.5
v 0.1 0.5 -0.5
v -0.1 0.5 -0.6
v 0 0.5 -0.6
v 0.1 0.5 -0.6
v -0.1 0.6 -0.4
v 0 0.6 -0.4
v 0.1 0.6 -0.4
v -0.1 0.6 -0.5
v 0 0.6 -0.5
v 0.1 0.6 -0.5
v -0.2 0.7 0
v 0.1 0.7 0
v 0.2 0.7 0
v 0.1 0.7 -0.2
v 0.2 0.7 -0.2
v -0.2 0.7 -0.4
v 0.2 0.7 -0.4
v -0.2 0.8 0.2
v -0.1 0.8 0.2
v 0.2 0.8 0.2
v -0.2 0.8 0
v 0.2 0.8 0
v -0.2 1 0.7
v -0.1 1 0.7
v 0.1 1 0.7
v 0.2 1 0.7
v -0.2 1 0.6
v -0.1 1 0.6
v 0.1 1 0.6
v 0.2 1 0.6
v -0.2 1.1 0.6
v -0.1 1.1 0.6
v 0.1 1.1 0.6
v 0.2 1.1 0.6
v -0.2 1.1 0.5
v -0.1 1.1 0.5
v 0.1 1.1 0.5
v 0.2 1.1 0.5
v -0.2 1.1 0.4
v 0.2 1.1 0.4
v -0.1 1.2 0.4
v 0.1 1.2 0.4
v 0.1 1.2 0.3
v -0.1 1.2 0.2
v 0.1 1.2 0.2
v -0.2 1.3 0.4
v -0.1 1.3 0.4
v 0.1 1.3 0.4
v 0.2 1.3 0.4
v 0.1 1.3 0.3
v 0.2 1.3 0.3
v -0.2 1.3 0.2
v -0.1 1.3 0.2
v 0.1 1.3 0.2
v 0.2 1.3 0.2

# faces
f 5/2/1 2/2/1 1/2/1
f 6/2/1 2/2/1 5/2/1
f 8/1/1 4/1/1 3/1/1
f 9/1/1 4/1/1 8/1/1
f 9/1/1 8/1/1 7/1/1
f 10/1/1 4/1/1 9/1/1
f 11/1/1 6/1/1 5/1/1
f 14/1/1 9/1/1 7/1/1
f 15/1/1 11/1/1 5/1/1
f 15/1/1 12/1/1 11/1/1
f 16/2/1 13/2/1 12/2/1
f 16/1/1 12/1/1 15/1/1
f 17/1/1 14/1/1 13/1/1
f 17/2/1 13/2/1 16/2/1
f 18/2/1 10/2/1 9/2/1
f 18/1/1 14/1/1 17/1/1
f 18/1/1 9/1/1 14/1/1
f 19/2/1 10/2/1 18/2/1
f 21/1/1 15/1/1 5/1/1
f 22/2/1 16/2/1 15/2/1
f 22/1/1 15/1/1 21/1/1
f 23/1/1 17/1/1 16/1/1
f 23/2/1 16/2/1 22/2/1
f 23/1/1 18/1/1 17/1/1
f 23/1/1 19/1/1 18/1/1
f 24/1/1 22/1/1 21/1/1
f 24/1/1 19/1/1 23/1/1
f 24/1/1 23/1/1 22/1/1
f 24/1/1 21/1/1 20/1/1
f 25/1/1 19/1/1 24/1/1
f 27/1/1 24/1/1 20/1/1
f 28/1/1 24/1/1 27/1/1
f 29/1/1 24/1/1 28/1/1
f 30/1/1 24/1/1 29/1/1
f 31/1/1 27/1/1 26/1/1
f 31/1/1 28/1/1 27/1/1
f 32/1/1 28/1/1 31/1/1
f 33/1/1 28/1/1 32/1/1
f 34/1/1 28/1/1 33/1/1
f 35/2/1 29/2/1 28/2/1
f 35/1/1 28/1/1 34/1/1
f 36/2/1 29/2/1 35/2/1
f 37/3/1 33/3/1 32/3/1
f 38/1/1 34/1/1 33/1/1
f 38/3/1 33/3/1 37/3/1
f 39/2/1 35/2/1 34/2/1
f 39/1/1 34/1/1 38/1/1
f 40/1/1 36/1/1 35/1/1
f 40/2/1 35/2/1 39/2/1
f 41/1/1 40/1/1 39/1/1
f 42/1/1 36/1/1 40/1/1
f 42/1/1 40/1/1 41/1/1
f 46/1/1 44/1/1 43/1/1
f 47/1/1 44/1/1 46/1/1
f 49/2/1 46/2/1 45/2/1
f 50/2/1 46/2/1 49/2/1
f 51/2/1 49/2/1 48/2/1
f 52/2/1 49/2/1 51/2/1
f 57/1/1 54/1/1 53/1/1
f 58/1/1 54/1/1 57/1/1
f 60/1/1 56/1/1 55/1/1
f 61/2/1 58/2/1 57/2/1
f 62/2/1 58/2/1 61/2/1
f 63/1/1 60/1/1 59/1/1
f 64/1/1 56/1/1 60/1/1
f 64/1/1 60/1/1 63/1/1
f 68/1/1 66/1/1 65/1/1
f 69/2/1 67/2/1 66/2/1
f 69/1/1 66/1/1 68/1/1
f 70/2/1 67/2/1 69/2/1
f 71/2/2 72/2/2 75/2/2
f 75/2/2 72/2/2 76/2/2
f 73/1/2 74/1/2 78/1/2
f 78/1/2 74/1/2 79/1/2
f 77/1/2 78/1/2 79/1/2
f 79/1/2 74/1/2 80/1/2
f 75/1/2 76/1/2 81/1/2
f 81/1/2 76/1/2 82/1/2
f 77/1/2 79/1/2 83/1/2
f 79/2/2 80/2/2 84/2/2
f 83/1/2 79/1/2 84/1/2
f 84/2/2 80/2/2 85/2/2
f 86/1/2 87/1/2 88/1/2
f 88/1/2 87/1/2 89/1/2
f 90/2/2 91/2/2 93/2/2
f 93/2/2 91/2/2 94/2/2
f 92/1/2 93/1/2 96/1/2
f 96/1/2 93/1/2 97/1/2
f 95/1/2 96/1/2 98/1/2
f 98/1/2 96/1/2 99/1/2
f 100/1/2 101/1/2 104/1/2
f 104/1/2 101/1/2 105/1/2
f 102/1/2 103/1/2 107/1/2
f 104/2/2 105/2/2 108/2/2
f 108/2/2 105/2/2 109/2/2
f 106/1/2 107/1/2 110/1/2
f 108/1/2 109/1/2 112/1/2
f 109/1/2 110/1/2 112/1/2
f 112/1/2 110/1/2 113/1/2
f 110/1/2 107/1/2 114/1/2
f 113/1/2 110/1/2 114/1/2
f 112/1/2 113/1/2 115/1/2
f 111/1/2 112/1/2 115/1/2
f 113/2/2 114/2/2 116/2/2
f 115/1/2 113/1/2 116/1/2
f 116/2/2 114/2/2 117/2/2
f 114/1/2 107/1/2 118/1/2
f 117/2/2 114/2/2 118/2/2
f 107/1/2 103/1/2 119/1/2
f 118/1/2 107/1/2 119/1/2
f 111/1/2 115/1/2 121/1/2
f 115/2/2 116/2/2 122/2/2
f 121/1/2 115/1/2 122/1/2
f 116/1/2 117/1/2 123/1/2
f 122/2/2 116/2/2 123/2/2
f 123/1/2 117/1/2 124/1/2
f 121/1/2 122/1/2 125/1/2
f 120/1/2 121/1/2 125/1/2
f 122/1/2 123/1/2 125/1/2
f 125/1/2 123/1/2 126/1/2
f 126/1/2 123/1/2 127/1/2
f 126/3/2 127/3/2 128/3/2
f 127/1/2 123/1/2 129/1/2
f 128/3/2 127/3/2 129/3/2
f 129/1/2 123/1/2 130/1/2
f 130/1/2 123/1/2 131/1/2
f 131/1/2 123/1/2 132/1/2
f 130/1/2 131/1/2 133/1/2
f 131/2/2 132/2/2 134/2/2
f 133/1/2 131/1/2 134/1/2
f 134/2/2 132/2/2 135/2/2
f 138/1/3 137/1/3 136/1/3
f 139/1/3 137/1/3 138/1/3
f 140/1/3 138/1/3 136/1/3
f 140/3/3 139/3/3 138/3/3
f 141/3/3 139/3/3 140/3/3
f 142/1/3 140/1/3 136/1/3
f 142/1/3 141/1/3 140/1/3
f 143/1/3 141/1/3 142/1/3
f 146/3/3 145/3/3 144/3/3
f 147/3/3 145/3/3 146/3/3
f 148/1/3 147/1/3 146/1/3
f 149/1/3 147/1/3 148/1/3
f 150/3/3 149/3/3 148/3/3
f 151/3/3 149/3/3 150/3/3
f 154/1/3 153/1/3 152/1/3
f 155/1/3 153/1/3 154/1/3
f 161/2/3 157/2/3 156/2/3
f 162/1/3 158/1/3 157/1/3
f 162/2/3 157/2/3 161/2/3
f 163/1/3 158/1/3 162/1/3
f 164/1/3 160/1/3 159/1/3
f 165/1/3 160/1/3 164/1/3
f 168/1/3 158/1/3 163/1/3
f 169/1/3 164/1/3 159/1/3
f 171/1/3 167/1/3 166/1/3
f 172/2/3 168/2/3 167/2/3
f 172/1/3 167/1/3 171/1/3
f 173/1/3 158/1/3 168/1/3
f 173/2/3 168/2/3 172/2/3
f 174/1/3 158/1/3 173/1/3
f 175/1/3 170/1/3 169/1/3
f 175/1/3 169/1/3 159/1/3
f 176/1/3 170/1/3 175/1/3
f 179/1/3 178/1/3 177/1/3
f 180/1/3 178/1/3 179/1/3
f 183/1/3 182/1/3 181/1/3
f 184/1/3 182/1/3 183/1/3
f 187/1/3 186/1/3 185/1/3
f 188/1/3 186/1/3 187/1/3
f 191/1/3 190/1/3 189/1/3
f 192/1/3 190/1/3 191/1/3
f 195/2/3 194/2/3 193/2/3
f 196/2/3 194/2/3 195/2/3
f 197/1/3 196/1/3 195/1/3
f 198/1/3 196/1/3 197/1/3
f 201/1/3 200/1/3 199/1/3
f 202/1/3 200/1/3 201/1/3
f 203/2/3 202/2/3 201/2/3
f 204/2/3 202/2/3 203/2/3
f 205/2/4 206/2/4 208/2/4
f 206/1/4 207/1/4 209/1/4
f 208/2/4 206/2/4 209/2/4
f 209/1/4 207/1/4 210/1/4
f 211/1/4 212/1/4 214/1/4
f 212/2/4 213/2/4 215/2/4
f 214/1/4 212/1/4 215/1/4
f 215/2/4 213/2/4 216/2/4
f 217/2/4 218/2/4 220/2/4
f 218/1/4 219/1/4 221/1/4
f 220/2/4 218/2/4 221/2/4
f 221/1/4 219/1/4 222/1/4
f 222/1/4 219/1/4 223/1/4
f 220/1/4 221/1/4 224/1/4
f 221/1/4 222/1/4 224/1/4
f 224/1/4 222/1/4 225/1/4
f 220/1/4 224/1/4 227/1/4
f 225/2/4 226/2/4 228/2/4
f 227/1/4 224/1/4 228/1/4
f 224/2/4 225/2/4 228/2/4
f 228/2/4 226/2/4 229/2/4
f 230/1/4 231/1/4 232/1/4
f 232/1/4 231/1/4 233/1/4
f 233/1/4 231/1/4 234/1/4
f 235/1/4 236/1/4 239/1/4
f 236/2/4 237/2/4 240/2/4
f 239/1/4 236/1/4 240/1/4
f 240/2/4 237/2/4 241/2/4
f 237/1/4 238/1/4 242/1/4
f 241/2/4 237/2/4 242/2/4
f 242/1/4 238/1/4 243/1/4
f 241/1/4 242/1/4 244/1/4
f 243/1/4 238/1/4 245/1/4
f 241/1/4 244/1/4 247/1/4
f 247/1/4 244/1/4 248/1/4
f 245/1/4 238/1/4 249/1/4
f 247/1/4 248/1/4 250/1/4
f 248/1/4 249/1/4 250/1/4
f 246/1/4 247/1/4 250/1/4
f 249/1/4 238/1/4 251/1/4
f 250/1/4 249/1/4 251/1/4
f 252/2/4 253/2/4 254/2/4
f 254/2/4 253/2/4 255/2/4
f 254/1/4 255/1/4 256/1/4
f 256/1/4 255/1/4 257/1/4
f 258/2/4 259/2/4 260/2/4
f 260/2/4 259/2/4 261/2/4
f 260/1/4 261/1/4 262/1/4
f 262/1/4 261/1/4 263/1/4
f 264/1/4 265/1/4 266/1/4
f 266/1/4 265/1/4 267/1/4
f 266/2/4 267/2/4 268/2/4
f 268/2/4 267/2/4 269/2/4
f 274/2/5 271/2/5 270/2/5
f 275/2/5 271/2/5 274/2/5
f 276/1/5 273/1/5 272/1/5
f 277/1/5 273/1/5 276/1/5
f 282/1/5 279/1/5 278/1/5
f 283/1/5 279/1/5 282/1/5
f 284/1/5 281/1/5 280/1/5
f 285/1/5 281/1/5 284/1/5
f 290/1/5 287/1/5 286/1/5
f 291/1/5 287/1/5 290/1/5
f 292/1/5 289/1/5 288/1/5
f 293/1/5 289/1/5 292/1/5
f 297/1/5 295/1/5 294/1/5
f 298/2/5 296/2/5 295/2/5
f 298/1/5 295/1/5 297/1/5
f 299/2/5 296/2/5 298/2/5
f 303/1/5 301/1/5 300/1/5
f 304/1/5 301/1/5 303/1/5
f 306/1/5 303/1/5 302/1/5
f 306/1/5 305/1/5 304/1/5
f 306/1/5 304/1/5 303/1/5
f 307/1/5 305/1/5 306/1/5
f 308/2/5 307/2/5 306/2/5
f 309/1/5 305/1/5 307/1/5
f 309/2/5 307/2/5 308/2/5
f 310/1/5 309/1/5 308/1/5
f 311/1/5 305/1/5 309/1/5
f 311/1/5 309/1/5 310/1/5
f 312/1/5 305/1/5 311/1/5
f 313/1/5 305/1/5 312/1/5
f 314/1/5 312/1/5 311/1/5
f 315/1/5 312/1/5 314/1/5
f 316/1/5 312/1/5 315/1/5
f 320/2/5 318/2/5 317/2/5
f 321/1/5 319/1/5 318/1/5
f 321/2/5 318/2/5 320/2/5
f 322/1/5 319/1/5 321/1/5
f 326/2/5 324/2/5 323/2/5
f 327/1/5 325/1/5 324/1/5
f 327/2/5 324/2/5 326/2/5
f 328/1/5 325/1/5 327/1/5
f 331/1/5 330/1/5 329/1/5
f 332/1/5 330/1/5 331/1/5
f 335/1/5 334/1/5 333/1/5
f 336/1/5 334/1/5 335/1/5
f 337/1/6 338/1/6 340/1/6
f 338/2/6 339/2/6 341/2/6
f 340/1/6 338/1/6 341/1/6
f 341/2/6 339/2/6 342/2/6
f 343/2/6 344/2/6 346/2/6
f 344/1/6 345/1/6 347/1/6
f 346/2/6 344/2/6 347/2/6
f 347/1/6 345/1/6 348/1/6
f 349/2/6 350/2/6 352/2/6
f 350/1/6 351/1/6 353/1/6
f 352/2/6 350/2/6 353/2/6
f 353/1/6 351/1/6 354/1/6
f 355/1/6 356/1/6 358/1/6
f 356/2/6 357/2/6 358/2/6
f 358/2/6 357/2/6 359/2/6
f 355/1/6 358/1/6 360/1/6
f 358/1/6 359/1/6 360/1/6
f 360/1/6 359/1/6 361/1/6
f 362/1/6 363/1/6 365/1/6
f 363/1/6 364/1/6 365/1/6
f 365/1/6 364/1/6 366/1/6
f 367/1/6 368/1/6 371/1/6
f 368/3/6 369/3/6 372/3/6
f 371/1/6 368/1/6 372/1/6
f 369/1/6 370/1/6 373/1/6
f 372/3/6 369/3/6 373/3/6
f 373/1/6 370/1/6 374/1/6
f 375/3/6 376/3/6 379/3/6
f 376/1/6 377/1/6 380/1/6
f 379/3/6 376/3/6 380/3/6
f 377/3/6 378/3/6 381/3/6
f 380/1/6 377/1/6 381/1/6
f 381/3/6 378/3/6 382/3/6
f 379/1/6 380/1/6 383/1/6
f 380/1/6 381/1/6 383/1/6
f 381/1/6 382/1/6 383/1/6
f 383/1/6 382/1/6 384/1/6
f 385/1/6 386/1/6 387/1/6
f 385/1/6 387/1/6 388/1/6
f 388/1/6 387/1/6 389/1/6
f 392/1/6 393/1/6 394/1/6
f 394/1/6 393/1/6 395/1/6
f 390/1/6 391/1/6 396/1/6
f 396/1/6 391/1/6 397/1/6
f 394/2/6 395/2/6 398/2/6
f 398/2/6 395/2/6 399/2/6
