# MagicaVoxel @ Ephtracy

# group
o 

# material
mtllib Worky.mtl
usemtl palette

# normals
vn -1 0 0
vn 1 0 0
vn 0 0 1
vn 0 0 -1
vn 0 -1 0
vn 0 1 0

# texcoords
vt 0.751953 0.5
vt 0.779297 0.5

# verts
v -0.6 0.2 0.2
v -0.6 0.2 -0.2
v -0.6 0.8 0.2
v -0.6 0.8 -0.2
v -0.5 0.8 0.2
v -0.5 0.8 -0.2
v -0.5 0.9 0.2
v -0.5 0.9 -0.2
v -0.3 0 0.2
v -0.3 0 -0.2
v -0.3 0.2 0.2
v -0.3 0.2 -0.2
v -0.3 0.9 0.2
v -0.3 0.9 -0.2
v -0.3 1.4 0.2
v -0.3 1.4 -0.2
v -0.2 1.4 0.2
v -0.2 1.4 -0.2
v -0.2 1.5 0.2
v -0.2 1.5 -0.2
v 0.1 0 0.2
v 0.1 0 -0.2
v 0.1 0.2 0.2
v 0.1 0.2 -0.2
v 0 0 0.2
v 0 0 -0.2
v 0 0.2 0.2
v 0 0.2 -0.2
v 0.3 1.4 0.2
v 0.3 1.4 -0.2
v 0.3 1.5 0.2
v 0.3 1.5 -0.2
v 0.4 0 0.2
v 0.4 0 -0.2
v 0.4 0.2 0.2
v 0.4 0.2 -0.2
v 0.4 0.9 0.2
v 0.4 0.9 -0.2
v 0.4 1.4 0.2
v 0.4 1.4 -0.2
v 0.6 0.8 0.2
v 0.6 0.8 -0.2
v 0.6 0.9 0.2
v 0.6 0.9 -0.2
v 0.7 0.2 0.2
v 0.7 0.2 -0.2
v 0.7 0.8 0.2
v 0.7 0.8 -0.2
v -0.6 0.2 0.2
v -0.6 0.8 0.2
v -0.5 0.3 0.2
v -0.5 0.4 0.2
v -0.5 0.8 0.2
v -0.5 0.9 0.2
v -0.4 0.3 0.2
v -0.4 0.4 0.2
v -0.4 0.8 0.2
v -0.4 0.9 0.2
v -0.3 0 0.2
v -0.3 0.2 0.2
v -0.3 0.8 0.2
v -0.3 0.9 0.2
v -0.3 1.4 0.2
v -0.2 0.4 0.2
v -0.2 0.8 0.2
v -0.2 1 0.2
v -0.2 1.1 0.2
v -0.2 1.2 0.2
v -0.2 1.3 0.2
v -0.2 1.4 0.2
v -0.2 1.5 0.2
v -0.1 0.9 0.2
v -0.1 1 0.2
v -0.1 1.1 0.2
v -0.1 1.2 0.2
v 0 0 0.2
v 0 0.2 0.2
v 0 1.1 0.2
v 0 1.3 0.2
v 0.1 0 0.2
v 0.1 0.2 0.2
v 0.1 1.1 0.2
v 0.1 1.3 0.2
v 0.2 0.9 0.2
v 0.2 1 0.2
v 0.2 1.1 0.2
v 0.2 1.2 0.2
v 0.3 0.4 0.2
v 0.3 0.8 0.2
v 0.3 1 0.2
v 0.3 1.1 0.2
v 0.3 1.2 0.2
v 0.3 1.3 0.2
v 0.3 1.4 0.2
v 0.3 1.5 0.2
v 0.4 0 0.2
v 0.4 0.2 0.2
v 0.4 0.8 0.2
v 0.4 0.9 0.2
v 0.4 1.4 0.2
v 0.5 0.3 0.2
v 0.5 0.4 0.2
v 0.5 0.8 0.2
v 0.5 0.9 0.2
v 0.6 0.3 0.2
v 0.6 0.4 0.2
v 0.6 0.8 0.2
v 0.6 0.9 0.2
v 0.7 0.2 0.2
v 0.7 0.8 0.2
v -0.6 0.2 -0.2
v -0.6 0.8 -0.2
v -0.5 0.3 -0.2
v -0.5 0.4 -0.2
v -0.5 0.8 -0.2
v -0.5 0.9 -0.2
v -0.4 0.3 -0.2
v -0.4 0.4 -0.2
v -0.4 0.8 -0.2
v -0.4 0.9 -0.2
v -0.3 0 -0.2
v -0.3 0.2 -0.2
v -0.3 0.8 -0.2
v -0.3 0.9 -0.2
v -0.3 1.4 -0.2
v -0.2 0.4 -0.2
v -0.2 0.8 -0.2
v -0.2 1.4 -0.2
v -0.2 1.5 -0.2
v 0 0 -0.2
v 0 0.2 -0.2
v 0.1 0 -0.2
v 0.1 0.2 -0.2
v 0.3 0.4 -0.2
v 0.3 0.8 -0.2
v 0.3 1.4 -0.2
v 0.3 1.5 -0.2
v 0.4 0 -0.2
v 0.4 0.2 -0.2
v 0.4 0.8 -0.2
v 0.4 0.9 -0.2
v 0.4 1.4 -0.2
v 0.5 0.3 -0.2
v 0.5 0.4 -0.2
v 0.5 0.8 -0.2
v 0.5 0.9 -0.2
v 0.6 0.3 -0.2
v 0.6 0.4 -0.2
v 0.6 0.8 -0.2
v 0.6 0.9 -0.2
v 0.7 0.2 -0.2
v 0.7 0.8 -0.2
v -0.3 0 0.2
v 0 0 0.2
v 0.1 0 0.2
v 0.4 0 0.2
v -0.3 0 -0.2
v 0 0 -0.2
v 0.1 0 -0.2
v 0.4 0 -0.2
v -0.6 0.2 0.2
v -0.3 0.2 0.2
v 0 0.2 0.2
v 0.1 0.2 0.2
v 0.4 0.2 0.2
v 0.7 0.2 0.2
v -0.6 0.2 -0.2
v -0.3 0.2 -0.2
v 0 0.2 -0.2
v 0.1 0.2 -0.2
v 0.4 0.2 -0.2
v 0.7 0.2 -0.2
v -0.6 0.8 0.2
v -0.5 0.8 0.2
v 0.6 0.8 0.2
v 0.7 0.8 0.2
v -0.6 0.8 -0.2
v -0.5 0.8 -0.2
v 0.6 0.8 -0.2
v 0.7 0.8 -0.2
v -0.5 0.9 0.2
v -0.4 0.9 0.2
v -0.3 0.9 0.2
v 0.4 0.9 0.2
v 0.5 0.9 0.2
v 0.6 0.9 0.2
v -0.5 0.9 -0.2
v -0.4 0.9 -0.2
v -0.3 0.9 -0.2
v 0.4 0.9 -0.2
v 0.5 0.9 -0.2
v 0.6 0.9 -0.2
v -0.3 1.4 0.2
v -0.2 1.4 0.2
v 0.3 1.4 0.2
v 0.4 1.4 0.2
v -0.3 1.4 -0.2
v -0.2 1.4 -0.2
v 0.3 1.4 -0.2
v 0.4 1.4 -0.2
v -0.2 1.5 0.2
v 0.3 1.5 0.2
v -0.2 1.5 -0.2
v 0.3 1.5 -0.2

# faces
f 3/1/1 2/1/1 1/1/1
f 4/1/1 2/1/1 3/1/1
f 7/1/1 6/1/1 5/1/1
f 8/1/1 6/1/1 7/1/1
f 11/2/1 10/2/1 9/2/1
f 12/2/1 10/2/1 11/2/1
f 15/1/1 14/1/1 13/1/1
f 16/1/1 14/1/1 15/1/1
f 19/1/1 18/1/1 17/1/1
f 20/1/1 18/1/1 19/1/1
f 23/2/1 22/2/1 21/2/1
f 24/2/1 22/2/1 23/2/1
f 25/2/2 26/2/2 27/2/2
f 27/2/2 26/2/2 28/2/2
f 29/1/2 30/1/2 31/1/2
f 31/1/2 30/1/2 32/1/2
f 33/2/2 34/2/2 35/2/2
f 35/2/2 34/2/2 36/2/2
f 37/1/2 38/1/2 39/1/2
f 39/1/2 38/1/2 40/1/2
f 41/1/2 42/1/2 43/1/2
f 43/1/2 42/1/2 44/1/2
f 45/1/2 46/1/2 47/1/2
f 47/1/2 46/1/2 48/1/2
f 51/1/3 50/1/3 49/1/3
f 52/1/3 50/1/3 51/1/3
f 53/1/3 50/1/3 52/1/3
f 55/1/3 51/1/3 49/1/3
f 55/2/3 52/2/3 51/2/3
f 56/1/3 54/1/3 53/1/3
f 56/2/3 52/2/3 55/2/3
f 56/1/3 53/1/3 52/1/3
f 57/1/3 54/1/3 56/1/3
f 58/1/3 54/1/3 57/1/3
f 60/1/3 55/1/3 49/1/3
f 60/1/3 56/1/3 55/1/3
f 60/1/3 57/1/3 56/1/3
f 61/2/3 58/2/3 57/2/3
f 61/1/3 57/1/3 60/1/3
f 62/2/3 58/2/3 61/2/3
f 64/2/3 60/2/3 59/2/3
f 64/2/3 61/2/3 60/2/3
f 65/1/3 62/1/3 61/1/3
f 65/2/3 61/2/3 64/2/3
f 65/1/3 63/1/3 62/1/3
f 66/1/3 63/1/3 65/1/3
f 67/1/3 63/1/3 66/1/3
f 68/1/3 63/1/3 67/1/3
f 69/1/3 63/1/3 68/1/3
f 70/1/3 63/1/3 69/1/3
f 72/1/3 65/1/3 64/1/3
f 72/1/3 66/1/3 65/1/3
f 73/2/3 67/2/3 66/2/3
f 73/1/3 66/1/3 72/1/3
f 74/1/3 68/1/3 67/1/3
f 74/2/3 67/2/3 73/2/3
f 75/2/3 69/2/3 68/2/3
f 75/1/3 68/1/3 74/1/3
f 76/2/3 64/2/3 59/2/3
f 77/2/3 64/2/3 76/2/3
f 78/1/3 74/1/3 73/1/3
f 78/2/3 75/2/3 74/2/3
f 79/2/3 69/2/3 75/2/3
f 79/2/3 75/2/3 78/2/3
f 79/1/3 71/1/3 70/1/3
f 79/1/3 70/1/3 69/1/3
f 81/2/3 64/2/3 77/2/3
f 82/1/3 78/1/3 73/1/3
f 82/1/3 79/1/3 78/1/3
f 83/1/3 71/1/3 79/1/3
f 83/1/3 79/1/3 82/1/3
f 84/1/3 72/1/3 64/1/3
f 84/2/3 73/2/3 72/2/3
f 85/1/3 82/1/3 73/1/3
f 85/2/3 73/2/3 84/2/3
f 86/2/3 83/2/3 82/2/3
f 86/1/3 82/1/3 85/1/3
f 87/2/3 83/2/3 86/2/3
f 88/2/3 81/2/3 80/2/3
f 88/1/3 84/1/3 64/1/3
f 88/1/3 85/1/3 84/1/3
f 88/2/3 64/2/3 81/2/3
f 89/1/3 85/1/3 88/1/3
f 90/2/3 86/2/3 85/2/3
f 90/1/3 85/1/3 89/1/3
f 91/1/3 87/1/3 86/1/3
f 91/2/3 86/2/3 90/2/3
f 92/2/3 83/2/3 87/2/3
f 92/1/3 87/1/3 91/1/3
f 93/1/3 71/1/3 83/1/3
f 93/2/3 83/2/3 92/2/3
f 94/1/3 71/1/3 93/1/3
f 95/1/3 71/1/3 94/1/3
f 96/2/3 89/2/3 88/2/3
f 96/2/3 88/2/3 80/2/3
f 97/2/3 89/2/3 96/2/3
f 98/1/3 91/1/3 90/1/3
f 98/2/3 89/2/3 97/2/3
f 98/1/3 90/1/3 89/1/3
f 98/1/3 92/1/3 91/1/3
f 98/1/3 93/1/3 92/1/3
f 98/1/3 94/1/3 93/1/3
f 99/1/3 94/1/3 98/1/3
f 100/1/3 94/1/3 99/1/3
f 101/1/3 98/1/3 97/1/3
f 102/1/3 98/1/3 101/1/3
f 103/2/3 99/2/3 98/2/3
f 103/1/3 98/1/3 102/1/3
f 104/2/3 99/2/3 103/2/3
f 105/2/3 102/2/3 101/2/3
f 105/1/3 101/1/3 97/1/3
f 106/1/3 104/1/3 103/1/3
f 106/2/3 102/2/3 105/2/3
f 106/1/3 103/1/3 102/1/3
f 107/1/3 104/1/3 106/1/3
f 108/1/3 104/1/3 107/1/3
f 109/1/3 105/1/3 97/1/3
f 109/1/3 106/1/3 105/1/3
f 109/1/3 107/1/3 106/1/3
f 110/1/3 107/1/3 109/1/3
f 111/1/4 112/1/4 113/1/4
f 113/1/4 112/1/4 114/1/4
f 114/1/4 112/1/4 115/1/4
f 111/1/4 113/1/4 117/1/4
f 113/2/4 114/2/4 117/2/4
f 115/1/4 116/1/4 118/1/4
f 117/2/4 114/2/4 118/2/4
f 114/1/4 115/1/4 118/1/4
f 118/1/4 116/1/4 119/1/4
f 119/1/4 116/1/4 120/1/4
f 111/1/4 117/1/4 122/1/4
f 117/1/4 118/1/4 122/1/4
f 118/1/4 119/1/4 122/1/4
f 119/2/4 120/2/4 123/2/4
f 122/1/4 119/1/4 123/1/4
f 123/2/4 120/2/4 124/2/4
f 121/2/4 122/2/4 126/2/4
f 122/2/4 123/2/4 126/2/4
f 123/1/4 124/1/4 127/1/4
f 126/2/4 123/2/4 127/2/4
f 124/1/4 125/1/4 127/1/4
f 127/1/4 125/1/4 128/1/4
f 121/2/4 126/2/4 130/2/4
f 130/2/4 126/2/4 131/2/4
f 131/2/4 126/2/4 133/2/4
f 128/1/4 129/1/4 134/1/4
f 132/2/4 133/2/4 134/2/4
f 133/2/4 126/2/4 134/2/4
f 126/1/4 127/1/4 134/1/4
f 127/1/4 128/1/4 134/1/4
f 134/1/4 129/1/4 135/1/4
f 135/1/4 129/1/4 136/1/4
f 136/1/4 129/1/4 137/1/4
f 132/2/4 134/2/4 138/2/4
f 134/2/4 135/2/4 138/2/4
f 138/2/4 135/2/4 139/2/4
f 135/1/4 136/1/4 140/1/4
f 139/2/4 135/2/4 140/2/4
f 140/1/4 136/1/4 141/1/4
f 141/1/4 136/1/4 142/1/4
f 139/1/4 140/1/4 143/1/4
f 143/1/4 140/1/4 144/1/4
f 140/2/4 141/2/4 145/2/4
f 144/1/4 140/1/4 145/1/4
f 145/2/4 141/2/4 146/2/4
f 143/2/4 144/2/4 147/2/4
f 139/1/4 143/1/4 147/1/4
f 145/1/4 146/1/4 148/1/4
f 147/2/4 144/2/4 148/2/4
f 144/1/4 145/1/4 148/1/4
f 148/1/4 146/1/4 149/1/4
f 149/1/4 146/1/4 150/1/4
f 139/1/4 147/1/4 151/1/4
f 147/1/4 148/1/4 151/1/4
f 148/1/4 149/1/4 151/1/4
f 151/1/4 149/1/4 152/1/4
f 157/2/5 154/2/5 153/2/5
f 158/2/5 154/2/5 157/2/5
f 159/2/5 156/2/5 155/2/5
f 160/2/5 156/2/5 159/2/5
f 167/1/5 162/1/5 161/1/5
f 168/1/5 162/1/5 167/1/5
f 169/2/5 164/2/5 163/2/5
f 170/2/5 164/2/5 169/2/5
f 171/1/5 166/1/5 165/1/5
f 172/1/5 166/1/5 171/1/5
f 173/1/6 174/1/6 177/1/6
f 177/1/6 174/1/6 178/1/6
f 175/1/6 176/1/6 179/1/6
f 179/1/6 176/1/6 180/1/6
f 181/1/6 182/1/6 187/1/6
f 182/2/6 183/2/6 188/2/6
f 187/1/6 182/1/6 188/1/6
f 188/2/6 183/2/6 189/2/6
f 184/2/6 185/2/6 190/2/6
f 185/1/6 186/1/6 191/1/6
f 190/2/6 185/2/6 191/2/6
f 191/1/6 186/1/6 192/1/6
f 193/1/6 194/1/6 197/1/6
f 197/1/6 194/1/6 198/1/6
f 195/1/6 196/1/6 199/1/6
f 199/1/6 196/1/6 200/1/6
f 201/1/6 202/1/6 203/1/6
f 203/1/6 202/1/6 204/1/6
