# MagicaVoxel @ Ephtracy

# group
o 

# material
mtllib GiblinEnemyStraj.mtl
usemtl palette

# normals
vn -1 0 0
vn 1 0 0
vn 0 0 1
vn 0 0 -1
vn 0 -1 0
vn 0 1 0

# texcoords
vt 0.373047 0.5
vt 0.888672 0.5
vt 0.896484 0.5
vt 0.958984 0.5
vt 0.970703 0.5
vt 0.994141 0.5

# verts
v -0.5 0.5 0.5
v -0.5 0.5 -0.2
v -0.5 0.7 0.5
v -0.5 0.7 -0.2
v -0.5 1 0.5
v -0.5 1 0.4
v -0.5 1.2 0.5
v -0.5 1.2 0.4
v -0.4 0 0.5
v -0.4 0 0.4
v -0.4 0.2 0.1
v -0.4 0.2 -0.2
v -0.4 0.3 0.2
v -0.4 0.3 0.1
v -0.4 0.3 -0.2
v -0.4 0.3 -0.3
v -0.4 0.5 0.5
v -0.4 0.5 0.4
v -0.4 0.5 0.2
v -0.4 0.5 -0.2
v -0.4 0.7 0.5
v -0.4 0.7 0.4
v -0.4 0.7 0.1
v -0.4 0.7 -0.2
v -0.4 0.7 -0.3
v -0.4 0.8 0.1
v -0.4 0.8 -0.2
v -0.4 1 0.6
v -0.4 1 0.5
v -0.4 1 0.4
v -0.4 1 0.3
v -0.4 1.2 0.6
v -0.4 1.2 0.5
v -0.4 1.2 0.4
v -0.4 1.2 0.3
v -0.4 1.4 0.5
v -0.4 1.4 0.4
v -0.3 0 0.1
v -0.3 0 -0.2
v -0.3 0.2 0.2
v -0.3 0.2 0.1
v -0.3 0.2 -0.2
v -0.3 0.2 -0.3
v -0.3 0.3 0.2
v -0.3 0.3 0.1
v -0.3 0.3 -0.2
v -0.3 0.3 -0.3
v -0.3 0.7 0.2
v -0.3 0.7 0.1
v -0.3 0.7 -0.2
v -0.3 0.7 -0.3
v -0.3 0.8 0.2
v -0.3 0.8 0.1
v -0.3 0.8 -0.2
v -0.3 0.8 -0.3
v -0.2 0.8 0.1
v -0.2 0.8 -0.2
v -0.2 0.9 0.2
v -0.2 0.9 0.1
v -0.2 0.9 -0.2
v -0.2 0.9 -0.3
v -0.2 1.3 0.2
v -0.2 1.3 0.1
v -0.2 1.4 0.2
v -0.2 1.4 0.1
v -0.2 1.4 -0.2
v -0.2 1.4 -0.3
v -0.2 1.5 0.1
v -0.2 1.5 -0.2
v -0.1 1.4 0.2
v -0.1 1.4 0.1
v -0.1 1.4 -0.2
v -0.1 1.4 -0.3
v -0.1 1.5 0.2
v -0.1 1.5 0.1
v -0.1 1.5 -0.2
v -0.1 1.5 -0.3
v 0 1.1 0.4
v 0 1.1 0.2
v 0 1.2 0.4
v 0 1.2 0.2
v 0.1 0.1 0.1
v 0.1 0.1 -0.2
v 0.1 0.2 0.1
v 0.1 0.2 -0.2
v 0.2 0 0.1
v 0.2 0 -0.2
v 0.2 0.1 0.1
v 0.2 0.1 -0.2
v 0.6 0.2 0.1
v 0.6 0.2 -0.1
v 0.6 0.3 0.1
v 0.6 0.3 -0.1
v -0.3 0 0.5
v -0.3 0 0.4
v -0.3 0.5 0.4
v -0.3 0.5 0.2
v -0.3 0.7 0.4
v -0.3 0.7 0.2
v -0.3 1 0.6
v -0.3 1 0.5
v -0.3 1 0.4
v -0.3 1 0.3
v -0.3 1.2 0.6
v -0.3 1.2 0.5
v -0.3 1.2 0.4
v -0.3 1.2 0.3
v -0.3 1.4 0.5
v -0.3 1.4 0.4
v -0.2 1 0.5
v -0.2 1 0.4
v -0.2 1.2 0.5
v -0.2 1.2 0.4
v -0.1 0 0.1
v -0.1 0 -0.2
v -0.1 0.1 0.1
v -0.1 0.1 -0.2
v 0 0.1 0.1
v 0 0.1 -0.2
v 0 0.2 0.1
v 0 0.2 -0.2
v 0.1 1.1 0.4
v 0.1 1.1 0.2
v 0.1 1.2 0.4
v 0.1 1.2 0.2
v 0.2 1.4 0.2
v 0.2 1.4 0.1
v 0.2 1.4 -0.2
v 0.2 1.4 -0.3
v 0.2 1.5 0.2
v 0.2 1.5 0.1
v 0.2 1.5 -0.2
v 0.2 1.5 -0.3
v 0.3 0.8 0.1
v 0.3 0.8 -0.2
v 0.3 0.9 0.2
v 0.3 0.9 0.1
v 0.3 0.9 -0.2
v 0.3 0.9 -0.3
v 0.3 1.3 0.2
v 0.3 1.3 0.1
v 0.3 1.4 0.2
v 0.3 1.4 0.1
v 0.3 1.4 -0.2
v 0.3 1.4 -0.3
v 0.3 1.5 0.1
v 0.3 1.5 -0.2
v 0.4 0 0.1
v 0.4 0 -0.2
v 0.4 0.2 0.2
v 0.4 0.2 0.1
v 0.4 0.2 -0.2
v 0.4 0.2 -0.3
v 0.4 0.3 0.2
v 0.4 0.3 0.1
v 0.4 0.3 -0.2
v 0.4 0.3 -0.3
v 0.4 0.7 0.2
v 0.4 0.7 0.1
v 0.4 0.7 -0.2
v 0.4 0.7 -0.3
v 0.4 0.8 0.2
v 0.4 0.8 0.1
v 0.4 0.8 -0.2
v 0.4 0.8 -0.3
v 0.5 0.2 0.1
v 0.5 0.2 -0.2
v 0.5 0.3 0.2
v 0.5 0.3 0.1
v 0.5 0.3 -0.1
v 0.5 0.3 -0.2
v 0.5 0.3 -0.3
v 0.5 0.7 0.2
v 0.5 0.7 0.1
v 0.5 0.7 -0.1
v 0.5 0.7 -0.2
v 0.5 0.7 -0.3
v 0.5 0.8 0.1
v 0.5 0.8 -0.2
v 0.6 0.6 0.1
v 0.6 0.6 -0.1
v 0.6 0.7 0.1
v 0.6 0.7 -0.1
v 0.7 0.2 0.1
v 0.7 0.2 -0.1
v 0.7 0.6 0.1
v 0.7 0.6 -0.1
v -0.4 1 0.6
v -0.4 1.2 0.6
v -0.3 1 0.6
v -0.3 1.2 0.6
v -0.5 0.5 0.5
v -0.5 0.7 0.5
v -0.5 1 0.5
v -0.5 1.2 0.5
v -0.4 0 0.5
v -0.4 0.5 0.5
v -0.4 0.7 0.5
v -0.4 1 0.5
v -0.4 1.2 0.5
v -0.4 1.4 0.5
v -0.3 0 0.5
v -0.3 1 0.5
v -0.3 1.2 0.5
v -0.3 1.4 0.5
v -0.2 1 0.5
v -0.2 1.2 0.5
v 0 1.1 0.4
v 0 1.2 0.4
v 0.1 1.1 0.4
v 0.1 1.2 0.4
v -0.4 0.3 0.2
v -0.4 0.5 0.2
v -0.3 0.2 0.2
v -0.3 0.3 0.2
v -0.3 0.5 0.2
v -0.3 0.7 0.2
v -0.3 0.8 0.2
v -0.2 0.5 0.2
v -0.2 0.6 0.2
v -0.2 0.9 0.2
v -0.2 1.3 0.2
v -0.2 1.4 0.2
v -0.1 0.5 0.2
v -0.1 0.6 0.2
v -0.1 1 0.2
v -0.1 1.1 0.2
v -0.1 1.2 0.2
v -0.1 1.3 0.2
v -0.1 1.4 0.2
v -0.1 1.5 0.2
v 0 0.3 0.2
v 0 0.4 0.2
v 0 1.1 0.2
v 0 1.2 0.2
v 0 1.3 0.2
v 0.1 0.3 0.2
v 0.1 0.4 0.2
v 0.1 1.1 0.2
v 0.1 1.2 0.2
v 0.1 1.3 0.2
v 0.2 0.5 0.2
v 0.2 0.6 0.2
v 0.2 1 0.2
v 0.2 1.1 0.2
v 0.2 1.2 0.2
v 0.2 1.3 0.2
v 0.2 1.4 0.2
v 0.2 1.5 0.2
v 0.3 0.5 0.2
v 0.3 0.6 0.2
v 0.3 0.9 0.2
v 0.3 1.3 0.2
v 0.3 1.4 0.2
v 0.4 0.2 0.2
v 0.4 0.3 0.2
v 0.4 0.7 0.2
v 0.4 0.8 0.2
v 0.5 0.3 0.2
v 0.5 0.7 0.2
v -0.4 0.2 0.1
v -0.4 0.3 0.1
v -0.4 0.7 0.1
v -0.4 0.8 0.1
v -0.3 0 0.1
v -0.3 0.2 0.1
v -0.3 0.3 0.1
v -0.3 0.7 0.1
v -0.3 0.8 0.1
v -0.2 0.8 0.1
v -0.2 0.9 0.1
v -0.2 1.4 0.1
v -0.2 1.5 0.1
v -0.1 0 0.1
v -0.1 0.1 0.1
v -0.1 1.4 0.1
v -0.1 1.5 0.1
v 0 0.1 0.1
v 0 0.2 0.1
v 0.1 0.1 0.1
v 0.1 0.2 0.1
v 0.2 0 0.1
v 0.2 0.1 0.1
v 0.2 1.4 0.1
v 0.2 1.5 0.1
v 0.3 0.8 0.1
v 0.3 0.9 0.1
v 0.3 1.4 0.1
v 0.3 1.5 0.1
v 0.4 0 0.1
v 0.4 0.2 0.1
v 0.4 0.3 0.1
v 0.4 0.7 0.1
v 0.4 0.8 0.1
v 0.5 0.2 0.1
v 0.5 0.3 0.1
v 0.5 0.7 0.1
v 0.5 0.8 0.1
v 0.6 0.2 0.1
v 0.6 0.3 0.1
v 0.6 0.6 0.1
v 0.6 0.7 0.1
v 0.7 0.2 0.1
v 0.7 0.6 0.1
v -0.5 1 0.4
v -0.5 1.2 0.4
v -0.4 0 0.4
v -0.4 0.5 0.4
v -0.4 0.7 0.4
v -0.4 1 0.4
v -0.4 1.2 0.4
v -0.4 1.4 0.4
v -0.3 0 0.4
v -0.3 0.5 0.4
v -0.3 0.7 0.4
v -0.3 1 0.4
v -0.3 1.2 0.4
v -0.3 1.4 0.4
v -0.2 1 0.4
v -0.2 1.2 0.4
v -0.4 1 0.3
v -0.4 1.2 0.3
v -0.3 1 0.3
v -0.3 1.2 0.3
v 0.5 0.3 -0.1
v 0.5 0.7 -0.1
v 0.6 0.2 -0.1
v 0.6 0.3 -0.1
v 0.6 0.6 -0.1
v 0.6 0.7 -0.1
v 0.7 0.2 -0.1
v 0.7 0.6 -0.1
v -0.5 0.5 -0.2
v -0.5 0.7 -0.2
v -0.4 0.2 -0.2
v -0.4 0.3 -0.2
v -0.4 0.5 -0.2
v -0.4 0.7 -0.2
v -0.4 0.8 -0.2
v -0.3 0 -0.2
v -0.3 0.2 -0.2
v -0.3 0.3 -0.2
v -0.3 0.7 -0.2
v -0.3 0.8 -0.2
v -0.2 0.8 -0.2
v -0.2 0.9 -0.2
v -0.2 1.4 -0.2
v -0.2 1.5 -0.2
v -0.1 0 -0.2
v -0.1 0.1 -0.2
v -0.1 1.4 -0.2
v -0.1 1.5 -0.2
v 0 0.1 -0.2
v 0 0.2 -0.2
v 0.1 0.1 -0.2
v 0.1 0.2 -0.2
v 0.2 0 -0.2
v 0.2 0.1 -0.2
v 0.2 1.4 -0.2
v 0.2 1.5 -0.2
v 0.3 0.8 -0.2
v 0.3 0.9 -0.2
v 0.3 1.4 -0.2
v 0.3 1.5 -0.2
v 0.4 0 -0.2
v 0.4 0.2 -0.2
v 0.4 0.3 -0.2
v 0.4 0.7 -0.2
v 0.4 0.8 -0.2
v 0.5 0.2 -0.2
v 0.5 0.3 -0.2
v 0.5 0.7 -0.2
v 0.5 0.8 -0.2
v -0.4 0.3 -0.3
v -0.4 0.7 -0.3
v -0.3 0.2 -0.3
v -0.3 0.3 -0.3
v -0.3 0.7 -0.3
v -0.3 0.8 -0.3
v -0.2 0.9 -0.3
v -0.2 1.4 -0.3
v -0.1 1.4 -0.3
v -0.1 1.5 -0.3
v 0.2 1.4 -0.3
v 0.2 1.5 -0.3
v 0.3 0.9 -0.3
v 0.3 1.4 -0.3
v 0.4 0.2 -0.3
v 0.4 0.3 -0.3
v 0.4 0.7 -0.3
v 0.4 0.8 -0.3
v 0.5 0.3 -0.3
v 0.5 0.7 -0.3
v -0.4 0 0.5
v -0.3 0 0.5
v -0.4 0 0.4
v -0.3 0 0.4
v -0.3 0 0.1
v -0.1 0 0.1
v 0.2 0 0.1
v 0.4 0 0.1
v -0.3 0 -0.2
v -0.1 0 -0.2
v 0.2 0 -0.2
v 0.4 0 -0.2
v -0.1 0.1 0.1
v 0 0.1 0.1
v 0.1 0.1 0.1
v 0.2 0.1 0.1
v -0.1 0.1 -0.2
v 0 0.1 -0.2
v 0.1 0.1 -0.2
v 0.2 0.1 -0.2
v -0.3 0.2 0.2
v 0.4 0.2 0.2
v -0.4 0.2 0.1
v -0.3 0.2 0.1
v 0 0.2 0.1
v 0.1 0.2 0.1
v 0.4 0.2 0.1
v 0.5 0.2 0.1
v 0.6 0.2 0.1
v 0.7 0.2 0.1
v 0.6 0.2 -0.1
v 0.7 0.2 -0.1
v -0.4 0.2 -0.2
v -0.3 0.2 -0.2
v 0 0.2 -0.2
v 0.1 0.2 -0.2
v 0.4 0.2 -0.2
v 0.5 0.2 -0.2
v -0.3 0.2 -0.3
v 0.4 0.2 -0.3
v -0.4 0.3 0.2
v -0.3 0.3 0.2
v 0.4 0.3 0.2
v 0.5 0.3 0.2
v -0.4 0.3 0.1
v -0.3 0.3 0.1
v 0.4 0.3 0.1
v 0.5 0.3 0.1
v 0.6 0.3 0.1
v 0.5 0.3 -0.1
v 0.6 0.3 -0.1
v -0.4 0.3 -0.2
v -0.3 0.3 -0.2
v 0.4 0.3 -0.2
v 0.5 0.3 -0.2
v -0.4 0.3 -0.3
v -0.3 0.3 -0.3
v 0.4 0.3 -0.3
v 0.5 0.3 -0.3
v -0.5 0.5 0.5
v -0.4 0.5 0.5
v -0.4 0.5 0.4
v -0.3 0.5 0.4
v -0.4 0.5 0.2
v -0.3 0.5 0.2
v -0.5 0.5 -0.2
v -0.4 0.5 -0.2
v -0.2 0.9 0.2
v 0.3 0.9 0.2
v -0.2 0.9 0.1
v 0.3 0.9 0.1
v -0.2 0.9 -0.2
v 0.3 0.9 -0.2
v -0.2 0.9 -0.3
v 0.3 0.9 -0.3
v -0.4 1 0.6
v -0.3 1 0.6
v -0.5 1 0.5
v -0.4 1 0.5
v -0.3 1 0.5
v -0.2 1 0.5
v -0.5 1 0.4
v -0.4 1 0.4
v -0.3 1 0.4
v -0.2 1 0.4
v -0.4 1 0.3
v -0.3 1 0.3
v 0 1.1 0.4
v 0.1 1.1 0.4
v 0 1.1 0.2
v 0.1 1.1 0.2
v 0.6 0.6 0.1
v 0.7 0.6 0.1
v 0.6 0.6 -0.1
v 0.7 0.6 -0.1
v -0.5 0.7 0.5
v -0.4 0.7 0.5
v -0.4 0.7 0.4
v -0.3 0.7 0.4
v -0.3 0.7 0.2
v 0.4 0.7 0.2
v 0.5 0.7 0.2
v -0.4 0.7 0.1
v -0.3 0.7 0.1
v 0.4 0.7 0.1
v 0.5 0.7 0.1
v 0.6 0.7 0.1
v 0.5 0.7 -0.1
v 0.6 0.7 -0.1
v -0.5 0.7 -0.2
v -0.4 0.7 -0.2
v -0.3 0.7 -0.2
v 0.4 0.7 -0.2
v 0.5 0.7 -0.2
v -0.4 0.7 -0.3
v -0.3 0.7 -0.3
v 0.4 0.7 -0.3
v 0.5 0.7 -0.3
v -0.3 0.8 0.2
v 0.4 0.8 0.2
v -0.4 0.8 0.1
v -0.3 0.8 0.1
v -0.2 0.8 0.1
v 0.3 0.8 0.1
v 0.4 0.8 0.1
v 0.5 0.8 0.1
v -0.4 0.8 -0.2
v -0.3 0.8 -0.2
v -0.2 0.8 -0.2
v 0.3 0.8 -0.2
v 0.4 0.8 -0.2
v 0.5 0.8 -0.2
v -0.3 0.8 -0.3
v 0.4 0.8 -0.3
v -0.4 1.2 0.6
v -0.3 1.2 0.6
v -0.5 1.2 0.5
v -0.4 1.2 0.5
v -0.3 1.2 0.5
v -0.2 1.2 0.5
v -0.5 1.2 0.4
v -0.4 1.2 0.4
v -0.3 1.2 0.4
v -0.2 1.2 0.4
v 0 1.2 0.4
v 0.1 1.2 0.4
v -0.4 1.2 0.3
v -0.3 1.2 0.3
v 0 1.2 0.2
v 0.1 1.2 0.2
v -0.4 1.4 0.5
v -0.3 1.4 0.5
v -0.4 1.4 0.4
v -0.3 1.4 0.4
v -0.2 1.4 0.2
v -0.1 1.4 0.2
v 0.2 1.4 0.2
v 0.3 1.4 0.2
v -0.2 1.4 0.1
v -0.1 1.4 0.1
v 0.2 1.4 0.1
v 0.3 1.4 0.1
v -0.2 1.4 -0.2
v -0.1 1.4 -0.2
v 0.2 1.4 -0.2
v 0.3 1.4 -0.2
v -0.2 1.4 -0.3
v -0.1 1.4 -0.3
v 0.2 1.4 -0.3
v 0.3 1.4 -0.3
v -0.1 1.5 0.2
v 0.2 1.5 0.2
v -0.2 1.5 0.1
v -0.1 1.5 0.1
v 0.2 1.5 0.1
v 0.3 1.5 0.1
v -0.2 1.5 -0.2
v -0.1 1.5 -0.2
v 0.2 1.5 -0.2
v 0.3 1.5 -0.2
v -0.1 1.5 -0.3
v 0.2 1.5 -0.3

# faces
f 3/2/1 2/2/1 1/2/1
f 4/2/1 2/2/1 3/2/1
f 7/5/1 6/5/1 5/5/1
f 8/5/1 6/5/1 7/5/1
f 14/1/1 12/1/1 11/1/1
f 15/1/1 12/1/1 14/1/1
f 17/1/1 10/1/1 9/1/1
f 18/1/1 10/1/1 17/1/1
f 19/2/1 16/2/1 15/2/1
f 19/2/1 14/2/1 13/2/1
f 19/2/1 15/2/1 14/2/1
f 20/2/1 16/2/1 19/2/1
f 24/2/1 16/2/1 20/2/1
f 25/2/1 16/2/1 24/2/1
f 26/2/1 24/2/1 23/2/1
f 27/2/1 24/2/1 26/2/1
f 29/1/1 22/1/1 21/1/1
f 30/1/1 22/1/1 29/1/1
f 32/5/1 29/5/1 28/5/1
f 33/5/1 29/5/1 32/5/1
f 34/5/1 31/5/1 30/5/1
f 35/5/1 31/5/1 34/5/1
f 36/5/1 34/5/1 33/5/1
f 37/5/1 34/5/1 36/5/1
f 41/1/1 39/1/1 38/1/1
f 42/1/1 39/1/1 41/1/1
f 44/1/1 41/1/1 40/1/1
f 45/1/1 41/1/1 44/1/1
f 46/1/1 43/1/1 42/1/1
f 47/1/1 43/1/1 46/1/1
f 52/2/1 49/2/1 48/2/1
f 53/2/1 49/2/1 52/2/1
f 54/2/1 51/2/1 50/2/1
f 55/2/1 51/2/1 54/2/1
f 59/2/1 57/2/1 56/2/1
f 60/2/1 57/2/1 59/2/1
f 62/2/1 59/2/1 58/2/1
f 62/2/1 61/2/1 60/2/1
f 62/2/1 60/2/1 59/2/1
f 63/2/1 61/2/1 62/2/1
f 64/6/1 63/6/1 62/6/1
f 65/2/1 61/2/1 63/2/1
f 65/6/1 63/6/1 64/6/1
f 66/2/1 61/2/1 65/2/1
f 67/2/1 61/2/1 66/2/1
f 68/2/1 66/2/1 65/2/1
f 69/2/1 66/2/1 68/2/1
f 74/2/1 71/2/1 70/2/1
f 75/2/1 71/2/1 74/2/1
f 76/2/1 73/2/1 72/2/1
f 77/2/1 73/2/1 76/2/1
f 80/2/1 79/2/1 78/2/1
f 81/2/1 79/2/1 80/2/1
f 84/1/1 83/1/1 82/1/1
f 85/1/1 83/1/1 84/1/1
f 88/1/1 87/1/1 86/1/1
f 89/1/1 87/1/1 88/1/1
f 92/2/1 91/2/1 90/2/1
f 93/2/1 91/2/1 92/2/1
f 94/1/2 95/1/2 96/1/2
f 94/1/2 96/1/2 98/1/2
f 96/2/2 97/2/2 98/2/2
f 98/2/2 97/2/2 99/2/2
f 94/1/2 98/1/2 101/1/2
f 101/1/2 98/1/2 102/1/2
f 100/5/2 101/5/2 104/5/2
f 104/5/2 101/5/2 105/5/2
f 102/5/2 103/5/2 106/5/2
f 106/5/2 103/5/2 107/5/2
f 105/5/2 106/5/2 108/5/2
f 108/5/2 106/5/2 109/5/2
f 110/5/2 111/5/2 112/5/2
f 112/5/2 111/5/2 113/5/2
f 114/1/2 115/1/2 116/1/2
f 116/1/2 115/1/2 117/1/2
f 118/1/2 119/1/2 120/1/2
f 120/1/2 119/1/2 121/1/2
f 122/2/2 123/2/2 124/2/2
f 124/2/2 123/2/2 125/2/2
f 126/2/2 127/2/2 130/2/2
f 130/2/2 127/2/2 131/2/2
f 128/2/2 129/2/2 132/2/2
f 132/2/2 129/2/2 133/2/2
f 134/2/2 135/2/2 137/2/2
f 137/2/2 135/2/2 138/2/2
f 136/2/2 137/2/2 140/2/2
f 138/2/2 139/2/2 140/2/2
f 137/2/2 138/2/2 140/2/2
f 140/2/2 139/2/2 141/2/2
f 140/6/2 141/6/2 142/6/2
f 141/2/2 139/2/2 143/2/2
f 142/6/2 141/6/2 143/6/2
f 143/2/2 139/2/2 144/2/2
f 144/2/2 139/2/2 145/2/2
f 143/2/2 144/2/2 146/2/2
f 146/2/2 144/2/2 147/2/2
f 148/1/2 149/1/2 151/1/2
f 151/1/2 149/1/2 152/1/2
f 150/1/2 151/1/2 154/1/2
f 154/1/2 151/1/2 155/1/2
f 152/1/2 153/1/2 156/1/2
f 156/1/2 153/1/2 157/1/2
f 158/2/2 159/2/2 162/2/2
f 162/2/2 159/2/2 163/2/2
f 160/2/2 161/2/2 164/2/2
f 164/2/2 161/2/2 165/2/2
f 166/1/2 167/1/2 169/1/2
f 169/1/2 167/1/2 170/1/2
f 170/1/2 167/1/2 171/1/2
f 168/2/2 169/2/2 173/2/2
f 173/2/2 169/2/2 174/2/2
f 171/2/2 172/2/2 175/2/2
f 170/2/2 171/2/2 175/2/2
f 175/2/2 172/2/2 176/2/2
f 176/2/2 172/2/2 177/2/2
f 174/2/2 175/2/2 178/2/2
f 175/2/2 176/2/2 178/2/2
f 178/2/2 176/2/2 179/2/2
f 180/2/2 181/2/2 182/2/2
f 182/2/2 181/2/2 183/2/2
f 184/2/2 185/2/2 186/2/2
f 186/2/2 185/2/2 187/2/2
f 190/5/3 189/5/3 188/5/3
f 191/5/3 189/5/3 190/5/3
f 197/2/3 193/2/3 192/2/3
f 198/2/3 193/2/3 197/2/3
f 199/5/3 195/5/3 194/5/3
f 200/5/3 195/5/3 199/5/3
f 202/1/3 198/1/3 197/1/3
f 202/1/3 197/1/3 196/1/3
f 202/1/3 199/1/3 198/1/3
f 203/1/3 199/1/3 202/1/3
f 204/5/3 201/5/3 200/5/3
f 205/5/3 201/5/3 204/5/3
f 206/5/3 204/5/3 203/5/3
f 207/5/3 204/5/3 206/5/3
f 210/2/3 209/2/3 208/2/3
f 211/2/3 209/2/3 210/2/3
f 215/2/3 213/2/3 212/2/3
f 216/2/3 213/2/3 215/2/3
f 219/2/3 216/2/3 215/2/3
f 219/2/3 218/2/3 217/2/3
f 219/2/3 217/2/3 216/2/3
f 220/2/3 218/2/3 219/2/3
f 224/2/3 219/2/3 215/2/3
f 224/3/3 220/3/3 219/3/3
f 225/2/3 218/2/3 220/2/3
f 225/3/3 220/3/3 224/3/3
f 226/2/3 222/2/3 221/2/3
f 227/2/3 222/2/3 226/2/3
f 228/2/3 222/2/3 227/2/3
f 229/6/3 223/6/3 222/6/3
f 229/2/3 222/2/3 228/2/3
f 230/6/3 223/6/3 229/6/3
f 232/1/3 215/1/3 214/1/3
f 232/2/3 224/2/3 215/2/3
f 232/2/3 225/2/3 224/2/3
f 233/2/3 225/2/3 232/2/3
f 234/2/3 228/2/3 227/2/3
f 234/4/3 227/4/3 226/4/3
f 235/6/3 229/6/3 228/6/3
f 235/2/3 228/2/3 234/2/3
f 236/2/3 231/2/3 230/2/3
f 236/6/3 229/6/3 235/6/3
f 236/2/3 230/2/3 229/2/3
f 237/1/3 232/1/3 214/1/3
f 237/3/3 233/3/3 232/3/3
f 238/2/3 225/2/3 233/2/3
f 238/3/3 233/3/3 237/3/3
f 239/4/3 234/4/3 226/4/3
f 240/2/3 236/2/3 235/2/3
f 241/2/3 231/2/3 236/2/3
f 241/2/3 236/2/3 240/2/3
f 242/2/3 225/2/3 238/2/3
f 242/2/3 238/2/3 237/2/3
f 243/2/3 218/2/3 225/2/3
f 243/2/3 225/2/3 242/2/3
f 244/4/3 239/4/3 226/4/3
f 244/2/3 226/2/3 221/2/3
f 245/2/3 240/2/3 239/2/3
f 245/4/3 239/4/3 244/4/3
f 246/6/3 241/6/3 240/6/3
f 246/2/3 240/2/3 245/2/3
f 247/2/3 231/2/3 241/2/3
f 247/6/3 241/6/3 246/6/3
f 248/2/3 231/2/3 247/2/3
f 249/2/3 231/2/3 248/2/3
f 250/2/3 242/2/3 237/2/3
f 250/3/3 243/3/3 242/3/3
f 251/2/3 218/2/3 243/2/3
f 251/3/3 243/3/3 250/3/3
f 252/2/3 244/2/3 221/2/3
f 252/2/3 246/2/3 245/2/3
f 252/2/3 245/2/3 244/2/3
f 252/2/3 247/2/3 246/2/3
f 253/6/3 248/6/3 247/6/3
f 253/2/3 247/2/3 252/2/3
f 254/6/3 248/6/3 253/6/3
f 255/1/3 237/1/3 214/1/3
f 256/2/3 250/2/3 237/2/3
f 256/1/3 237/1/3 255/1/3
f 256/2/3 251/2/3 250/2/3
f 257/2/3 218/2/3 251/2/3
f 257/2/3 251/2/3 256/2/3
f 258/2/3 218/2/3 257/2/3
f 259/2/3 257/2/3 256/2/3
f 260/2/3 257/2/3 259/2/3
f 266/1/3 262/1/3 261/1/3
f 267/1/3 262/1/3 266/1/3
f 268/2/3 264/2/3 263/2/3
f 269/2/3 264/2/3 268/2/3
f 274/1/3 266/1/3 265/1/3
f 275/1/3 266/1/3 274/1/3
f 276/2/3 273/2/3 272/2/3
f 277/2/3 273/2/3 276/2/3
f 278/1/3 266/1/3 275/1/3
f 279/1/3 266/1/3 278/1/3
f 283/1/3 281/1/3 280/1/3
f 286/2/3 271/2/3 270/2/3
f 287/2/3 271/2/3 286/2/3
f 288/2/3 285/2/3 284/2/3
f 289/2/3 285/2/3 288/2/3
f 290/1/3 283/1/3 282/1/3
f 291/1/3 281/1/3 283/1/3
f 291/1/3 283/1/3 290/1/3
f 295/1/3 292/1/3 291/1/3
f 296/1/3 292/1/3 295/1/3
f 297/2/3 294/2/3 293/2/3
f 298/2/3 294/2/3 297/2/3
f 300/2/3 297/2/3 296/2/3
f 301/2/3 297/2/3 300/2/3
f 302/2/3 297/2/3 301/2/3
f 303/2/3 300/2/3 299/2/3
f 303/2/3 301/2/3 300/2/3
f 304/2/3 301/2/3 303/2/3
f 305/5/4 306/5/4 310/5/4
f 310/5/4 306/5/4 311/5/4
f 307/1/4 308/1/4 313/1/4
f 313/1/4 308/1/4 314/1/4
f 309/1/4 310/1/4 315/1/4
f 315/1/4 310/1/4 316/1/4
f 311/5/4 312/5/4 317/5/4
f 317/5/4 312/5/4 318/5/4
f 316/5/4 317/5/4 319/5/4
f 319/5/4 317/5/4 320/5/4
f 321/5/4 322/5/4 323/5/4
f 323/5/4 322/5/4 324/5/4
f 325/2/4 326/2/4 328/2/4
f 328/2/4 326/2/4 329/2/4
f 329/2/4 326/2/4 330/2/4
f 327/2/4 328/2/4 331/2/4
f 328/2/4 329/2/4 331/2/4
f 331/2/4 329/2/4 332/2/4
f 333/2/4 334/2/4 337/2/4
f 337/2/4 334/2/4 338/2/4
f 335/1/4 336/1/4 341/1/4
f 341/1/4 336/1/4 342/1/4
f 338/2/4 339/2/4 343/2/4
f 343/2/4 339/2/4 344/2/4
f 340/1/4 341/1/4 349/1/4
f 349/1/4 341/1/4 350/1/4
f 347/2/4 348/2/4 351/2/4
f 351/2/4 348/2/4 352/2/4
f 350/1/4 341/1/4 353/1/4
f 353/1/4 341/1/4 354/1/4
f 355/1/4 356/1/4 358/1/4
f 345/2/4 346/2/4 361/2/4
f 361/2/4 346/2/4 362/2/4
f 359/2/4 360/2/4 363/2/4
f 363/2/4 360/2/4 364/2/4
f 357/1/4 358/1/4 365/1/4
f 358/1/4 356/1/4 366/1/4
f 365/1/4 358/1/4 366/1/4
f 366/1/4 367/1/4 370/1/4
f 370/1/4 367/1/4 371/1/4
f 368/2/4 369/2/4 372/2/4
f 372/2/4 369/2/4 373/2/4
f 374/2/4 375/2/4 377/2/4
f 377/2/4 375/2/4 378/2/4
f 380/2/4 381/2/4 382/2/4
f 380/2/4 382/2/4 384/2/4
f 382/2/4 383/2/4 384/2/4
f 384/2/4 383/2/4 385/2/4
f 380/2/4 384/2/4 386/2/4
f 386/2/4 384/2/4 387/2/4
f 376/1/4 377/1/4 388/1/4
f 377/2/4 378/2/4 389/2/4
f 388/1/4 377/1/4 389/1/4
f 378/2/4 379/2/4 389/2/4
f 389/2/4 379/2/4 390/2/4
f 390/2/4 379/2/4 391/2/4
f 389/2/4 390/2/4 392/2/4
f 392/2/4 390/2/4 393/2/4
f 396/1/5 395/1/5 394/1/5
f 397/1/5 395/1/5 396/1/5
f 402/1/5 399/1/5 398/1/5
f 403/1/5 399/1/5 402/1/5
f 404/1/5 401/1/5 400/1/5
f 405/1/5 401/1/5 404/1/5
f 410/1/5 407/1/5 406/1/5
f 411/1/5 407/1/5 410/1/5
f 412/1/5 409/1/5 408/1/5
f 413/1/5 409/1/5 412/1/5
f 417/1/5 415/1/5 414/1/5
f 418/1/5 415/1/5 417/1/5
f 419/1/5 415/1/5 418/1/5
f 420/1/5 415/1/5 419/1/5
f 424/2/5 423/2/5 422/2/5
f 425/2/5 423/2/5 424/2/5
f 426/1/5 417/1/5 416/1/5
f 427/1/5 417/1/5 426/1/5
f 428/1/5 419/1/5 418/1/5
f 429/1/5 419/1/5 428/1/5
f 430/1/5 421/1/5 420/1/5
f 431/1/5 421/1/5 430/1/5
f 432/1/5 429/1/5 428/1/5
f 432/1/5 430/1/5 429/1/5
f 432/1/5 428/1/5 427/1/5
f 433/1/5 430/1/5 432/1/5
f 438/2/5 435/2/5 434/2/5
f 439/2/5 435/2/5 438/2/5
f 440/2/5 437/2/5 436/2/5
f 441/2/5 437/2/5 440/2/5
f 443/2/5 442/2/5 441/2/5
f 444/2/5 442/2/5 443/2/5
f 449/2/5 446/2/5 445/2/5
f 450/2/5 446/2/5 449/2/5
f 451/2/5 448/2/5 447/2/5
f 452/2/5 448/2/5 451/2/5
f 455/2/5 454/2/5 453/2/5
f 457/2/5 455/2/5 453/2/5
f 457/2/5 456/2/5 455/2/5
f 458/2/5 456/2/5 457/2/5
f 459/2/5 457/2/5 453/2/5
f 460/2/5 457/2/5 459/2/5
f 463/2/5 462/2/5 461/2/5
f 464/2/5 462/2/5 463/2/5
f 467/2/5 466/2/5 465/2/5
f 468/2/5 466/2/5 467/2/5
f 472/5/5 470/5/5 469/5/5
f 473/5/5 470/5/5 472/5/5
f 475/5/5 472/5/5 471/5/5
f 476/5/5 472/5/5 475/5/5
f 477/5/5 474/5/5 473/5/5
f 478/5/5 474/5/5 477/5/5
f 479/5/5 477/5/5 476/5/5
f 480/5/5 477/5/5 479/5/5
f 483/2/5 482/2/5 481/2/5
f 484/2/5 482/2/5 483/2/5
f 485/2/6 486/2/6 487/2/6
f 487/2/6 486/2/6 488/2/6
f 489/2/6 490/2/6 491/2/6
f 491/2/6 492/2/6 493/2/6
f 489/2/6 491/2/6 496/2/6
f 491/2/6 493/2/6 496/2/6
f 496/2/6 493/2/6 497/2/6
f 494/2/6 495/2/6 498/2/6
f 498/2/6 495/2/6 499/2/6
f 499/2/6 500/2/6 501/2/6
f 501/2/6 500/2/6 502/2/6
f 489/2/6 496/2/6 503/2/6
f 503/2/6 496/2/6 504/2/6
f 504/2/6 505/2/6 508/2/6
f 508/2/6 505/2/6 509/2/6
f 506/2/6 507/2/6 510/2/6
f 510/2/6 507/2/6 511/2/6
f 512/2/6 513/2/6 515/2/6
f 515/2/6 513/2/6 516/2/6
f 516/2/6 513/2/6 517/2/6
f 517/2/6 513/2/6 518/2/6
f 514/2/6 515/2/6 520/2/6
f 515/2/6 516/2/6 520/2/6
f 520/2/6 516/2/6 521/2/6
f 521/2/6 516/2/6 522/2/6
f 518/2/6 519/2/6 523/2/6
f 517/2/6 518/2/6 523/2/6
f 523/2/6 519/2/6 524/2/6
f 524/2/6 519/2/6 525/2/6
f 521/2/6 522/2/6 526/2/6
f 523/2/6 524/2/6 526/2/6
f 522/2/6 523/2/6 526/2/6
f 526/2/6 524/2/6 527/2/6
f 528/5/6 529/5/6 531/5/6
f 531/5/6 529/5/6 532/5/6
f 530/5/6 531/5/6 534/5/6
f 534/5/6 531/5/6 535/5/6
f 532/5/6 533/5/6 536/5/6
f 536/5/6 533/5/6 537/5/6
f 535/5/6 536/5/6 540/5/6
f 540/5/6 536/5/6 541/5/6
f 538/2/6 539/2/6 542/2/6
f 542/2/6 539/2/6 543/2/6
f 544/5/6 545/5/6 546/5/6
f 546/5/6 545/5/6 547/5/6
f 548/6/6 549/6/6 552/6/6
f 552/6/6 549/6/6 553/6/6
f 550/6/6 551/6/6 554/6/6
f 554/6/6 551/6/6 555/6/6
f 556/2/6 557/2/6 560/2/6
f 560/2/6 557/2/6 561/2/6
f 558/2/6 559/2/6 562/2/6
f 562/2/6 559/2/6 563/2/6
f 564/2/6 565/2/6 567/2/6
f 567/2/6 565/2/6 568/2/6
f 566/2/6 567/2/6 570/2/6
f 568/2/6 569/2/6 570/2/6
f 567/2/6 568/2/6 570/2/6
f 570/2/6 569/2/6 571/2/6
f 571/2/6 569/2/6 572/2/6
f 572/2/6 569/2/6 573/2/6
f 571/2/6 572/2/6 574/2/6
f 574/2/6 572/2/6 575/2/6
