# MagicaVoxel @ Ephtracy

# group
o 

# material
mtllib StrajGDospex.mtl
usemtl palette

# normals
vn -1 0 0
vn 1 0 0
vn 0 0 1
vn 0 0 -1
vn 0 -1 0
vn 0 1 0

# texcoords
vt 0.373047 0.5
vt 0.888672 0.5
vt 0.970703 0.5
vt 0.974609 0.5
vt 0.978516 0.5
vt 0.994141 0.5

# verts
v -0.5 0.5 0.5
v -0.5 0.5 0.4
v -0.5 0.5 -0.2
v -0.5 0.7 0.5
v -0.5 0.7 0.4
v -0.5 0.7 -0.2
v -0.5 1 0.5
v -0.5 1 0.4
v -0.5 1.2 0.5
v -0.5 1.2 0.4
v -0.4 0 0.5
v -0.4 0 0.4
v -0.4 0.2 0.1
v -0.4 0.2 -0.2
v -0.4 0.3 0.2
v -0.4 0.3 0.1
v -0.4 0.3 -0.2
v -0.4 0.3 -0.3
v -0.4 0.5 0.5
v -0.4 0.5 0.4
v -0.4 0.5 0.2
v -0.4 0.5 -0.2
v -0.4 0.7 0.5
v -0.4 0.7 0.4
v -0.4 0.7 0.1
v -0.4 0.7 -0.2
v -0.4 0.7 -0.3
v -0.4 0.8 0.1
v -0.4 0.8 -0.2
v -0.4 1 0.6
v -0.4 1 0.5
v -0.4 1 0.4
v -0.4 1 0.3
v -0.4 1.2 0.6
v -0.4 1.2 0.5
v -0.4 1.2 0.4
v -0.4 1.2 0.3
v -0.4 1.4 0.5
v -0.4 1.4 0.4
v -0.3 0 0.1
v -0.3 0 -0.2
v -0.3 0.1 0.1
v -0.3 0.1 -0.2
v -0.3 0.2 0.2
v -0.3 0.2 0.1
v -0.3 0.2 -0.2
v -0.3 0.2 -0.3
v -0.3 0.3 0.2
v -0.3 0.3 0.1
v -0.3 0.3 -0.2
v -0.3 0.3 -0.3
v -0.3 0.7 0.2
v -0.3 0.7 0.1
v -0.3 0.7 -0.2
v -0.3 0.7 -0.3
v -0.3 0.8 0.2
v -0.3 0.8 0.1
v -0.3 0.8 -0.2
v -0.3 0.8 -0.3
v -0.2 0.8 0.1
v -0.2 0.8 -0.2
v -0.2 0.9 0.2
v -0.2 0.9 0.1
v -0.2 0.9 -0.2
v -0.2 0.9 -0.3
v -0.2 1.1 0.2
v -0.2 1.1 0.1
v -0.2 1.4 0.2
v -0.2 1.4 0.1
v -0.2 1.4 -0.2
v -0.2 1.4 -0.3
v -0.2 1.5 0.1
v -0.2 1.5 -0.2
v -0.1 1.4 0.2
v -0.1 1.4 0.1
v -0.1 1.4 -0.2
v -0.1 1.4 -0.3
v -0.1 1.5 0.2
v -0.1 1.5 0.1
v -0.1 1.5 -0.2
v -0.1 1.5 -0.3
v 0 1.1 0.4
v 0 1.1 0.2
v 0 1.2 0.4
v 0 1.2 0.2
v 0.1 0.1 0.1
v 0.1 0.1 -0.2
v 0.1 0.2 0.1
v 0.1 0.2 -0.2
v 0.2 0 0.1
v 0.2 0 -0.2
v 0.2 0.1 0.1
v 0.2 0.1 -0.2
v 0.6 0.1 0.1
v 0.6 0.1 -0.1
v 0.6 0.2 0.1
v 0.6 0.2 -0.1
v -0.3 0 0.5
v -0.3 0 0.4
v -0.3 0.5 0.4
v -0.3 0.5 0.3
v -0.3 0.5 0.2
v -0.3 0.6 0.2
v -0.3 0.7 0.4
v -0.3 0.7 0.3
v -0.3 0.7 0.2
v -0.3 1 0.6
v -0.3 1 0.5
v -0.3 1 0.4
v -0.3 1 0.3
v -0.3 1.2 0.6
v -0.3 1.2 0.5
v -0.3 1.2 0.4
v -0.3 1.2 0.3
v -0.3 1.4 0.5
v -0.3 1.4 0.4
v -0.2 1 0.5
v -0.2 1 0.4
v -0.2 1.2 0.5
v -0.2 1.2 0.4
v -0.1 0 0.1
v -0.1 0 -0.2
v -0.1 0.1 0.1
v -0.1 0.1 -0.2
v 0 0.1 0.1
v 0 0.1 -0.2
v 0 0.2 0.1
v 0 0.2 -0.2
v 0.1 1.1 0.4
v 0.1 1.1 0.2
v 0.1 1.2 0.4
v 0.1 1.2 0.2
v 0.2 1.4 0.2
v 0.2 1.4 0.1
v 0.2 1.4 -0.2
v 0.2 1.4 -0.3
v 0.2 1.5 0.2
v 0.2 1.5 0.1
v 0.2 1.5 -0.2
v 0.2 1.5 -0.3
v 0.3 0.8 0.1
v 0.3 0.8 -0.2
v 0.3 0.9 0.2
v 0.3 0.9 0.1
v 0.3 0.9 -0.2
v 0.3 0.9 -0.3
v 0.3 1.1 0.2
v 0.3 1.1 0.1
v 0.3 1.4 0.2
v 0.3 1.4 0.1
v 0.3 1.4 -0.2
v 0.3 1.4 -0.3
v 0.3 1.5 0.1
v 0.3 1.5 -0.2
v 0.4 0 0.1
v 0.4 0 -0.2
v 0.4 0.1 0.1
v 0.4 0.1 -0.2
v 0.4 0.2 0.2
v 0.4 0.2 0.1
v 0.4 0.2 -0.2
v 0.4 0.2 -0.3
v 0.4 0.3 0.2
v 0.4 0.3 0.1
v 0.4 0.3 -0.2
v 0.4 0.3 -0.3
v 0.4 0.7 0.2
v 0.4 0.7 0.1
v 0.4 0.7 -0.2
v 0.4 0.7 -0.3
v 0.4 0.8 0.2
v 0.4 0.8 0.1
v 0.4 0.8 -0.2
v 0.4 0.8 -0.3
v 0.5 0.2 -0.1
v 0.5 0.2 -0.2
v 0.5 0.3 0.2
v 0.5 0.3 0.1
v 0.5 0.3 -0.1
v 0.5 0.3 -0.2
v 0.5 0.3 -0.3
v 0.5 0.7 0.2
v 0.5 0.7 0.1
v 0.5 0.7 -0.1
v 0.5 0.7 -0.2
v 0.5 0.7 -0.3
v 0.5 0.8 0.1
v 0.5 0.8 -0.2
v 0.6 0.6 0.1
v 0.6 0.6 -0.1
v 0.6 0.7 0.1
v 0.6 0.7 -0.1
v 0.7 0.1 0.1
v 0.7 0.1 -0.1
v 0.7 0.3 0.1
v 0.7 0.3 -0.1
v 0.7 0.6 0.1
v 0.7 0.6 -0.1
v -0.4 1 0.6
v -0.4 1.2 0.6
v -0.3 1 0.6
v -0.3 1.2 0.6
v -0.5 0.5 0.5
v -0.5 0.7 0.5
v -0.5 1 0.5
v -0.5 1.2 0.5
v -0.4 0 0.5
v -0.4 0.5 0.5
v -0.4 0.7 0.5
v -0.4 1 0.5
v -0.4 1.2 0.5
v -0.4 1.4 0.5
v -0.3 0 0.5
v -0.3 1 0.5
v -0.3 1.2 0.5
v -0.3 1.4 0.5
v -0.2 1 0.5
v -0.2 1.2 0.5
v 0 1.1 0.4
v 0 1.2 0.4
v 0.1 1.1 0.4
v 0.1 1.2 0.4
v -0.4 0.3 0.2
v -0.4 0.5 0.2
v -0.3 0.2 0.2
v -0.3 0.3 0.2
v -0.3 0.5 0.2
v -0.3 0.6 0.2
v -0.3 0.7 0.2
v -0.3 0.8 0.2
v -0.2 0.9 0.2
v -0.2 1.1 0.2
v -0.2 1.4 0.2
v -0.1 0.4 0.2
v -0.1 0.5 0.2
v -0.1 0.6 0.2
v -0.1 0.9 0.2
v -0.1 1.1 0.2
v -0.1 1.2 0.2
v -0.1 1.3 0.2
v -0.1 1.4 0.2
v -0.1 1.5 0.2
v 0 0.2 0.2
v 0 0.4 0.2
v 0 0.9 0.2
v 0 1.1 0.2
v 0 1.2 0.2
v 0 1.3 0.2
v 0.1 0.2 0.2
v 0.1 0.4 0.2
v 0.1 0.9 0.2
v 0.1 1.1 0.2
v 0.1 1.2 0.2
v 0.1 1.3 0.2
v 0.2 0.4 0.2
v 0.2 0.5 0.2
v 0.2 0.6 0.2
v 0.2 0.9 0.2
v 0.2 1.1 0.2
v 0.2 1.2 0.2
v 0.2 1.3 0.2
v 0.2 1.4 0.2
v 0.2 1.5 0.2
v 0.3 0.9 0.2
v 0.3 1.1 0.2
v 0.3 1.4 0.2
v 0.4 0.2 0.2
v 0.4 0.3 0.2
v 0.4 0.5 0.2
v 0.4 0.6 0.2
v 0.4 0.7 0.2
v 0.4 0.8 0.2
v 0.5 0.3 0.2
v 0.5 0.7 0.2
v -0.4 0.2 0.1
v -0.4 0.3 0.1
v -0.4 0.7 0.1
v -0.4 0.8 0.1
v -0.3 0 0.1
v -0.3 0.1 0.1
v -0.3 0.2 0.1
v -0.3 0.3 0.1
v -0.3 0.7 0.1
v -0.3 0.8 0.1
v -0.2 0.8 0.1
v -0.2 0.9 0.1
v -0.2 1.4 0.1
v -0.2 1.5 0.1
v -0.1 0 0.1
v -0.1 0.1 0.1
v -0.1 0.9 0.1
v -0.1 1.4 0.1
v -0.1 1.5 0.1
v 0 0.1 0.1
v 0 0.2 0.1
v 0 0.9 0.1
v 0.1 0.1 0.1
v 0.1 0.2 0.1
v 0.1 0.9 0.1
v 0.2 0 0.1
v 0.2 0.1 0.1
v 0.2 0.9 0.1
v 0.2 1.4 0.1
v 0.2 1.5 0.1
v 0.3 0.8 0.1
v 0.3 0.9 0.1
v 0.3 1.4 0.1
v 0.3 1.5 0.1
v 0.4 0 0.1
v 0.4 0.1 0.1
v 0.4 0.2 0.1
v 0.4 0.3 0.1
v 0.4 0.7 0.1
v 0.4 0.8 0.1
v 0.5 0.2 0.1
v 0.5 0.3 0.1
v 0.5 0.7 0.1
v 0.5 0.8 0.1
v 0.6 0.1 0.1
v 0.6 0.2 0.1
v 0.6 0.6 0.1
v 0.6 0.7 0.1
v 0.7 0.1 0.1
v 0.7 0.3 0.1
v 0.7 0.6 0.1
v -0.5 1 0.4
v -0.5 1.2 0.4
v -0.4 0 0.4
v -0.4 0.5 0.4
v -0.4 0.7 0.4
v -0.4 1 0.4
v -0.4 1.2 0.4
v -0.4 1.4 0.4
v -0.3 0 0.4
v -0.3 0.5 0.4
v -0.3 0.7 0.4
v -0.3 1 0.4
v -0.3 1.2 0.4
v -0.3 1.4 0.4
v -0.2 1 0.4
v -0.2 1.2 0.4
v -0.4 1 0.3
v -0.4 1.2 0.3
v -0.3 1 0.3
v -0.3 1.2 0.3
v 0.5 0.2 -0.1
v 0.5 0.3 -0.1
v 0.5 0.7 -0.1
v 0.6 0.1 -0.1
v 0.6 0.2 -0.1
v 0.6 0.6 -0.1
v 0.6 0.7 -0.1
v 0.7 0.1 -0.1
v 0.7 0.3 -0.1
v 0.7 0.6 -0.1
v -0.5 0.5 -0.2
v -0.5 0.7 -0.2
v -0.4 0.2 -0.2
v -0.4 0.3 -0.2
v -0.4 0.5 -0.2
v -0.4 0.7 -0.2
v -0.4 0.8 -0.2
v -0.3 0 -0.2
v -0.3 0.1 -0.2
v -0.3 0.2 -0.2
v -0.3 0.3 -0.2
v -0.3 0.7 -0.2
v -0.3 0.8 -0.2
v -0.2 0.8 -0.2
v -0.2 0.9 -0.2
v -0.2 1.4 -0.2
v -0.2 1.5 -0.2
v -0.1 0 -0.2
v -0.1 0.1 -0.2
v -0.1 1.4 -0.2
v -0.1 1.5 -0.2
v 0 0.1 -0.2
v 0 0.2 -0.2
v 0.1 0.1 -0.2
v 0.1 0.2 -0.2
v 0.2 0 -0.2
v 0.2 0.1 -0.2
v 0.2 1.4 -0.2
v 0.2 1.5 -0.2
v 0.3 0.8 -0.2
v 0.3 0.9 -0.2
v 0.3 1.4 -0.2
v 0.3 1.5 -0.2
v 0.4 0 -0.2
v 0.4 0.1 -0.2
v 0.4 0.2 -0.2
v 0.4 0.3 -0.2
v 0.4 0.7 -0.2
v 0.4 0.8 -0.2
v 0.5 0.2 -0.2
v 0.5 0.3 -0.2
v 0.5 0.7 -0.2
v 0.5 0.8 -0.2
v -0.4 0.3 -0.3
v -0.4 0.7 -0.3
v -0.3 0.2 -0.3
v -0.3 0.3 -0.3
v -0.3 0.4 -0.3
v -0.3 0.5 -0.3
v -0.3 0.7 -0.3
v -0.3 0.8 -0.3
v -0.2 0.9 -0.3
v -0.2 1.4 -0.3
v -0.1 0.4 -0.3
v -0.1 0.5 -0.3
v -0.1 0.7 -0.3
v -0.1 1.4 -0.3
v -0.1 1.5 -0.3
v 0 0.5 -0.3
v 0 0.7 -0.3
v 0.1 0.5 -0.3
v 0.1 0.7 -0.3
v 0.2 0.4 -0.3
v 0.2 0.5 -0.3
v 0.2 0.7 -0.3
v 0.2 1.4 -0.3
v 0.2 1.5 -0.3
v 0.3 0.9 -0.3
v 0.3 1.4 -0.3
v 0.4 0.2 -0.3
v 0.4 0.3 -0.3
v 0.4 0.4 -0.3
v 0.4 0.5 -0.3
v 0.4 0.7 -0.3
v 0.4 0.8 -0.3
v 0.5 0.3 -0.3
v 0.5 0.7 -0.3
v -0.4 0 0.5
v -0.3 0 0.5
v -0.4 0 0.4
v -0.3 0 0.4
v -0.3 0 0.1
v -0.1 0 0.1
v 0.2 0 0.1
v 0.4 0 0.1
v -0.3 0 -0.2
v -0.1 0 -0.2
v 0.2 0 -0.2
v 0.4 0 -0.2
v -0.1 0.1 0.1
v 0 0.1 0.1
v 0.1 0.1 0.1
v 0.2 0.1 0.1
v 0.6 0.1 0.1
v 0.7 0.1 0.1
v 0.6 0.1 -0.1
v 0.7 0.1 -0.1
v -0.1 0.1 -0.2
v 0 0.1 -0.2
v 0.1 0.1 -0.2
v 0.2 0.1 -0.2
v -0.3 0.2 0.2
v 0 0.2 0.2
v 0.1 0.2 0.2
v 0.4 0.2 0.2
v -0.4 0.2 0.1
v -0.3 0.2 0.1
v 0 0.2 0.1
v 0.1 0.2 0.1
v 0.4 0.2 0.1
v 0.5 0.2 0.1
v 0.6 0.2 0.1
v 0.5 0.2 -0.1
v 0.6 0.2 -0.1
v -0.4 0.2 -0.2
v -0.3 0.2 -0.2
v 0 0.2 -0.2
v 0.1 0.2 -0.2
v 0.4 0.2 -0.2
v 0.5 0.2 -0.2
v -0.3 0.2 -0.3
v 0.4 0.2 -0.3
v -0.4 0.3 0.2
v -0.3 0.3 0.2
v 0.4 0.3 0.2
v 0.5 0.3 0.2
v -0.4 0.3 0.1
v -0.3 0.3 0.1
v 0.4 0.3 0.1
v 0.5 0.3 0.1
v -0.4 0.3 -0.2
v -0.3 0.3 -0.2
v 0.4 0.3 -0.2
v 0.5 0.3 -0.2
v -0.4 0.3 -0.3
v -0.3 0.3 -0.3
v 0.4 0.3 -0.3
v 0.5 0.3 -0.3
v -0.5 0.5 0.5
v -0.4 0.5 0.5
v -0.5 0.5 0.4
v -0.4 0.5 0.4
v -0.3 0.5 0.4
v -0.4 0.5 0.3
v -0.3 0.5 0.3
v -0.4 0.5 0.2
v -0.3 0.5 0.2
v -0.5 0.5 -0.2
v -0.4 0.5 -0.2
v -0.2 0.9 0.2
v -0.1 0.9 0.2
v 0 0.9 0.2
v 0.1 0.9 0.2
v 0.2 0.9 0.2
v 0.3 0.9 0.2
v -0.2 0.9 0.1
v -0.1 0.9 0.1
v 0 0.9 0.1
v 0.1 0.9 0.1
v 0.2 0.9 0.1
v 0.3 0.9 0.1
v -0.2 0.9 -0.2
v 0.3 0.9 -0.2
v -0.2 0.9 -0.3
v 0.3 0.9 -0.3
v -0.4 1 0.6
v -0.3 1 0.6
v -0.5 1 0.5
v -0.4 1 0.5
v -0.3 1 0.5
v -0.2 1 0.5
v -0.5 1 0.4
v -0.4 1 0.4
v -0.3 1 0.4
v -0.2 1 0.4
v -0.4 1 0.3
v -0.3 1 0.3
v 0 1.1 0.4
v 0.1 1.1 0.4
v 0 1.1 0.2
v 0.1 1.1 0.2
v 0.6 0.6 0.1
v 0.7 0.6 0.1
v 0.6 0.6 -0.1
v 0.7 0.6 -0.1
v -0.5 0.7 0.5
v -0.4 0.7 0.5
v -0.5 0.7 0.4
v -0.4 0.7 0.4
v -0.3 0.7 0.4
v -0.4 0.7 0.3
v -0.3 0.7 0.3
v -0.3 0.7 0.2
v 0.4 0.7 0.2
v 0.5 0.7 0.2
v -0.4 0.7 0.1
v -0.3 0.7 0.1
v 0.4 0.7 0.1
v 0.5 0.7 0.1
v 0.6 0.7 0.1
v 0.5 0.7 -0.1
v 0.6 0.7 -0.1
v -0.5 0.7 -0.2
v -0.4 0.7 -0.2
v -0.3 0.7 -0.2
v 0.4 0.7 -0.2
v 0.5 0.7 -0.2
v -0.4 0.7 -0.3
v -0.3 0.7 -0.3
v 0.4 0.7 -0.3
v 0.5 0.7 -0.3
v -0.3 0.8 0.2
v 0.4 0.8 0.2
v -0.4 0.8 0.1
v -0.3 0.8 0.1
v -0.2 0.8 0.1
v 0.3 0.8 0.1
v 0.4 0.8 0.1
v 0.5 0.8 0.1
v -0.4 0.8 -0.2
v -0.3 0.8 -0.2
v -0.2 0.8 -0.2
v 0.3 0.8 -0.2
v 0.4 0.8 -0.2
v 0.5 0.8 -0.2
v -0.3 0.8 -0.3
v 0.4 0.8 -0.3
v -0.4 1.2 0.6
v -0.3 1.2 0.6
v -0.5 1.2 0.5
v -0.4 1.2 0.5
v -0.3 1.2 0.5
v -0.2 1.2 0.5
v -0.5 1.2 0.4
v -0.4 1.2 0.4
v -0.3 1.2 0.4
v -0.2 1.2 0.4
v 0 1.2 0.4
v 0.1 1.2 0.4
v -0.4 1.2 0.3
v -0.3 1.2 0.3
v 0 1.2 0.2
v 0.1 1.2 0.2
v -0.4 1.4 0.5
v -0.3 1.4 0.5
v -0.4 1.4 0.4
v -0.3 1.4 0.4
v -0.2 1.4 0.2
v -0.1 1.4 0.2
v 0.2 1.4 0.2
v 0.3 1.4 0.2
v -0.2 1.4 0.1
v -0.1 1.4 0.1
v 0.2 1.4 0.1
v 0.3 1.4 0.1
v -0.2 1.4 -0.2
v -0.1 1.4 -0.2
v 0.2 1.4 -0.2
v 0.3 1.4 -0.2
v -0.2 1.4 -0.3
v -0.1 1.4 -0.3
v 0.2 1.4 -0.3
v 0.3 1.4 -0.3
v -0.1 1.5 0.2
v 0.2 1.5 0.2
v -0.2 1.5 0.1
v -0.1 1.5 0.1
v 0.2 1.5 0.1
v 0.3 1.5 0.1
v -0.2 1.5 -0.2
v -0.1 1.5 -0.2
v 0.2 1.5 -0.2
v 0.3 1.5 -0.2
v -0.1 1.5 -0.3
v 0.2 1.5 -0.3

# faces
f 4/2/1 2/2/1 1/2/1
f 5/3/1 3/3/1 2/3/1
f 5/2/1 2/2/1 4/2/1
f 6/3/1 3/3/1 5/3/1
f 9/3/1 8/3/1 7/3/1
f 10/3/1 8/3/1 9/3/1
f 16/3/1 14/3/1 13/3/1
f 17/3/1 14/3/1 16/3/1
f 19/1/1 12/1/1 11/1/1
f 20/1/1 12/1/1 19/1/1
f 21/3/1 18/3/1 17/3/1
f 21/3/1 16/3/1 15/3/1
f 21/3/1 17/3/1 16/3/1
f 22/3/1 18/3/1 21/3/1
f 26/3/1 18/3/1 22/3/1
f 27/3/1 18/3/1 26/3/1
f 28/4/1 26/4/1 25/4/1
f 29/4/1 26/4/1 28/4/1
f 31/1/1 24/1/1 23/1/1
f 32/1/1 24/1/1 31/1/1
f 34/3/1 31/3/1 30/3/1
f 35/3/1 31/3/1 34/3/1
f 36/3/1 33/3/1 32/3/1
f 37/3/1 33/3/1 36/3/1
f 38/3/1 36/3/1 35/3/1
f 39/3/1 36/3/1 38/3/1
f 42/5/1 41/5/1 40/5/1
f 43/5/1 41/5/1 42/5/1
f 45/3/1 43/3/1 42/3/1
f 46/3/1 43/3/1 45/3/1
f 48/3/1 45/3/1 44/3/1
f 49/3/1 45/3/1 48/3/1
f 50/3/1 47/3/1 46/3/1
f 51/3/1 47/3/1 50/3/1
f 56/3/1 53/3/1 52/3/1
f 57/3/1 53/3/1 56/3/1
f 58/3/1 55/3/1 54/3/1
f 59/3/1 55/3/1 58/3/1
f 63/3/1 61/3/1 60/3/1
f 64/3/1 61/3/1 63/3/1
f 66/5/1 63/5/1 62/5/1
f 67/3/1 65/3/1 64/3/1
f 67/5/1 63/5/1 66/5/1
f 67/3/1 64/3/1 63/3/1
f 68/3/1 67/3/1 66/3/1
f 69/3/1 65/3/1 67/3/1
f 69/3/1 67/3/1 68/3/1
f 70/3/1 65/3/1 69/3/1
f 71/3/1 65/3/1 70/3/1
f 72/3/1 70/3/1 69/3/1
f 73/3/1 70/3/1 72/3/1
f 78/3/1 75/3/1 74/3/1
f 79/3/1 75/3/1 78/3/1
f 80/3/1 77/3/1 76/3/1
f 81/3/1 77/3/1 80/3/1
f 84/2/1 83/2/1 82/2/1
f 85/2/1 83/2/1 84/2/1
f 88/3/1 87/3/1 86/3/1
f 89/3/1 87/3/1 88/3/1
f 92/5/1 91/5/1 90/5/1
f 93/5/1 91/5/1 92/5/1
f 96/2/1 95/2/1 94/2/1
f 97/2/1 95/2/1 96/2/1
f 98/1/2 99/1/2 100/1/2
f 101/3/2 102/3/2 103/3/2
f 98/1/2 100/1/2 104/1/2
f 100/2/2 101/2/2 104/2/2
f 101/3/2 103/3/2 105/3/2
f 104/2/2 101/2/2 105/2/2
f 105/3/2 103/3/2 106/3/2
f 98/1/2 104/1/2 108/1/2
f 108/1/2 104/1/2 109/1/2
f 107/3/2 108/3/2 111/3/2
f 111/3/2 108/3/2 112/3/2
f 109/3/2 110/3/2 113/3/2
f 113/3/2 110/3/2 114/3/2
f 112/3/2 113/3/2 115/3/2
f 115/3/2 113/3/2 116/3/2
f 117/3/2 118/3/2 119/3/2
f 119/3/2 118/3/2 120/3/2
f 121/5/2 122/5/2 123/5/2
f 123/5/2 122/5/2 124/5/2
f 125/3/2 126/3/2 127/3/2
f 127/3/2 126/3/2 128/3/2
f 129/2/2 130/2/2 131/2/2
f 131/2/2 130/2/2 132/2/2
f 133/3/2 134/3/2 137/3/2
f 137/3/2 134/3/2 138/3/2
f 135/3/2 136/3/2 139/3/2
f 139/3/2 136/3/2 140/3/2
f 141/3/2 142/3/2 144/3/2
f 144/3/2 142/3/2 145/3/2
f 143/5/2 144/5/2 147/5/2
f 145/3/2 146/3/2 148/3/2
f 147/5/2 144/5/2 148/5/2
f 144/3/2 145/3/2 148/3/2
f 147/3/2 148/3/2 149/3/2
f 148/3/2 146/3/2 150/3/2
f 149/3/2 148/3/2 150/3/2
f 150/3/2 146/3/2 151/3/2
f 151/3/2 146/3/2 152/3/2
f 150/3/2 151/3/2 153/3/2
f 153/3/2 151/3/2 154/3/2
f 155/5/2 156/5/2 157/5/2
f 157/5/2 156/5/2 158/5/2
f 157/3/2 158/3/2 160/3/2
f 160/3/2 158/3/2 161/3/2
f 159/3/2 160/3/2 163/3/2
f 163/3/2 160/3/2 164/3/2
f 161/3/2 162/3/2 165/3/2
f 165/3/2 162/3/2 166/3/2
f 167/3/2 168/3/2 171/3/2
f 171/3/2 168/3/2 172/3/2
f 169/3/2 170/3/2 173/3/2
f 173/3/2 170/3/2 174/3/2
f 175/3/2 176/3/2 179/3/2
f 179/3/2 176/3/2 180/3/2
f 177/3/2 178/3/2 182/3/2
f 182/3/2 178/3/2 183/3/2
f 180/3/2 181/3/2 184/3/2
f 179/3/2 180/3/2 184/3/2
f 184/3/2 181/3/2 185/3/2
f 185/3/2 181/3/2 186/3/2
f 183/4/2 184/4/2 187/4/2
f 184/4/2 185/4/2 187/4/2
f 187/4/2 185/4/2 188/4/2
f 189/3/2 190/3/2 191/3/2
f 191/3/2 190/3/2 192/3/2
f 193/2/2 194/2/2 195/2/2
f 195/2/2 194/2/2 196/2/2
f 195/3/2 196/3/2 197/3/2
f 197/3/2 196/3/2 198/3/2
f 201/3/3 200/3/3 199/3/3
f 202/3/3 200/3/3 201/3/3
f 208/2/3 204/2/3 203/2/3
f 209/2/3 204/2/3 208/2/3
f 210/3/3 206/3/3 205/3/3
f 211/3/3 206/3/3 210/3/3
f 213/1/3 209/1/3 208/1/3
f 213/1/3 208/1/3 207/1/3
f 213/1/3 210/1/3 209/1/3
f 214/1/3 210/1/3 213/1/3
f 215/3/3 212/3/3 211/3/3
f 216/3/3 212/3/3 215/3/3
f 217/3/3 215/3/3 214/3/3
f 218/3/3 215/3/3 217/3/3
f 221/2/3 220/2/3 219/2/3
f 222/2/3 220/2/3 221/2/3
f 226/3/3 224/3/3 223/3/3
f 227/3/3 224/3/3 226/3/3
f 234/3/3 226/3/3 225/3/3
f 234/3/3 227/3/3 226/3/3
f 235/4/3 228/4/3 227/4/3
f 235/3/3 227/3/3 234/3/3
f 236/3/3 229/3/3 228/3/3
f 236/4/3 228/4/3 235/4/3
f 236/3/3 230/3/3 229/3/3
f 237/5/3 232/5/3 231/5/3
f 238/3/3 233/3/3 232/3/3
f 238/5/3 232/5/3 237/5/3
f 239/3/3 233/3/3 238/3/3
f 240/3/3 233/3/3 239/3/3
f 241/3/3 233/3/3 240/3/3
f 243/3/3 234/3/3 225/3/3
f 244/4/3 235/4/3 234/4/3
f 244/3/3 234/3/3 243/3/3
f 245/3/3 238/3/3 237/3/3
f 245/3/3 239/3/3 238/3/3
f 246/3/3 239/3/3 245/3/3
f 247/6/3 240/6/3 239/6/3
f 247/3/3 239/3/3 246/3/3
f 248/3/3 242/3/3 241/3/3
f 248/6/3 240/6/3 247/6/3
f 248/3/3 241/3/3 240/3/3
f 249/4/3 244/4/3 243/4/3
f 250/4/3 235/4/3 244/4/3
f 250/4/3 244/4/3 249/4/3
f 251/5/3 246/5/3 245/5/3
f 252/5/3 246/5/3 251/5/3
f 253/2/3 248/2/3 247/2/3
f 254/3/3 242/3/3 248/3/3
f 254/2/3 248/2/3 253/2/3
f 255/4/3 235/4/3 250/4/3
f 255/3/3 250/3/3 249/3/3
f 256/3/3 236/3/3 235/3/3
f 256/4/3 235/4/3 255/4/3
f 257/3/3 230/3/3 236/3/3
f 257/3/3 236/3/3 256/3/3
f 258/3/3 253/3/3 252/3/3
f 258/3/3 252/3/3 251/3/3
f 259/3/3 253/3/3 258/3/3
f 260/6/3 254/6/3 253/6/3
f 260/3/3 253/3/3 259/3/3
f 261/3/3 242/3/3 254/3/3
f 261/6/3 254/6/3 260/6/3
f 262/3/3 242/3/3 261/3/3
f 263/3/3 242/3/3 262/3/3
f 264/5/3 259/5/3 258/5/3
f 265/3/3 260/3/3 259/3/3
f 265/5/3 259/5/3 264/5/3
f 265/3/3 261/3/3 260/3/3
f 265/3/3 262/3/3 261/3/3
f 266/3/3 262/3/3 265/3/3
f 267/3/3 256/3/3 255/3/3
f 267/3/3 255/3/3 249/3/3
f 268/3/3 256/3/3 267/3/3
f 269/4/3 257/4/3 256/4/3
f 269/3/3 256/3/3 268/3/3
f 270/3/3 230/3/3 257/3/3
f 270/4/3 257/4/3 269/4/3
f 271/3/3 230/3/3 270/3/3
f 272/3/3 230/3/3 271/3/3
f 273/3/3 269/3/3 268/3/3
f 273/3/3 271/3/3 270/3/3
f 273/3/3 270/3/3 269/3/3
f 274/3/3 271/3/3 273/3/3
f 281/3/3 276/3/3 275/3/3
f 282/3/3 276/3/3 281/3/3
f 283/4/3 278/4/3 277/4/3
f 284/4/3 278/4/3 283/4/3
f 289/5/3 280/5/3 279/5/3
f 290/3/3 281/3/3 280/3/3
f 290/5/3 280/5/3 289/5/3
f 291/3/3 286/3/3 285/3/3
f 292/3/3 288/3/3 287/3/3
f 293/3/3 288/3/3 292/3/3
f 294/3/3 281/3/3 290/3/3
f 295/3/3 281/3/3 294/3/3
f 296/3/3 291/3/3 285/3/3
f 299/3/3 296/3/3 285/3/3
f 301/3/3 298/3/3 297/3/3
f 302/3/3 299/3/3 285/3/3
f 305/3/3 302/3/3 285/3/3
f 306/3/3 302/3/3 305/3/3
f 307/3/3 304/3/3 303/3/3
f 308/3/3 304/3/3 307/3/3
f 309/5/3 301/5/3 300/5/3
f 310/3/3 298/3/3 301/3/3
f 310/5/3 301/5/3 309/5/3
f 311/3/3 298/3/3 310/3/3
f 315/3/3 312/3/3 311/3/3
f 316/3/3 312/3/3 315/3/3
f 317/4/3 314/4/3 313/4/3
f 318/4/3 314/4/3 317/4/3
f 320/2/3 316/2/3 315/2/3
f 321/3/3 317/3/3 316/3/3
f 322/3/3 317/3/3 321/3/3
f 323/2/3 320/2/3 319/2/3
f 324/2/3 316/2/3 320/2/3
f 324/2/3 320/2/3 323/2/3
f 324/3/3 321/3/3 316/3/3
f 325/3/3 321/3/3 324/3/3
f 326/3/4 327/3/4 331/3/4
f 331/3/4 327/3/4 332/3/4
f 328/1/4 329/1/4 334/1/4
f 334/1/4 329/1/4 335/1/4
f 330/1/4 331/1/4 336/1/4
f 336/1/4 331/1/4 337/1/4
f 332/3/4 333/3/4 338/3/4
f 338/3/4 333/3/4 339/3/4
f 337/3/4 338/3/4 340/3/4
f 340/3/4 338/3/4 341/3/4
f 342/3/4 343/3/4 344/3/4
f 344/3/4 343/3/4 345/3/4
f 346/2/4 347/2/4 350/2/4
f 347/3/4 348/3/4 351/3/4
f 351/3/4 348/3/4 352/3/4
f 349/2/4 350/2/4 353/2/4
f 350/2/4 347/2/4 354/2/4
f 353/2/4 350/2/4 354/2/4
f 347/3/4 351/3/4 354/3/4
f 354/3/4 351/3/4 355/3/4
f 356/3/4 357/3/4 360/3/4
f 360/3/4 357/3/4 361/3/4
f 358/3/4 359/3/4 365/3/4
f 365/3/4 359/3/4 366/3/4
f 361/4/4 362/4/4 367/4/4
f 367/4/4 362/4/4 368/4/4
f 363/5/4 364/5/4 373/5/4
f 364/3/4 365/3/4 374/3/4
f 373/5/4 364/5/4 374/5/4
f 371/3/4 372/3/4 375/3/4
f 375/3/4 372/3/4 376/3/4
f 374/3/4 365/3/4 377/3/4
f 377/3/4 365/3/4 378/3/4
f 379/3/4 380/3/4 382/3/4
f 369/3/4 370/3/4 385/3/4
f 385/3/4 370/3/4 386/3/4
f 383/3/4 384/3/4 387/3/4
f 387/3/4 384/3/4 388/3/4
f 381/5/4 382/5/4 389/5/4
f 382/3/4 380/3/4 390/3/4
f 389/5/4 382/5/4 390/5/4
f 390/3/4 380/3/4 391/3/4
f 391/3/4 392/3/4 395/3/4
f 395/3/4 392/3/4 396/3/4
f 393/4/4 394/4/4 397/4/4
f 397/4/4 394/4/4 398/4/4
f 399/3/4 400/3/4 402/3/4
f 402/3/4 400/3/4 403/3/4
f 403/3/4 400/3/4 404/3/4
f 404/3/4 400/3/4 405/3/4
f 401/3/4 402/3/4 409/3/4
f 402/3/4 403/3/4 409/3/4
f 403/4/4 404/4/4 409/4/4
f 405/3/4 406/3/4 410/3/4
f 409/4/4 404/4/4 410/4/4
f 404/3/4 405/3/4 410/3/4
f 410/3/4 406/3/4 411/3/4
f 407/3/4 408/3/4 412/3/4
f 409/3/4 410/3/4 414/3/4
f 410/4/4 411/4/4 414/4/4
f 411/3/4 406/3/4 415/3/4
f 414/4/4 411/4/4 415/4/4
f 409/3/4 414/3/4 416/3/4
f 414/3/4 415/3/4 416/3/4
f 415/3/4 406/3/4 417/3/4
f 416/3/4 415/3/4 417/3/4
f 409/3/4 416/3/4 418/3/4
f 401/3/4 409/3/4 418/3/4
f 416/4/4 417/4/4 419/4/4
f 418/3/4 416/3/4 419/3/4
f 417/3/4 406/3/4 420/3/4
f 419/4/4 417/4/4 420/4/4
f 412/3/4 413/3/4 421/3/4
f 407/3/4 412/3/4 421/3/4
f 421/3/4 413/3/4 422/3/4
f 407/3/4 421/3/4 423/3/4
f 423/3/4 421/3/4 424/3/4
f 401/3/4 418/3/4 425/3/4
f 425/3/4 418/3/4 426/3/4
f 418/4/4 419/4/4 427/4/4
f 426/3/4 418/3/4 427/3/4
f 419/3/4 420/3/4 428/3/4
f 427/4/4 419/4/4 428/4/4
f 420/3/4 406/3/4 429/3/4
f 428/3/4 420/3/4 429/3/4
f 429/3/4 406/3/4 430/3/4
f 427/3/4 428/3/4 431/3/4
f 428/3/4 429/3/4 431/3/4
f 426/3/4 427/3/4 431/3/4
f 431/3/4 429/3/4 432/3/4
f 435/1/5 434/1/5 433/1/5
f 436/1/5 434/1/5 435/1/5
f 441/5/5 438/5/5 437/5/5
f 442/5/5 438/5/5 441/5/5
f 443/5/5 440/5/5 439/5/5
f 444/5/5 440/5/5 443/5/5
f 451/2/5 450/2/5 449/2/5
f 452/2/5 450/2/5 451/2/5
f 453/3/5 446/3/5 445/3/5
f 454/3/5 446/3/5 453/3/5
f 455/3/5 448/3/5 447/3/5
f 456/3/5 448/3/5 455/3/5
f 462/3/5 458/3/5 457/3/5
f 463/4/5 459/4/5 458/4/5
f 463/3/5 458/3/5 462/3/5
f 464/3/5 460/3/5 459/3/5
f 464/4/5 459/4/5 463/4/5
f 465/3/5 460/3/5 464/3/5
f 468/2/5 467/2/5 466/2/5
f 468/3/5 466/3/5 465/3/5
f 469/2/5 467/2/5 468/2/5
f 470/3/5 462/3/5 461/3/5
f 471/3/5 462/3/5 470/3/5
f 472/3/5 464/3/5 463/3/5
f 473/3/5 464/3/5 472/3/5
f 474/3/5 468/3/5 465/3/5
f 475/3/5 468/3/5 474/3/5
f 476/3/5 473/3/5 472/3/5
f 476/3/5 474/3/5 473/3/5
f 476/3/5 472/3/5 471/3/5
f 477/3/5 474/3/5 476/3/5
f 482/3/5 479/3/5 478/3/5
f 483/3/5 479/3/5 482/3/5
f 484/3/5 481/3/5 480/3/5
f 485/3/5 481/3/5 484/3/5
f 490/3/5 487/3/5 486/3/5
f 491/3/5 487/3/5 490/3/5
f 492/3/5 489/3/5 488/3/5
f 493/3/5 489/3/5 492/3/5
f 496/2/5 495/2/5 494/2/5
f 497/2/5 495/2/5 496/2/5
f 499/3/5 497/3/5 496/3/5
f 499/2/5 498/2/5 497/2/5
f 500/2/5 498/2/5 499/2/5
f 501/3/5 499/3/5 496/3/5
f 501/3/5 500/3/5 499/3/5
f 502/3/5 500/3/5 501/3/5
f 503/3/5 501/3/5 496/3/5
f 504/3/5 501/3/5 503/3/5
f 511/5/5 506/5/5 505/5/5
f 512/3/5 507/3/5 506/3/5
f 512/5/5 506/5/5 511/5/5
f 513/5/5 508/5/5 507/5/5
f 513/3/5 507/3/5 512/3/5
f 514/3/5 509/3/5 508/3/5
f 514/5/5 508/5/5 513/5/5
f 515/5/5 510/5/5 509/5/5
f 515/3/5 509/3/5 514/3/5
f 516/5/5 510/5/5 515/5/5
f 519/3/5 518/3/5 517/3/5
f 520/3/5 518/3/5 519/3/5
f 524/3/5 522/3/5 521/3/5
f 525/3/5 522/3/5 524/3/5
f 527/3/5 524/3/5 523/3/5
f 528/3/5 524/3/5 527/3/5
f 529/3/5 526/3/5 525/3/5
f 530/3/5 526/3/5 529/3/5
f 531/3/5 529/3/5 528/3/5
f 532/3/5 529/3/5 531/3/5
f 535/2/5 534/2/5 533/2/5
f 536/2/5 534/2/5 535/2/5
f 537/3/6 538/3/6 539/3/6
f 539/3/6 538/3/6 540/3/6
f 541/2/6 542/2/6 543/2/6
f 543/2/6 542/2/6 544/2/6
f 543/3/6 544/3/6 546/3/6
f 544/2/6 545/2/6 546/2/6
f 546/2/6 545/2/6 547/2/6
f 546/3/6 547/3/6 548/3/6
f 543/3/6 546/3/6 551/3/6
f 546/3/6 548/3/6 551/3/6
f 551/3/6 548/3/6 552/3/6
f 549/3/6 550/3/6 553/3/6
f 553/3/6 550/3/6 554/3/6
f 554/3/6 555/3/6 556/3/6
f 556/3/6 555/3/6 557/3/6
f 543/3/6 551/3/6 558/3/6
f 558/3/6 551/3/6 559/3/6
f 559/3/6 560/3/6 563/3/6
f 563/3/6 560/3/6 564/3/6
f 561/3/6 562/3/6 565/3/6
f 565/3/6 562/3/6 566/3/6
f 567/3/6 568/3/6 570/3/6
f 570/3/6 568/3/6 571/3/6
f 571/3/6 568/3/6 572/3/6
f 572/3/6 568/3/6 573/3/6
f 569/4/6 570/4/6 575/4/6
f 570/3/6 571/3/6 576/3/6
f 575/4/6 570/4/6 576/4/6
f 576/3/6 571/3/6 577/3/6
f 572/3/6 573/3/6 578/3/6
f 573/4/6 574/4/6 579/4/6
f 578/3/6 573/3/6 579/3/6
f 579/4/6 574/4/6 580/4/6
f 577/3/6 578/3/6 581/3/6
f 576/3/6 577/3/6 581/3/6
f 578/3/6 579/3/6 581/3/6
f 581/3/6 579/3/6 582/3/6
f 583/3/6 584/3/6 586/3/6
f 586/3/6 584/3/6 587/3/6
f 585/3/6 586/3/6 589/3/6
f 589/3/6 586/3/6 590/3/6
f 587/3/6 588/3/6 591/3/6
f 591/3/6 588/3/6 592/3/6
f 590/3/6 591/3/6 595/3/6
f 595/3/6 591/3/6 596/3/6
f 593/2/6 594/2/6 597/2/6
f 597/2/6 594/2/6 598/2/6
f 599/3/6 600/3/6 601/3/6
f 601/3/6 600/3/6 602/3/6
f 603/3/6 604/3/6 607/3/6
f 607/3/6 604/3/6 608/3/6
f 605/3/6 606/3/6 609/3/6
f 609/3/6 606/3/6 610/3/6
f 611/3/6 612/3/6 615/3/6
f 615/3/6 612/3/6 616/3/6
f 613/3/6 614/3/6 617/3/6
f 617/3/6 614/3/6 618/3/6
f 619/3/6 620/3/6 622/3/6
f 622/3/6 620/3/6 623/3/6
f 621/3/6 622/3/6 625/3/6
f 623/3/6 624/3/6 625/3/6
f 622/3/6 623/3/6 625/3/6
f 625/3/6 624/3/6 626/3/6
f 626/3/6 624/3/6 627/3/6
f 627/3/6 624/3/6 628/3/6
f 626/3/6 627/3/6 629/3/6
f 629/3/6 627/3/6 630/3/6
